<?xml version="1.0" standalone="no"?>
<!DOCTYPE svg PUBLIC "-//W3C//DTD SVG 1.1//EN" "http://www.w3.org/Graphics/SVG/1.1/DTD/svg11.dtd" >
<svg xmlns="http://www.w3.org/2000/svg">
<metadata></metadata>
<defs>
<font id="noyhsemilight" horiz-adv-x="1392" >
<font-face units-per-em="2048" ascent="1536" descent="-512" />
<missing-glyph horiz-adv-x="407" />
<glyph unicode="&#xfb01;" horiz-adv-x="1128" d="M614 1124q-6 0 -26.5 2t-40.5 2q-107 0 -141.5 -62t-34.5 -237h587q17 0 17 -16v-797q0 -16 -17 -16h-96q-16 0 -16 16v684h-475v-684q0 -16 -17 -16h-96q-16 0 -16 16v684h-174q-17 0 -17 17v96q0 16 17 16h174q0 158 31.5 254t88 135t144.5 39q80 0 141 -26 q12 -9 12 -12q0 -11 -2 -13l-26 -76q-3 -6 -17 -6z" />
<glyph unicode="&#xfb02;" horiz-adv-x="1128" d="M614 1124q-6 0 -26.5 2t-40.5 2q-107 0 -141.5 -62t-34.5 -237h233q17 0 17 -16v-96q0 -17 -17 -17h-233v-684q0 -16 -17 -16h-96q-16 0 -16 16v684h-174q-17 0 -17 17v96q0 16 17 16h174q0 158 31.5 254t88 135t144.5 39q80 0 141 -26q12 -9 12 -12q0 -11 -2 -13 l-26 -76q-3 -6 -17 -6zM975 1161v-1145q0 -16 -17 -16h-96q-16 0 -16 16v1145q0 17 16 17h96q17 0 17 -17z" />
<glyph horiz-adv-x="0" />
<glyph unicode="&#xd;" horiz-adv-x="579" />
<glyph unicode=" "  horiz-adv-x="407" />
<glyph unicode="&#x09;" horiz-adv-x="407" />
<glyph unicode="&#xa0;" horiz-adv-x="407" />
<glyph unicode="!" horiz-adv-x="466" d="M299 1147l-23 -864q0 -17 -16 -17h-61q-17 0 -17 17l-20 864q0 16 16 16h105q16 0 16 -16zM154 70q0 35 22 57.5t57 22.5t57.5 -22.5t22.5 -57.5t-22.5 -57.5t-57.5 -22.5t-57 22.5t-22 57.5z" />
<glyph unicode="&#x22;" horiz-adv-x="727" d="M252 842h-59q-19 0 -19 18q-13 159 -20 285q0 18 18 18h100q21 0 21 -18l-23 -285q0 -18 -18 -18zM532 842h-59q-18 0 -18 18q-16 204 -21 285q0 18 19 18h100q20 0 20 -18l-22 -285q0 -18 -19 -18z" />
<glyph unicode="#" horiz-adv-x="1593" d="M979 410l113 311h-447l-113 -311h447zM932 281h-445l-96 -258q-13 -23 -29 -23h-88q-20 0 -20 20l94 261h-178q-16 0 -16 16v96q0 17 16 17h225l113 311h-221q-17 0 -17 16v97q0 16 17 16h268l104 291q13 22 29 22h88q21 0 21 -20l-105 -293h447l104 291q13 22 29 22h88 q20 0 20 -20l-104 -293h147q17 0 17 -16v-97q0 -16 -17 -16h-194l-113 -311h191q16 0 16 -17v-96q0 -16 -16 -16h-236l-96 -258q-13 -23 -29 -23h-88q-20 0 -20 20z" />
<glyph unicode="$" horiz-adv-x="1103" d="M950 285q0 -63 -30 -116.5t-79.5 -88.5t-107 -56.5t-117.5 -27.5v-154q0 -16 -16 -16h-96q-17 0 -17 16v156q-163 13 -294 80q-11 7 -11 16q0 8 2 10l27 68q7 10 16 10q7 0 9 -2q143 -65 323 -65q110 0 186 46t76 128q0 52 -37 93t-95.5 68t-129.5 53t-142.5 56.5 t-130 68.5t-95.5 99.5t-37 140.5q0 142 84 222t249 90v155q0 17 17 17h96q16 0 16 -17v-157q137 -12 240 -52q10 -10 10 -16t-2 -8l-35 -74q-3 -8 -10 -8q-8 0 -12 2q-117 31 -254 31q-55 0 -99.5 -8.5t-72 -21t-48 -31.5t-29.5 -34.5t-14.5 -37t-6 -31t-0.5 -23.5 q0 -54 37 -95t95.5 -68t129.5 -52.5t142.5 -55.5t130 -68t95.5 -100t37 -142z" />
<glyph unicode="%" horiz-adv-x="1847" d="M549 20l606 1121q13 22 29 22h96q20 0 20 -20l-606 -1120q-13 -23 -28 -23h-97q-20 0 -20 20zM440 1163q115 0 198 -83t83 -199q0 -117 -83.5 -201t-197.5 -84q-118 0 -202 84t-84 201t83.5 199.5t202.5 82.5zM438 700q63 0 110.5 52.5t47.5 128.5q0 75 -46.5 120.5 t-111.5 45.5q-71 0 -118.5 -44t-47.5 -122q0 -77 49 -129t117 -52zM1413 557q115 0 198 -83.5t83 -199.5q0 -117 -83.5 -200.5t-197.5 -83.5q-118 0 -202.5 83.5t-84.5 200.5t84 200t203 83zM1411 94q63 0 110.5 52t47.5 128q0 75 -46.5 120.5t-111.5 45.5q-71 0 -118.5 -44 t-47.5 -122q0 -77 48.5 -128.5t117.5 -51.5z" />
<glyph unicode="&#x26;" horiz-adv-x="1353" d="M815 252l-301 315q-73 -15 -128 -62.5t-79 -97t-24 -90.5q0 -57 15 -96.5t36 -60.5t59 -32.5t69.5 -14t80.5 -2.5q58 0 141 39.5t131 101.5zM1153 455l-174 -197l221 -238q0 -20 -20 -20h-97q-21 0 -36 18l-146 156q-55 -57 -114 -97t-108 -57t-80 -23.5t-54 -6.5 q-179 0 -285 82.5t-106 238.5q0 96 67.5 198t196.5 155q-117 125 -117 223q0 127 96 209t293 82q142 0 236 -52q12 -6 12 -18q0 -6 -2 -8l-29 -66q-6 -12 -16 -12l-12 4q-73 23 -183 23q-266 0 -266 -162q0 -50 113 -168l356 -379l182 190q7 7 15 7t14 -9l45 -45q6 -6 6 -12 q0 -8 -8 -16z" />
<glyph unicode="'" horiz-adv-x="446" d="M252 842h-59q-19 0 -19 18q-13 159 -20 285q0 18 18 18h100q21 0 21 -18l-23 -285q0 -18 -18 -18z" />
<glyph unicode="(" horiz-adv-x="655" d="M502 1448q-219 -481 -219 -916q0 -218 54 -427.5t165 -434.5q-3 -20 -21 -20h-86q-15 0 -24 20q-112 227 -164.5 437t-52.5 430q0 422 219 913q9 20 22 20h82q12 0 25 -22z" />
<glyph unicode=")" horiz-adv-x="655" d="M154 1448q1 2 3 5t3 5t3 4.5t4 4t5 2.5t6 1h82q14 0 23 -20q219 -491 219 -913q0 -220 -52.5 -430t-164.5 -437q-9 -20 -25 -20h-86q-17 0 -20 20q111 225 165 434.5t54 427.5q0 435 -219 916z" />
<glyph unicode="*" horiz-adv-x="1032" d="M469 1163h94q19 0 19 -18l-19 -309l254 125q2 2 8 2q11 0 17 -13l35 -82q2 -2 2 -8q0 -11 -13 -14l-254 -103l150 -219q0 -3 1 -5t1 -5q0 -11 -8 -16l-80 -41q-2 -1 -4.5 -2t-3.5 -1.5t-2 -0.5q-8 0 -15 10l-135 233l-135 -233q-7 -10 -14 -10q-1 0 -4.5 1.5t-6.5 2.5 l-80 41q-8 5 -8 16q0 3 1 5t1 5l150 219l-254 103q-12 3 -12 14q0 6 2 8l34 82q6 13 17 13q6 0 8 -2l252 -125l-16 309q0 18 18 18z" />
<glyph unicode="+" horiz-adv-x="892" d="M721 481q18 0 18 -18v-92q0 -19 -18 -19h-209v-225q0 -18 -18 -18h-93q-18 0 -18 18v225h-211q-18 0 -18 19v92q0 18 18 18h211v232q0 18 18 18h93q18 0 18 -18v-232h209z" />
<glyph unicode="," horiz-adv-x="464" d="M201 -145h-29q-14 0 -14 14l43 131q-47 31 -47 70q0 34 23 57t54 23q35 0 57.5 -22.5t22.5 -57.5q0 -6 -3 -16.5t-5 -12.5l-82 -170q-6 -16 -20 -16z" />
<glyph unicode="-" horiz-adv-x="907" d="M170 446h567q17 0 17 -16v-96q0 -17 -17 -17h-567q-16 0 -16 17v96q0 16 16 16z" />
<glyph unicode="." horiz-adv-x="466" d="M154 70q0 35 22 57.5t57 22.5t57.5 -22.5t22.5 -57.5t-22.5 -57.5t-57.5 -22.5t-57 22.5t-22 57.5z" />
<glyph unicode="/" horiz-adv-x="1038" d="M885 1348l-596 -1584q-13 -22 -29 -22h-86q-20 0 -20 20l596 1584q13 22 28 22h86q21 0 21 -20z" />
<glyph unicode="0" horiz-adv-x="1212" d="M606 1180q159 0 275 -81t172.5 -213.5t56.5 -299.5t-56.5 -299.5t-172.5 -213.5t-275 -81t-275 81t-172.5 213.5t-56.5 299.5t56.5 299.5t172.5 213.5t275 81zM606 113q124 0 210 64.5t125.5 168t39.5 236.5t-39.5 236.5t-125.5 168t-210 64.5t-210 -64.5t-125.5 -168 t-39.5 -236.5t39.5 -236.5t125.5 -168t210 -64.5z" />
<glyph unicode="1" horiz-adv-x="751" d="M88 809q-7 0 -11.5 7t-4.5 15v78q0 15 20 21q186 56 486 229q2 1 5 2l4.5 1.5t2.5 0.5q8 0 8 -16v-1131q0 -16 -16 -16h-97q-16 0 -16 16v936q-87 -56 -191 -92.5t-190 -50.5z" />
<glyph unicode="2" horiz-adv-x="1030" d="M213 991q-10 0 -12 2q-12 4 -17 17l-26 71q-4 12 -4 15q0 5 10 12q144 70 313 70q418 0 418 -314q0 -95 -40 -176t-108.5 -146t-141.5 -123t-158.5 -135.5t-141.5 -154.5h576q16 0 16 -16v-97q0 -16 -16 -16h-731q-17 0 -17 16v37q0 61 34.5 122.5t90 114.5t122 106.5 t134 108t123.5 108.5t91.5 118t37.5 129q0 13 -1 23.5t-6.5 31.5t-16 37t-32.5 35t-52 32t-78.5 21.5t-108.5 8.5q-116 0 -258 -58z" />
<glyph unicode="3" horiz-adv-x="985" d="M125 74q-8 8 -8 14q0 5 6 14l39 62q5 8 18 8q11 0 17 -6q131 -55 241 -55q167 0 231 58t64 196q0 62 -22.5 106.5t-64 68t-85 35t-100.5 15.5q-29 0 -41 -4q-8 0 -8 8l204 440h-497q-17 0 -17 17v96q0 16 17 16h680q16 0 16 -12q0 -10 -4 -14l-213 -449 q133 -34 198.5 -124t65.5 -197q0 -191 -103.5 -284t-326.5 -93q-70 0 -157 24t-150 60z" />
<glyph unicode="4" horiz-adv-x="1067" d="M721 408v661l-463 -661h463zM645 1163h186q19 0 19 -18v-737h129q16 0 16 -17v-96q0 -16 -16 -16h-129v-263q0 -16 -16 -16h-97q-16 0 -16 16v263h-590q-18 0 -18 18v121q0 14 24 45l481 682q12 18 27 18z" />
<glyph unicode="5" horiz-adv-x="987" d="M324 547q-28 -21 -39 -21q-35 0 -129 9q-19 9 -19 20v592q0 16 17 16h665q17 0 17 -16v-96q0 -17 -17 -17h-553v-391q52 31 105.5 47.5t82 18.5t72.5 2q108 0 196.5 -44t142 -129.5t53.5 -197.5q0 -166 -107 -258t-283 -92q-142 0 -246 50.5t-149 154.5q0 22 23 22h92 q13 0 26 -22q34 -37 81 -57t82.5 -23.5t92.5 -3.5q59 0 103 9.5t80.5 33.5t55.5 70t19 114q0 67 -21 116t-58.5 76t-83 39.5t-101.5 12.5q-50 0 -73.5 -1.5t-57.5 -9t-69 -24.5z" />
<glyph unicode="6" horiz-adv-x="1079" d="M541 633q-124 0 -211.5 -64t-87.5 -190q0 -87 44 -149.5t109.5 -90.5t143.5 -28q125 0 212 69.5t87 198.5q0 127 -85.5 190.5t-211.5 63.5zM621 1143l-211 -391h125q114 0 212 -44.5t159 -128.5t61 -188q0 -127 -60.5 -220t-156.5 -137t-213 -44q-85 0 -160.5 26t-135 75 t-94 126.5t-34.5 173.5q0 40 17.5 96.5t39.5 96.5l305 559q14 20 31 20h94q21 0 21 -20z" />
<glyph unicode="7" horiz-adv-x="944" d="M268 20l428 1014h-598q-16 0 -16 17v96q0 16 16 16h768q17 0 17 -12q0 -10 -4 -14l-469 -1117q-14 -20 -31 -20h-90q-21 0 -21 20z" />
<glyph unicode="8" horiz-adv-x="1077" d="M539 111q39 0 75 4t78 17.5t72.5 35t51 60t20.5 89.5q0 59 -26.5 103.5t-71 68.5t-95 35t-106.5 11t-105.5 -11t-93.5 -35t-70 -68.5t-26 -103.5q0 -51 20.5 -89.5t51 -60t72.5 -35t78 -17.5t75 -4zM539 662q40 0 63 1t54 5t49 11.5t38 22t30 36t17 53t7 73.5 q0 43 -13 76.5t-38 52.5t-49.5 31.5t-59 17t-54 6t-46.5 1.5q-26 0 -45.5 -1.5t-53 -6t-58 -17t-49 -31.5t-37.5 -52.5t-13 -76.5q0 -42 7 -73.5t17 -53t30 -36t38 -22t49 -11.5t54 -5t63 -1zM541 -10q-113 0 -209 37t-157.5 114.5t-61.5 180.5q0 38 2.5 64t12 58.5t27.5 57 t50 50.5t78 48q-46 25 -75 59.5t-40 76t-13.5 67t-2.5 65.5q0 80 30 140.5t84 97t122.5 54.5t150.5 18t150.5 -18t122.5 -54.5t84 -97t30 -140.5q0 -40 -2.5 -65.5t-13.5 -67t-40 -76t-75 -59.5q56 -28 92 -59.5t52 -68.5t21 -69.5t5 -80.5q0 -103 -61.5 -180.5 t-156.5 -114.5t-206 -37z" />
<glyph unicode="9" horiz-adv-x="1079" d="M539 535q79 0 144.5 24.5t110 83.5t44.5 145t-44 147t-109.5 87.5t-143.5 26.5q-125 0 -212 -67t-87 -194q0 -65 24.5 -115t66.5 -79.5t94 -44t112 -14.5zM457 20l213 392h-125q-175 0 -303.5 103.5t-128.5 260.5q0 127 60.5 220t156.5 137.5t213 44.5q85 0 160.5 -26 t135 -75.5t94 -127t34.5 -173.5q0 -40 -18 -95.5t-40 -96.5l-307 -564q-14 -20 -31 -20h-94q-20 0 -20 20z" />
<glyph unicode=":" horiz-adv-x="466" d="M154 70q0 35 22 57.5t57 22.5t57.5 -22.5t22.5 -57.5t-22.5 -57.5t-57.5 -22.5t-57 22.5t-22 57.5zM154 690q0 35 22 57.5t57 22.5t57.5 -22.5t22.5 -57.5t-22.5 -57.5t-57.5 -22.5t-57 22.5t-22 57.5z" />
<glyph unicode=";" horiz-adv-x="464" d="M158 684q0 30 21.5 52t51.5 22q32 0 56 -22.5t24 -51.5q0 -32 -24 -55t-56 -23q-31 0 -52 23t-21 55zM201 -145h-29q-14 0 -14 14l43 131q-47 31 -47 70q0 34 23 57t54 23q35 0 57.5 -22.5t22.5 -57.5q0 -6 -3 -16.5t-5 -12.5l-82 -170q-6 -16 -20 -16z" />
<glyph unicode="&#x3c;" horiz-adv-x="937" d="M154 322v167q0 15 24 25l584 293q22 0 22 -23v-102q0 -10 -4.5 -14t-17.5 -9l-516 -253l516 -252q13 -5 17.5 -9t4.5 -14v-102q0 -23 -22 -23l-584 291q-24 10 -24 25z" />
<glyph unicode="=" horiz-adv-x="747" d="M170 293h408q16 0 16 -17v-96q0 -16 -16 -16h-408q-16 0 -16 16v96q0 17 16 17zM170 612h408q16 0 16 -16v-96q0 -17 -16 -17h-408q-16 0 -16 17v96q0 16 16 16z" />
<glyph unicode="&#x3e;" horiz-adv-x="937" d="M784 489v-167q0 -15 -24 -25l-584 -291q-22 0 -22 23v102q0 10 4.5 14t17.5 9l516 252l-516 253q-13 5 -17.5 9t-4.5 14v102q0 23 22 23l584 -293q24 -10 24 -25z" />
<glyph unicode="?" horiz-adv-x="927" d="M168 1120q118 58 264 58q147 0 244.5 -69.5t97.5 -209.5q0 -61 -28 -121t-68 -108.5t-80 -95t-68 -100t-28 -105.5v-78q0 -17 -17 -17h-96q-16 0 -16 17v82q0 72 28 133t68 105.5t80 86.5t68 95.5t28 113.5q0 76 -47.5 109t-171.5 33q-117 0 -213 -35q-2 -1 -5 -2 l-4.5 -1.5t-2.5 -0.5q-18 4 -21 12l-24 70q-2 2 -2 10q0 10 14 18zM362 70q0 35 22.5 57.5t57.5 22.5t57.5 -22.5t22.5 -57.5t-22.5 -57.5t-57.5 -22.5t-57.5 22.5t-22.5 57.5z" />
<glyph unicode="@" horiz-adv-x="2009" d="M967 111q131 0 194.5 48t63.5 181q0 121 -67 180.5t-191 59.5q-126 0 -183 -52.5t-57 -187.5q0 -108 60 -168.5t180 -60.5zM1575 -346q-78 -30 -205 -49t-207 -19q-88 0 -163 4t-159.5 15.5t-155 30.5t-142.5 51t-128 75t-106.5 105t-83.5 138t-52 176t-19 218 q0 70 12 140.5t41.5 147t73.5 144t113.5 129.5t156 106.5t205.5 70.5t258 26q192 0 343 -50.5t242.5 -128.5t151 -182.5t82 -203t22.5 -199.5q0 -204 -75 -313t-248 -109q-165 0 -289 109q-26 -28 -59 -47.5t-59 -28.5t-61.5 -14t-50.5 -5.5t-42 -0.5q-73 0 -138 21 t-118.5 62.5t-85 113t-31.5 163.5q0 166 91 262.5t255 96.5q46 0 78.5 -4.5t86 -27t112.5 -65.5v84q0 17 16 17h96q17 0 17 -17v-532q23 -27 45 -39q53 -39 135 -39q26 0 41 1t38.5 7.5t37.5 18.5t31 35t26 56t15.5 83.5t6.5 115.5q0 56 -7 110.5t-28 119t-54 120t-89 108.5 t-129 90.5t-178.5 60t-232.5 22.5q-126 0 -231.5 -23t-179 -60.5t-130.5 -91t-91 -109.5t-55.5 -120.5t-29.5 -119.5t-8 -111q0 -63 3.5 -114t15 -111t30.5 -107t52 -97t78 -87.5t110.5 -72t147.5 -56t190 -34.5t237 -13q234 0 428 72q20 0 20 -21v-82q0 -19 -20 -22z" />
<glyph unicode="A" horiz-adv-x="1191" d="M610 1165l531 -1145q0 -20 -21 -20h-92q-17 0 -31 20l-114 246h-574l-114 -246q-14 -20 -31 -20h-92q-21 0 -21 20l531 1145q12 4 14 4t14 -4zM369 395h454l-229 490z" />
<glyph unicode="B" horiz-adv-x="1101" d="M285 1034v-405h364q102 0 155.5 63t53.5 150q0 86 -58 139t-151 53h-364zM285 129h362q90 0 150.5 52t60.5 136q0 81 -43 132t-137 51h-393v-371zM686 0h-516q-16 0 -16 16v1131q0 16 16 16h475q155 0 249.5 -92t94.5 -229q0 -139 -119 -267q117 -97 117 -258 q0 -133 -86 -225t-215 -92z" />
<glyph unicode="C" horiz-adv-x="1210" d="M1126 156q-143 -166 -428 -166q-161 0 -298.5 79.5t-217.5 216.5t-80 298t79.5 298t216.5 216.5t298 79.5q215 0 379 -129q1 -3 3.5 -6.5t2.5 -4.5q0 -6 -10 -16l-51 -53q-11 -11 -21 -11q-7 0 -14 7q-64 46 -132 65t-157 19q-193 0 -329 -137.5t-136 -331.5t136 -331.5 t329 -137.5q216 0 351 122q5 5 12 5q15 0 24 -9l37 -49q8 -11 8 -16q0 -6 -2 -8z" />
<glyph unicode="D" horiz-adv-x="1183" d="M283 129h233q208 0 337.5 118.5t129.5 323.5q0 206 -131 334.5t-336 128.5h-233v-905zM170 1163h383q161 0 289.5 -77.5t199 -211t70.5 -296.5t-70.5 -294.5t-199 -207.5t-289.5 -76h-383q-16 0 -16 16v1131q0 16 16 16z" />
<glyph unicode="E" horiz-adv-x="1046" d="M285 629h491q17 0 17 -17v-96q0 -16 -17 -16h-493v-371h624q17 0 17 -16v-97q0 -16 -17 -16h-737q-16 0 -16 16v1131q0 16 16 16h737q17 0 17 -16v-96q0 -17 -17 -17h-622v-405z" />
<glyph unicode="F" horiz-adv-x="964" d="M283 500v-484q0 -16 -17 -16h-96q-16 0 -16 16v1131q0 16 16 16h737q17 0 17 -16v-96q0 -17 -17 -17h-622v-405h491q17 0 17 -17v-96q0 -16 -17 -16h-493z" />
<glyph unicode="G" horiz-adv-x="1310" d="M1151 588q16 0 16 -17v-553q0 -18 -18 -18h-16q-9 0 -25 23l-47 71q-138 -104 -363 -104q-161 0 -298.5 79.5t-217.5 216.5t-80 298t79.5 298t216.5 216.5t298 79.5q215 0 379 -129q1 -3 3.5 -6.5t2.5 -4.5q0 -6 -10 -16l-51 -53q-11 -11 -21 -11q-7 0 -14 7 q-64 46 -132 65t-157 19q-193 0 -329 -137.5t-136 -331.5t136 -331.5t329 -137.5q199 0 328 104v244h-244q-16 0 -16 16v96q0 17 16 17h371z" />
<glyph unicode="H" horiz-adv-x="1196" d="M1042 1147v-1131q0 -16 -16 -16h-96q-17 0 -17 16v482h-630v-482q0 -16 -17 -16h-96q-16 0 -16 16v1131q0 16 16 16h96q17 0 17 -16v-520h630v520q0 16 17 16h96q16 0 16 -16z" />
<glyph unicode="I" horiz-adv-x="436" d="M283 1147v-1131q0 -16 -17 -16h-96q-16 0 -16 16v1131q0 16 16 16h96q17 0 17 -16z" />
<glyph unicode="J" horiz-adv-x="917" d="M51 82l-4 4q-4 4 -4 8q0 9 6 15l41 63q9 12 19 12q8 0 10 -2q57 -37 110.5 -54t128.5 -17t123 11.5t84 39.5t54.5 81t27 128t8.5 190v586q0 16 17 16h96q16 0 16 -16v-598q0 -218 -41.5 -338.5t-130.5 -170.5t-250 -50q-181 0 -311 92z" />
<glyph unicode="K" horiz-adv-x="1146" d="M1014 1143l-369 -412l451 -711q0 -20 -21 -20h-106q-17 0 -31 20l-383 613l-272 -299v-318q0 -16 -17 -16h-96q-16 0 -16 16v1131q0 16 16 16h96q17 0 17 -16v-623l559 619q11 20 30 20h121q21 0 21 -20z" />
<glyph unicode="L" horiz-adv-x="1026" d="M909 0h-739q-16 0 -16 16v1131q0 16 16 16h96q17 0 17 -16v-1018h626q17 0 17 -16v-97q0 -16 -17 -16z" />
<glyph unicode="M" horiz-adv-x="1413" d="M707 336q-10 0 -21 14l-403 477v-811q0 -16 -17 -16h-96q-16 0 -16 16v1145q5 8 12 8q6 0 14 -8l494 -592q2 -2 7 -7.5t6.5 -6.5t5.5 -4t7 -3.5t7 -0.5t7 1t6.5 3t5 4t6 6.5l7.5 7.5l494 592q8 8 14 8q8 0 13 -8v-1145q0 -16 -17 -16h-96q-17 0 -17 16v811l-403 -477 q-11 -14 -20 -14z" />
<glyph unicode="N" horiz-adv-x="1296" d="M154 16v1145q5 8 12 8q6 0 14 -8l834 -600v586q0 16 16 16h96q17 0 17 -16v-1131q0 -16 -17 -16h-96q-16 0 -16 16v396l-731 516v-912q0 -16 -17 -16h-96q-16 0 -16 16z" />
<glyph unicode="O" d="M696 1178q161 0 298 -79.5t216.5 -216.5t79.5 -298t-79.5 -298t-216.5 -216.5t-298 -79.5t-298 79.5t-216.5 216.5t-79.5 298t79.5 298t216.5 216.5t298 79.5zM696 111q126 0 233 63t169.5 171t62.5 235t-62.5 235t-169.5 171t-233 63q-193 0 -329 -137.5t-136 -331.5 t136 -331.5t329 -137.5z" />
<glyph unicode="P" horiz-adv-x="1054" d="M283 555h376q97 0 156 58.5t59 181.5q0 122 -59.5 180.5t-155.5 58.5h-376v-479zM170 1163h514q134 0 227 -102.5t93 -263.5q0 -162 -93 -262.5t-227 -100.5h-401v-418q0 -16 -17 -16h-96q-16 0 -16 16v1131q0 16 16 16z" />
<glyph unicode="Q" d="M1290 584q0 -152 -71.5 -283.5t-194.5 -213.5t-272 -95q-2 -23 -2 -49q0 -43 20 -75t72 -32q9 0 22 1t17 1q2 0 14 -4l4 -4q3 -9 5.5 -17.5t4 -13.5t2.5 -9t2 -6t1.5 -3.5t0.5 -2.5v-1q0 -15 -8 -17q-31 -14 -86 -14q-44 0 -75.5 10t-58.5 36t-40.5 76.5t-13.5 125.5 q-148 16 -269.5 98t-191.5 211.5t-70 280.5q0 161 79.5 298t216.5 216.5t298 79.5t298 -79.5t216.5 -216.5t79.5 -298zM231 580q0 -194 136 -331.5t329 -137.5q126 0 233 63t169.5 171t62.5 235t-62.5 235t-169.5 171t-233 63q-193 0 -329 -137.5t-136 -331.5z" />
<glyph unicode="R" horiz-adv-x="1095" d="M1004 797q0 -133 -63.5 -226t-166.5 -125l217 -426q0 -20 -20 -20h-105q-16 0 -30 20l-209 414h-344v-418q0 -16 -17 -16h-96q-16 0 -16 16v1131q0 16 16 16h514q134 0 227 -102.5t93 -263.5zM283 1034v-479h376q97 0 156 58.5t59 181.5q0 122 -59.5 180.5t-155.5 58.5 h-376z" />
<glyph unicode="S" horiz-adv-x="1015" d="M776 1018q-117 31 -254 31q-55 0 -99.5 -8.5t-72 -21t-48 -31.5t-29.5 -34.5t-14.5 -37t-6 -31t-0.5 -23.5q0 -54 37 -95t96 -68t130 -52.5t142 -55.5t130 -68t96 -100t37 -142q0 -68 -36 -125t-92 -92t-120 -54.5t-125 -19.5q-218 0 -385 84q-10 7 -10 16q0 8 2 10 l26 68q7 10 17 10q6 0 8 -2q143 -65 323 -65q110 0 186.5 46t76.5 128q0 52 -37 93t-96 68t-130 53t-142 56.5t-130 68.5t-96 99.5t-37 140.5q0 154 98.5 234t290.5 80q160 0 313 -56q11 -7 11 -14q0 -6 -2 -10l-35 -74q-3 -8 -11 -8t-12 2z" />
<glyph unicode="T" horiz-adv-x="956" d="M88 1163h780q17 0 17 -16v-96q0 -17 -17 -17h-325v-1018q0 -16 -17 -16h-96q-16 0 -16 16v1018h-326q-16 0 -16 17v96q0 16 16 16z" />
<glyph unicode="U" horiz-adv-x="1282" d="M643 -10q-240 0 -364.5 128t-124.5 371v658q0 16 16 16h96q17 0 17 -16v-615q0 -218 82.5 -319.5t275.5 -101.5t275.5 101.5t82.5 319.5v615q0 16 17 16h96q16 0 16 -16v-658q0 -243 -123.5 -371t-361.5 -128z" />
<glyph unicode="V" horiz-adv-x="1187" d="M594 -10l-12 4l-531 1149q0 20 21 20h92q17 0 31 -20l399 -867l399 867q14 20 31 20h92q21 0 21 -20l-531 -1149q-2 -1 -5 -2l-4.5 -1.5t-2.5 -0.5z" />
<glyph unicode="W" horiz-adv-x="1576" d="M1130 -4l-323 721q-12 12 -19 12q-6 0 -18 -12l-324 -721q-2 -6 -20 -6q-11 0 -14 8l-361 1145q0 20 21 20h86q16 0 30 -20l258 -819l330 755q8 8 12 8q5 0 13 -8l329 -755l259 819q14 20 30 20h86q21 0 21 -20l-361 -1145q-3 -8 -14 -8q-19 0 -21 6z" />
<glyph unicode="X" horiz-adv-x="1052" d="M526 471q-40 -57 -149.5 -214t-167.5 -237q-14 -20 -31 -20h-106q-21 0 -21 20l398 564l-394 559q0 20 21 20h106q20 0 31 -20l313 -447l314 447q11 20 30 20h107q20 0 20 -20l-393 -559l397 -564q0 -20 -20 -20h-107q-16 0 -30 20q-59 82 -170 240.5t-148 210.5z" />
<glyph unicode="Y" horiz-adv-x="1099" d="M549 580l348 563q14 20 31 20h100q21 0 21 -20l-435 -709v-418q0 -16 -16 -16h-96q-17 0 -17 16v418l-434 709q0 20 21 20h100q17 0 31 -20z" />
<glyph unicode="Z" horiz-adv-x="962" d="M293 129h581q17 0 17 -16v-97q0 -16 -17 -16h-780q-16 0 -16 14q0 7 2 9l598 1011h-590q-16 0 -16 17v96q0 16 16 16h786q17 0 17 -14q0 -6 -2 -8z" />
<glyph unicode="[" horiz-adv-x="667" d="M154 -332v1786q0 19 18 19h324q18 0 18 -19v-92q0 -19 -18 -19h-213v-1564h213q18 0 18 -19v-92q0 -18 -18 -18h-324q-18 0 -18 18z" />
<glyph unicode="\" horiz-adv-x="1038" d="M750 -236l-596 1584q0 20 20 20h86q16 0 29 -22l596 -1584q0 -20 -21 -20h-86q-15 0 -28 22z" />
<glyph unicode="]" horiz-adv-x="667" d="M514 1454v-1786q0 -18 -18 -18h-324q-18 0 -18 18v92q0 19 18 19h213v1564h-213q-18 0 -18 19v92q0 19 18 19h324q18 0 18 -19z" />
<glyph unicode="^" horiz-adv-x="823" d="M346 1163h131q12 0 19 -10l174 -315q0 -21 -19 -21h-88q-5 0 -8.5 2t-5 4t-4.5 7.5t-4 7.5l-129 239l-129 -239l-3 -6q-4 -7 -5.5 -8.5t-5.5 -4t-9 -2.5h-88q-18 0 -18 21l174 315q7 10 18 10z" />
<glyph unicode="_" horiz-adv-x="907" d="M170 -10h567q17 0 17 -17v-96q0 -16 -17 -16h-567q-16 0 -16 16v96q0 17 16 17z" />
<glyph unicode="`" horiz-adv-x="577" d="M328 1147l96 -264q-10 -19 -21 -19h-65q-6 0 -21 15q-37 66 -163 268q0 16 16 16h139q13 0 19 -16z" />
<glyph unicode="a" horiz-adv-x="921" d="M430 113q37 0 101.5 22.5t117.5 75.5v61q-34 53 -105 83t-136 30q-106 0 -146.5 -33t-40.5 -106q0 -60 52 -96.5t157 -36.5zM229 678l-16 -4q-10 0 -16 14l-21 62q-6 12 -6 22q0 11 8 16q101 41 221 41q187 0 283 -94.5t96 -269.5v-447q0 -18 -18 -18h-66q-17 0 -26 18 l-9 78q-24 -37 -64.5 -61t-84.5 -32.5t-65.5 -10.5t-38.5 -2q-34 0 -66 3t-80 18.5t-82.5 41t-60 76t-25.5 119.5q0 136 75 201t204 65q85 0 151.5 -20.5t128.5 -85.5q0 75 -12 127.5t-33.5 84.5t-58 50t-77 24t-99.5 6q-49 0 -142 -22z" />
<glyph unicode="b" horiz-adv-x="1067" d="M274 113l-10 -95q-9 -18 -26 -18h-66q-18 0 -18 18v1129q0 16 16 16h96q17 0 17 -16v-442q130 124 305 124q173 0 285 -116.5t112 -298.5q0 -119 -42.5 -213.5t-133 -152.5t-217.5 -58q-41 0 -71.5 3.5t-73.5 14.5t-86.5 37.5t-86.5 67.5zM573 111q129 0 206 72.5 t77 228.5q0 133 -80 210.5t-203 77.5q-120 0 -205 -78t-85 -210q0 -137 84 -219t206 -82z" />
<glyph unicode="c" horiz-adv-x="833" d="M745 45q-97 -55 -243 -55q-172 0 -296 124t-124 296q0 113 57 209.5t153.5 153t209.5 56.5q151 0 254 -79q6 -6 6 -13q0 -10 -2 -12l-39 -61q-11 -11 -16 -11q-7 0 -9 2q-2 0 -4 2q-70 43 -190 43q-121 0 -206 -86t-85 -208t85 -208.5t206 -86.5q113 0 190 32q2 2 13 2 q10 0 18 -8l29 -63q4 -12 4 -17q0 -8 -11 -12z" />
<glyph unicode="d" horiz-adv-x="1067" d="M803 18l-10 95q-84 -77 -157.5 -100t-160.5 -23q-127 0 -217.5 58t-133 152.5t-42.5 213.5q0 182 112 298.5t285 116.5q175 0 305 -124v442q0 16 17 16h96q16 0 16 -16v-1129q0 -18 -18 -18h-66q-17 0 -26 18zM494 111q122 0 206 82t84 219q0 132 -85 210t-205 78 q-123 0 -203 -77.5t-80 -210.5q0 -156 77 -228.5t206 -72.5z" />
<glyph unicode="e" horiz-adv-x="946" d="M215 463h516q0 65 -23 113t-62.5 74t-84 38t-94.5 12t-93 -12.5t-79.5 -39t-58 -74t-21.5 -111.5zM780 55q-87 -65 -268 -65q-91 0 -168 25.5t-136 75.5t-92.5 132t-33.5 187q0 88 23 162t68.5 132.5t122.5 91.5t177 33t177 -33t122.5 -91.5t68.5 -132.5t23 -162v-66 h-649q0 -58 21.5 -102t52.5 -68t73.5 -39t77 -19.5t70.5 -4.5q125 0 215 45q2 2 14 2q8 0 19 -11l28 -63q5 -15 5 -16q0 -9 -11 -13z" />
<glyph unicode="f" horiz-adv-x="690" d="M68 829h174v23q0 158 31.5 254t88 135t144.5 39q77 0 141 -27q12 -9 12 -12q0 -7 -28 -88q-3 -6 -17 -6q-6 0 -26.5 2t-40.5 2q-107 0 -141.5 -62t-34.5 -237v-23h233q17 0 17 -16v-96q0 -17 -17 -17h-233v-684q0 -16 -17 -16h-96q-16 0 -16 16v684h-174q-17 0 -17 17v96 q0 16 17 16z" />
<glyph unicode="g" horiz-adv-x="1067" d="M494 111q122 0 206 82t84 219q0 132 -85 210t-205 78q-123 0 -203 -77.5t-80 -210.5q0 -156 77 -228.5t206 -72.5zM219 -336q-8 3 -8 14q0 9 2 11l29 71q7 7 10 7q2 0 4 -1t5 -2t5 -2q97 -43 236 -43q84 0 140 16.5t86.5 50.5t43 78t12.5 107v142q-59 -54 -117.5 -82.5 t-97.5 -34.5t-94 -6q-127 0 -217.5 58t-133 152.5t-42.5 213.5q0 182 112 298.5t285 116.5q175 0 305 -124l17 98q0 16 16 16h80q16 0 16 -16v-846q0 -83 -23 -147.5t-60 -103.5t-89 -64t-103.5 -34t-109.5 -9q-207 0 -309 65z" />
<glyph unicode="h" horiz-adv-x="1044" d="M283 1147v-440q30 35 63 59t58.5 36t59 18.5t52 7.5t49.5 1q98 0 166.5 -28t107 -82t55.5 -123.5t17 -163.5v-416q0 -16 -16 -16h-96q-17 0 -17 16v418q0 39 -1 63.5t-6 56t-15 50.5t-27.5 39.5t-43 31.5t-62.5 18t-86 7q-119 0 -188.5 -82.5t-69.5 -203.5v-398 q0 -16 -17 -16h-96q-16 0 -16 16v1131q0 16 16 16h96q17 0 17 -16z" />
<glyph unicode="i" horiz-adv-x="436" d="M283 803v-787q0 -16 -17 -16h-96q-16 0 -16 16v787q0 16 16 16h96q17 0 17 -16zM129 999q0 37 26.5 64t61.5 27q41 0 67.5 -27t26.5 -64t-26.5 -62.5t-67.5 -25.5q-36 0 -62 26t-26 62z" />
<glyph unicode="j" horiz-adv-x="436" d="M33 -401q-95 0 -154 30q-6 3 -6 9t2 8l25 71q4 4 16 4q58 -14 94 -14q60 0 89.5 22.5t42 81.5t12.5 181v811q0 16 16 16h96q17 0 17 -16v-840q0 -110 -15.5 -182t-49 -111.5t-77.5 -55t-108 -15.5zM129 999q0 37 26.5 64t61.5 27q41 0 67.5 -27t26.5 -64t-26.5 -62.5 t-67.5 -25.5q-36 0 -62 26t-26 62z" />
<glyph unicode="k" horiz-adv-x="888" d="M416 412l415 -392q0 -9 -13.5 -14.5t-26.5 -5.5h-105q-23 0 -37 20l-366 338v-342q0 -16 -17 -16h-96q-16 0 -16 16v1131q0 16 16 16h96q17 0 17 -16v-682l366 334q20 20 37 20h131q21 0 21 -20z" />
<glyph unicode="l" horiz-adv-x="436" d="M283 1147v-1131q0 -16 -17 -16h-96q-16 0 -16 16v1131q0 16 16 16h96q17 0 17 -16z" />
<glyph unicode="m" horiz-adv-x="1447" d="M264 801l10 -90q37 41 72.5 67t67.5 36t51.5 12.5t44.5 2.5q159 0 244 -129q36 44 74 72.5t77 39.5t65 14t62 3q133 0 208 -95.5t75 -239.5v-478q0 -16 -17 -16h-96q-16 0 -16 16v439q0 126 -42.5 185.5t-137.5 59.5q-76 0 -135.5 -51t-69.5 -129q2 -25 2 -67v-437 q0 -16 -17 -16h-96q-16 0 -16 16v402q0 125 -45.5 203.5t-139.5 78.5q-101 0 -153.5 -79.5t-52.5 -202.5v-402q0 -16 -17 -16h-96q-16 0 -16 16v785q0 18 18 18h66q17 0 26 -18z" />
<glyph unicode="n" horiz-adv-x="1044" d="M782 16v418q0 39 -1 63.5t-6 56t-15 50.5t-27.5 39.5t-43 31.5t-62.5 18t-86 7q-119 0 -188.5 -82.5t-69.5 -203.5v-398q0 -16 -17 -16h-96q-16 0 -16 16v785q0 18 18 18h66q17 0 26 -18l10 -101q37 43 77.5 71t81 39.5t69 15t63.5 3.5q98 0 166.5 -28t107 -82 t55.5 -123.5t17 -163.5v-416q0 -16 -16 -16h-96q-17 0 -17 16z" />
<glyph unicode="o" horiz-adv-x="1003" d="M502 829q113 0 209.5 -56.5t153.5 -153t57 -209.5q0 -172 -124 -296t-296 -124t-296 124t-124 296q0 113 57 209.5t153.5 153t209.5 56.5zM502 111q121 0 206 86.5t85 208.5t-85 208t-206 86t-206 -86t-85 -208t85 -208.5t206 -86.5z" />
<glyph unicode="p" horiz-adv-x="1067" d="M283 113v-445q-9 -18 -27 -18h-84q-18 0 -18 18v1135q0 16 16 16h80q16 0 16 -16l17 -98q130 124 305 124q173 0 285 -116.5t112 -298.5q0 -119 -42.5 -213.5t-133 -152.5t-217.5 -58q-41 0 -71 3.5t-70.5 14.5t-82.5 37.5t-85 67.5zM573 111q129 0 206 72.5t77 228.5 q0 133 -80 210.5t-203 77.5q-120 0 -205 -78t-85 -210q0 -137 84 -219t206 -82z" />
<glyph unicode="q" horiz-adv-x="1067" d="M784 -332v445q-59 -54 -117.5 -82.5t-97.5 -34.5t-94 -6q-127 0 -217.5 58t-133 152.5t-42.5 213.5q0 182 112 298.5t285 116.5q175 0 305 -124l17 98q0 16 16 16h80q16 0 16 -16v-1135q0 -18 -18 -18h-84q-18 0 -27 18zM494 111q122 0 206 82t84 219q0 132 -85 210 t-205 78q-123 0 -203 -77.5t-80 -210.5q0 -156 77 -228.5t206 -72.5z" />
<glyph unicode="r" horiz-adv-x="651" d="M621 813v-96q0 -17 -17 -17h-47q-274 0 -274 -292v-390q-9 -18 -27 -18h-84q-18 0 -18 18v785q0 16 16 16h80q16 0 16 -16l17 -96q73 122 278 122h43q17 0 17 -16z" />
<glyph unicode="s" horiz-adv-x="821" d="M117 55q-13 3 -13 15q0 6 2 8l15 76q8 10 22 10q145 -53 244 -53q211 0 211 90q0 37 -27.5 65t-71 46.5t-96.5 36t-106 39t-96.5 49t-71 73t-27.5 104.5q0 107 77 161t220 54q54 0 127.5 -8t116.5 -20q12 -9 12 -25l-22 -80q-4 -12 -21 -12q-67 16 -190 16 q-115 0 -153 -24t-38 -72q0 -27 27.5 -51t71 -43.5t96.5 -39t106 -43t96.5 -51t71 -67t27.5 -86.5q0 -64 -30 -111t-81 -72.5t-107 -37.5t-118 -12q-138 0 -274 65z" />
<glyph unicode="t" horiz-adv-x="698" d="M575 113q13 0 17 -11l20 -84q2 -4 2 -12q0 -7 -8 -10q-31 -6 -102 -6q-86 0 -139 29t-83 104.5t-30 202.5v374h-174q-17 0 -17 17v96q0 16 17 16h174v318q0 16 16 16h97q16 0 16 -16v-318h217q16 0 16 -16v-96q0 -17 -16 -17h-217v-305q0 -63 2 -103.5t8.5 -75 t16.5 -52.5t29 -31.5t43 -17.5t61 -4q10 0 20.5 1t13.5 1z" />
<glyph unicode="u" horiz-adv-x="1019" d="M262 803v-426q0 -52 4 -87.5t18 -72t40 -58t71 -35t109 -13.5q118 0 175.5 80.5t57.5 205.5v406q0 16 17 16h96q16 0 16 -16v-785q0 -18 -18 -18h-66q-17 0 -26 18l-8 93q-34 -42 -73 -68.5t-78.5 -37t-63 -13t-54.5 -2.5q-98 0 -166.5 28t-107 82t-55.5 123.5t-17 163.5 v416q0 16 17 16h96q16 0 16 -16z" />
<glyph unicode="v" horiz-adv-x="860" d="M430 -10q-1 0 -2.5 0.5l-4.5 1.5t-5 2l-377 805q0 20 20 20h93q16 0 30 -20l246 -531l246 531q14 20 31 20h92q20 0 20 -20l-377 -805z" />
<glyph unicode="w" horiz-adv-x="1298" d="M649 522q-8 0 -18 -10l-264 -518q-12 -4 -13 -4l-12 4l-281 805q0 20 21 20h86q17 0 31 -20l176 -514l258 532q12 4 16 4q5 0 17 -4l258 -532l176 514q14 20 30 20h87q20 0 20 -20l-281 -805l-12 -4q-1 0 -2.5 0.5l-4.5 1.5t-5 2l-264 518q-10 10 -19 10z" />
<glyph unicode="x" horiz-adv-x="843" d="M618 20l-194 297l-199 -297q-14 -20 -30 -20h-107q-20 0 -20 20l262 388l-258 391q0 20 20 20h103q19 0 30 -20l197 -295l196 295q11 20 31 20h103q20 0 20 -20l-258 -391l262 -388q0 -20 -20 -20h-107q-17 0 -31 20z" />
<glyph unicode="y" horiz-adv-x="860" d="M137 -330l236 490l-301 639q0 20 20 20h92q22 0 31 -20l229 -488l234 488q9 20 31 20h90q20 0 20 -22l-536 -1127q-14 -20 -31 -20h-94q-21 0 -21 20z" />
<glyph unicode="z" horiz-adv-x="862" d="M319 129h435q16 0 16 -16v-97q0 -16 -16 -16h-650q-12 0 -12 14q0 11 2 13l447 663h-432q-17 0 -17 17v96q0 16 17 16h645q16 0 16 -14q0 -6 -2 -8z" />
<glyph unicode="{" horiz-adv-x="835" d="M174 621q60 8 101.5 53.5t41.5 105.5v353q0 133 26 207.5t76.5 103.5t139.5 29h103q20 0 20 -21v-86q0 -20 -20 -20h-113q-68 0 -85.5 -39t-17.5 -177v-325q0 -130 -108 -248q108 -118 108 -250v-319q0 -58 2 -91.5t7.5 -59.5t18 -37t29.5 -16t46 -5h113q20 0 20 -21v-88 q0 -20 -20 -20h-103q-89 0 -139.5 29t-76.5 103.5t-26 207.5v344q0 60 -41.5 106t-101.5 54q-20 0 -20 20v86q0 21 20 21z" />
<glyph unicode="|" horiz-adv-x="436" d="M283 1446v-1780q0 -16 -17 -16h-96q-16 0 -16 16v1780q0 16 16 16h96q17 0 17 -16z" />
<glyph unicode="}" horiz-adv-x="835" d="M662 621q20 0 20 -21v-86q0 -20 -20 -20q-60 -8 -102 -54t-42 -106v-344q0 -133 -26 -207.5t-76.5 -103.5t-139.5 -29h-102q-20 0 -20 20v88q0 21 20 21h113q68 0 85 36t17 173v319q0 131 109 250q-109 119 -109 248v325q0 138 -17.5 177t-84.5 39h-113q-20 0 -20 20v86 q0 21 20 21h102q89 0 139.5 -29t76.5 -103.5t26 -207.5v-353q0 -60 42 -105.5t102 -53.5z" />
<glyph unicode="~" horiz-adv-x="923" d="M756 354q-91 -78 -189 -78q-45 0 -116 35t-109 35q-64 0 -111 -35q-2 -2 -10 -2q-10 0 -20 13q-47 57 -47 61q0 15 14 23q81 69 174 69q45 0 78.5 -11t49.5 -23.5t41.5 -23.5t57.5 -11q68 0 123 43q2 2 10 2q11 0 21 -13l43 -53l4 -8q0 -17 -14 -23z" />
<glyph unicode="&#xa1;" horiz-adv-x="466" d="M276 870l23 -864q0 -16 -16 -16h-105q-16 0 -16 16l20 864q0 17 17 17h61q16 0 16 -17zM154 1083q0 35 22 57.5t57 22.5t57.5 -22.5t22.5 -57.5t-22.5 -57t-57.5 -22t-57 22t-22 57z" />
<glyph unicode="&#xa2;" horiz-adv-x="1333" d="M766 1331v-153q214 -10 360 -129q1 -3 4 -6.5t3 -4.5q0 -5 -11 -16l-51 -53q-11 -11 -20 -11q-8 0 -15 7q-64 46 -131.5 65t-156.5 19q-193 0 -329 -137.5t-136 -331.5t136 -331.5t329 -137.5q215 0 350 122q5 5 12 5q16 0 25 -9l36 -49q9 -12 9 -16q0 -6 -2 -8 q-141 -156 -412 -166v-152q0 -16 -16 -16h-97q-16 0 -16 16v162q-209 40 -346 204t-137 380q0 215 137 379t346 204v164q0 17 16 17h97q16 0 16 -17z" />
<glyph unicode="&#xa3;" horiz-adv-x="1232" d="M170 600h137v219q0 83 23 147.5t60 104t89 64t103.5 34t109.5 9.5q205 0 309 -66q9 -3 9 -14q0 -9 -2 -11l-29 -71q-6 -6 -10 -6q-3 0 -15 4q-97 43 -235 43q-161 0 -222 -62t-61 -190v-205h301q17 0 17 -16v-97q0 -16 -17 -16h-301v-342h627q16 0 16 -16v-97 q0 -16 -16 -16h-877q-16 0 -16 16v101q0 12 14 12q47 5 82.5 40.5t40.5 82.5v219h-137q-16 0 -16 16v97q0 16 16 16z" />
<glyph unicode="&#xa4;" horiz-adv-x="966" d="M483 264q79 0 139 58t60 139t-60 138.5t-139 57.5t-138.5 -57.5t-59.5 -138.5t59.5 -139t138.5 -58zM483 168q-105 0 -182 65l-84 -73l-8 -4q-4 0 -10 6l-41 47q-4 4 -4 8q0 1 0.5 2t1.5 3.5t2 4.5l82 74q-47 71 -47 158q0 97 57 172l-92 82q-1 2 -2 4.5t-1.5 3.5t-0.5 2 q0 4 4 8l41 47q6 6 10 6q2 -2 8 -4l96 -86q77 56 170 56t170 -56l97 86l8 4q4 0 10 -6l41 -47q4 -4 4 -8q0 -1 -0.5 -2t-1.5 -3.5t-2 -4.5l-92 -82q57 -75 57 -172q0 -87 -47 -158l82 -74q1 -2 2 -4.5t1.5 -3.5t0.5 -2q0 -4 -4 -8l-41 -47q-6 -6 -10 -6q-2 2 -8 4l-84 73 q-78 -65 -183 -65z" />
<glyph unicode="&#xa5;" horiz-adv-x="1304" d="M338 580h160l-344 563q0 20 20 20h100q17 0 31 -20l346 -563l348 563q14 20 31 20h100q21 0 21 -20l-346 -563h160q16 0 16 -17v-96q0 -16 -16 -16h-238l-10 -17v-123h248q16 0 16 -16v-96q0 -17 -16 -17h-248v-166q0 -16 -17 -16h-96q-16 0 -16 16v166h-250 q-16 0 -16 17v96q0 16 16 16h250v123l-10 17h-240q-16 0 -16 16v96q0 17 16 17z" />
<glyph unicode="&#xa6;" horiz-adv-x="436" d="M283 1446v-580q0 -16 -17 -16h-96q-16 0 -16 16v580q0 16 16 16h96q17 0 17 -16zM283 246v-580q0 -16 -17 -16h-96q-16 0 -16 16v580q0 16 16 16h96q17 0 17 -16z" />
<glyph unicode="&#xa7;" horiz-adv-x="1212" d="M168 -14q-12 3 -12 14q0 6 2 8l14 76q8 10 23 10q145 -53 243 -53q211 0 211 90q0 37 -27.5 65t-71 46.5t-96 36t-105.5 39t-96.5 49t-71 73.5t-27.5 105q0 107 78 161t223 54q-21 34 -21 92q0 107 77 161t220 54q53 0 126.5 -8.5t117.5 -20.5q12 -9 12 -24l-22 -80 q-4 -12 -21 -12q-67 16 -190 16q-115 0 -153 -24t-38 -72q0 -27 27.5 -51t71 -43.5t96.5 -39t106 -43t96.5 -51t71 -67t27.5 -86.5q0 -58 -26 -103.5t-70.5 -72.5t-96 -41.5t-108.5 -16.5q20 -36 20 -73q0 -51 -20.5 -92.5t-53.5 -67t-77.5 -43t-90 -24.5t-94.5 -7 q-136 0 -274 66zM283 535q0 -39 50.5 -70t141.5 -62q4 -1 25.5 -8.5t28.5 -10t28 -9t31.5 -9t30 -7t33.5 -6.5t32 -3.5t35 -1.5q211 0 211 90q0 46 -52 85t-128 61.5t-149.5 34.5t-127.5 12q-79 0 -122.5 -13.5t-55.5 -32.5t-12 -50z" />
<glyph unicode="&#xa8;" horiz-adv-x="768" d="M154 1083q0 35 22 57.5t57 22.5t57.5 -22.5t22.5 -57.5t-22.5 -57t-57.5 -22t-57 22t-22 57zM455 1083q0 35 22.5 57.5t57.5 22.5t57 -22.5t22 -57.5t-22 -57t-57 -22t-57.5 22t-22.5 57z" />
<glyph unicode="&#xa9;" horiz-adv-x="1480" d="M739 1163q160 0 295.5 -78.5t214 -214t78.5 -295.5q0 -159 -78.5 -293.5t-214 -213t-295.5 -78.5q-158 0 -293 78.5t-213.5 213.5t-78.5 293q0 160 78.5 295.5t213 214t293.5 78.5zM739 72q131 0 249.5 71t189.5 188t71 247q0 131 -71 249t-189.5 189t-249.5 71 q-97 0 -190 -42t-162 -111.5t-111.5 -163.5t-42.5 -192q0 -129 71 -246.5t188.5 -188.5t246.5 -71zM958 283q-88 -58 -210 -58q-142 0 -240 102.5t-98 247.5q0 141 98.5 242t239.5 101q123 0 221 -76q4 -4 4 -8q0 -9 -4 -13l-47 -49q-6 -6 -13 -6q-6 0 -8 2q-2 0 -2 2 q-30 17 -74 27t-77 10q-89 0 -157.5 -67t-68.5 -167q0 -102 67.5 -175.5t155.5 -73.5q102 0 152 28q4 4 10 4q8 0 17 -6l37 -45q6 -6 6 -12q0 -7 -9 -10z" />
<glyph unicode="&#xaa;" horiz-adv-x="819" d="M414 643q12 0 35 2t58.5 10.5t47.5 22.5v115q-10 17 -49.5 27.5t-87.5 10.5q-33 0 -57 -3.5t-48 -13t-36.5 -29.5t-12.5 -50q0 -92 150 -92zM578 565l-9 37q-57 -63 -178 -63q-24 0 -50.5 4t-61 17.5t-61.5 34.5t-45.5 59.5t-18.5 88.5q0 97 57.5 145t157.5 48 q48 0 106 -8.5t80 -24.5q0 68 -40.5 112t-131.5 44q-79 0 -141 -21q-1 0 -4.5 -1t-4.5 -1q-12 0 -16 13l-22 45q-1 3 -3 8t-2 8q0 4 5 14q41 18 80.5 27t61 10.5t58.5 1.5q142 0 206.5 -79.5t64.5 -217.5v-301q0 -18 -19 -18h-45q-18 0 -24 18z" />
<glyph unicode="&#xab;" horiz-adv-x="1118" d="M154 414l163 379q13 22 29 22h90q21 0 21 -20l-166 -387l166 -388q0 -20 -21 -20h-90q-16 0 -29 23l-161 376q-2 2 -2 15zM662 414l163 379q13 22 29 22h90q21 0 21 -20l-166 -387l166 -388q0 -20 -21 -20h-90q-16 0 -29 23l-161 376q-2 2 -2 15z" />
<glyph unicode="&#xac;" horiz-adv-x="907" d="M170 461h567q17 0 17 -17v-335q0 -17 -17 -17h-96q-16 0 -16 17v223h-455q-16 0 -16 16v96q0 17 16 17z" />
<glyph unicode="&#xad;" horiz-adv-x="405" />
<glyph unicode="&#xae;" horiz-adv-x="1480" d="M739 1163q160 0 295.5 -78.5t214 -214t78.5 -295.5q0 -159 -78.5 -293.5t-214 -213t-295.5 -78.5q-158 0 -293 78.5t-213.5 213.5t-78.5 293q0 160 78.5 295.5t213 214t293.5 78.5zM739 72q131 0 249.5 71t189.5 188t71 247q0 131 -71 249t-189.5 189t-249.5 71 q-97 0 -190 -42t-162 -111.5t-111.5 -163.5t-42.5 -192q0 -129 71 -246.5t188.5 -188.5t246.5 -71zM606 551h193q47 0 73.5 41t26.5 88q0 50 -30 86.5t-101 36.5h-162v-252zM889 256l-117 197h-166v-197q0 -14 -14 -14h-84q-14 0 -14 14v643q0 14 14 14h233q77 0 132 -20 t84 -56t42 -76.5t13 -90.5q0 -68 -34 -122t-89 -79l127 -213q0 -14 -15 -14h-94q-15 0 -18 14z" />
<glyph unicode="&#xaf;" horiz-adv-x="948" d="M170 1163h608q17 0 17 -16v-96q0 -17 -17 -17h-608q-16 0 -16 17v96q0 16 16 16z" />
<glyph unicode="&#xb0;" horiz-adv-x="860" d="M430 713q70 0 120 49.5t50 128.5t-49.5 124.5t-120.5 45.5t-120.5 -45.5t-49.5 -124.5t50 -128.5t120 -49.5zM430 610q-114 0 -195 83.5t-81 197.5q0 113 80.5 192.5t195.5 79.5t196 -79.5t81 -192.5q0 -114 -81.5 -197.5t-195.5 -83.5z" />
<glyph unicode="&#xb1;" horiz-adv-x="892" d="M512 635h209q18 0 18 -19v-92q0 -18 -18 -18h-209v-225q0 -19 -18 -19h-93q-18 0 -18 19v225h-211q-18 0 -18 18v92q0 19 18 19h211v231q0 19 18 19h93q18 0 18 -19v-231zM170 129h553q16 0 16 -16v-97q0 -16 -16 -16h-553q-16 0 -16 16v97q0 16 16 16z" />
<glyph unicode="&#xb2;" horiz-adv-x="741" d="M154 561v70q0 36 33 79t80 82t94.5 75.5t80.5 70t33 55.5q0 37 -30 51.5t-93 14.5q-29 0 -74.5 -11t-70.5 -22q-16 -6 -19 6l-32 64q-3 11 8 18q25 18 81 33.5t109 15.5q119 0 175.5 -41.5t56.5 -132.5q0 -46 -34.5 -91.5t-78.5 -78.5t-98 -79.5t-82 -86.5h280 q15 0 15 -14v-78q0 -12 -15 -12h-407q-12 0 -12 12z" />
<glyph unicode="&#xb3;" horiz-adv-x="735" d="M295 840l111 219h-240q-12 0 -12 14v78q0 12 12 12h399q13 0 13 -10q0 -3 -3 -6l-102 -205q56 -16 82.5 -70.5t26.5 -119.5q0 -97 -60 -155t-178 -58q-47 0 -103 17t-85 44q-2 2 -2 12q0 5 4 9l35 59q2 2 8 2q95 -39 145 -39q26 0 45 4t39 14.5t30.5 34t10.5 58.5 q0 32 -22 51.5t-48.5 25t-58.5 5.5q-27 0 -41 -2q-6 0 -6 6z" />
<glyph unicode="&#xb4;" horiz-adv-x="573" d="M154 907l100 234l4 6q4 6 9 11t9 5h121q23 0 23 -22l-156 -234q-13 -22 -35 -22h-53q-22 0 -22 22z" />
<glyph unicode="&#xb5;" horiz-adv-x="1019" d="M262 803v-461q0 -55 9.5 -94t35 -71.5t74.5 -49t123 -16.5q118 0 175.5 80.5t57.5 205.5v406q0 16 17 16h96q16 0 16 -16v-785q0 -18 -18 -18h-66q-17 0 -26 18l-8 93q-34 -42 -73 -68.5t-78.5 -37t-63 -13t-54.5 -2.5q-131 0 -217 86v-410q0 -16 -16 -16h-96 q-17 0 -17 16v1137q0 16 17 16h96q16 0 16 -16z" />
<glyph unicode="&#xb6;" horiz-adv-x="1206" d="M924 -334v1368h-273v-1368q0 -16 -16 -16h-96q-17 0 -17 16v731q-160 20 -264 128.5t-104 254.5q0 142 98 250t242 133h540q19 0 19 -18v-1479q0 -16 -17 -16h-96q-16 0 -16 16z" />
<glyph unicode="&#xb7;" horiz-adv-x="507" d="M154 385q0 41 28.5 70.5t69.5 29.5q43 0 72.5 -29.5t29.5 -70.5t-29.5 -70.5t-72.5 -29.5q-41 0 -69.5 29.5t-28.5 70.5z" />
<glyph unicode="&#xb8;" horiz-adv-x="661" d="M283 -8h84l-9 -66q77 -44 113.5 -79t36.5 -78q0 -61 -54.5 -90t-123.5 -29q-98 0 -170 51q-1 3 -3.5 6t-2.5 6q0 4 2 6l26 39q12 4 13 4l12 -4q15 -10 59.5 -23.5t73.5 -13.5q28 0 52 10t24 36q0 9 -4 17t-12.5 15.5t-17 14t-24 15t-27.5 14.5t-32 15.5t-33 16.5z" />
<glyph unicode="&#xb9;" horiz-adv-x="595" d="M442 1153v-608q0 -15 -12 -15h-86q-12 0 -12 15v442q-70 -37 -168 -37q-10 0 -10 13v63q0 12 12 12q58 12 117 43.5t96.5 56.5t50.5 25q12 0 12 -10z" />
<glyph unicode="&#xba;" horiz-adv-x="860" d="M430 713q70 0 120 49.5t50 128.5t-49.5 124.5t-120.5 45.5t-120.5 -45.5t-49.5 -124.5t50 -128.5t120 -49.5zM430 610q-114 0 -195 83.5t-81 197.5q0 113 80.5 192.5t195.5 79.5t196 -79.5t81 -192.5q0 -114 -81.5 -197.5t-195.5 -83.5z" />
<glyph unicode="&#xbb;" horiz-adv-x="1118" d="M801 793l164 -379q0 -13 -2 -15l-162 -376q-13 -23 -29 -23h-90q-20 0 -20 20l165 388l-165 387q0 20 20 20h90q16 0 29 -22zM293 793l164 -379q0 -13 -2 -15l-162 -376q-13 -23 -29 -23h-90q-20 0 -20 20l165 388l-165 387q0 20 20 20h90q16 0 29 -22z" />
<glyph unicode="&#xbc;" horiz-adv-x="1437" d="M922 1143l-428 -1120q-13 -23 -29 -23h-70q-20 0 -20 20q71 192 212.5 560.5t211.5 560.5q13 22 28 22h74q21 0 21 -20zM442 1153v-608q0 -15 -12 -15h-86q-12 0 -12 15v442q-70 -37 -168 -37q-10 0 -10 13v63q0 12 12 12q58 12 117 43.5t96.5 56.5t50.5 25q12 0 12 -10z M762 256l219 348q3 10 12 10h152q9 0 12 -10v-371h43q12 0 12 -12v-80q0 -12 -12 -12h-43v-117q0 -12 -12 -12h-84q-14 0 -14 12v117h-287q-12 0 -12 12v74q0 6 5 20.5t9 20.5zM1047 233v265l-164 -265h164z" />
<glyph unicode="&#xbd;" horiz-adv-x="1406" d="M922 1143l-428 -1120q-13 -23 -29 -23h-70q-20 0 -20 20q71 192 212.5 560.5t211.5 560.5q13 22 28 22h74q21 0 21 -20zM442 1153v-608q0 -15 -12 -15h-86q-12 0 -12 15v442q-70 -37 -168 -37q-10 0 -10 13v63q0 12 12 12q58 12 117 43.5t96.5 56.5t50.5 25q12 0 12 -10z M819 12v70q0 44 50.5 100t110.5 99.5t110.5 89.5t50.5 73q0 37 -30 51.5t-93 14.5q-29 0 -75 -11t-71 -22q-15 -6 -18 6l-33 64q-3 11 8 18q25 18 81.5 33.5t109.5 15.5q118 0 174.5 -41.5t56.5 -132.5q0 -46 -34.5 -91.5t-78.5 -78.5t-98 -79.5t-82 -86.5h281q14 0 14 -14 v-78q0 -12 -14 -12h-408q-12 0 -12 12z" />
<glyph unicode="&#xbe;" horiz-adv-x="1480" d="M1030 1143l-428 -1120q-13 -23 -29 -23h-69q-21 0 -21 20q70 192 211.5 560.5t212.5 560.5q13 22 29 22h74q20 0 20 -20zM295 840l111 219h-240q-12 0 -12 14v78q0 12 12 12h399q13 0 13 -10q0 -3 -3 -6l-102 -205q56 -16 82.5 -70.5t26.5 -119.5q0 -97 -60 -155 t-178 -58q-47 0 -103 17t-85 44q-2 2 -2 12q0 5 4 9l35 59q2 2 8 2q95 -39 145 -39q26 0 45 4t39 14.5t30.5 34t10.5 58.5q0 32 -22 51.5t-48.5 25t-58.5 5.5q-27 0 -41 -2q-6 0 -6 6zM877 256l219 348q3 10 12 10h152q9 0 12 -10v-371h43q12 0 12 -12v-80q0 -12 -12 -12 h-43v-117q0 -12 -12 -12h-84q-15 0 -15 12v117h-287q-12 0 -12 12v74q0 6 5.5 20.5t9.5 20.5zM1161 233v265l-164 -265h164z" />
<glyph unicode="&#xbf;" horiz-adv-x="909" d="M754 47h-2q-116 -57 -265 -57q-92 0 -164.5 26t-120.5 87.5t-48 152.5q0 54 23 108.5t49.5 89t72.5 87.5q34 40 53 64t41.5 59.5t32.5 70.5t10 72v76h90v-80q0 -47 -11 -88.5t-35.5 -79.5t-43 -60.5t-53.5 -60.5q-45 -48 -69.5 -78.5t-46 -81.5t-21.5 -106 q0 -89 54 -128.5t194 -39.5q117 0 235 41l27 -78zM436 887v-4h-4q4 0 4 4zM526 883v4q0 -4 6 -4h-6zM539 1116q0 -25 -18.5 -43t-43.5 -18q-26 0 -43.5 18t-17.5 43q0 26 17.5 44t43.5 18q25 0 43.5 -18t18.5 -44z" />
<glyph unicode="&#xc0;" horiz-adv-x="1191" d="M610 1165l531 -1145q0 -20 -21 -20h-92q-17 0 -31 20l-114 246h-574l-114 -246q-14 -20 -31 -20h-92q-21 0 -21 20l531 1145q12 4 14 4t14 -4zM369 395h454l-229 490zM539 1565l100 -234q0 -22 -23 -22h-53q-22 0 -35 22l-155 234q0 22 22 22h121q3 0 7.5 -3t7 -7t5.5 -8 z" />
<glyph unicode="&#xc1;" horiz-adv-x="1191" d="M610 1165l531 -1145q0 -20 -21 -20h-92q-17 0 -31 20l-114 246h-574l-114 -246q-14 -20 -31 -20h-92q-21 0 -21 20l531 1145q12 4 14 4t14 -4zM369 395h454l-229 490zM547 1331l100 234l3 4q3 4 5.5 8t7 7t7.5 3h121q22 0 22 -22l-156 -234q-13 -22 -34 -22h-54 q-22 0 -22 22z" />
<glyph unicode="&#xc2;" horiz-adv-x="1191" d="M610 1165l531 -1145q0 -20 -21 -20h-92q-17 0 -31 20l-114 246h-574l-114 -246q-14 -20 -31 -20h-92q-21 0 -21 20l531 1145q12 4 14 4t14 -4zM369 395h454l-229 490zM616 1554h-32q-11 0 -23 -12l-192 -166q-7 -7 -7 -12q0 -3 11 -14l45 -43q7 -7 14 -7q1 0 2.5 1t4.5 2 t5 2l156 145l156 -145q2 -1 5 -2t4.5 -2t2.5 -1q7 0 14 7l45 43q11 11 11 14q0 5 -7 12l-192 166q-12 12 -23 12z" />
<glyph unicode="&#xc3;" horiz-adv-x="1191" d="M610 1165l531 -1145q0 -20 -21 -20h-92q-17 0 -31 20l-114 246h-574l-114 -246q-14 -20 -31 -20h-92q-21 0 -21 20l531 1145q12 4 14 4t14 -4zM369 395h454l-229 490zM891 1386q-90 -77 -189 -77q-45 0 -116 34.5t-109 34.5q-63 0 -110 -35q-2 -2 -11 -2q-10 0 -20 13 q-47 57 -47 61q0 15 14 23q81 69 174 69q45 0 78.5 -11t50 -23.5t42 -23.5t57.5 -11q67 0 122 43q2 2 11 2q10 0 20 -13l43 -53l4 -8q0 -17 -14 -23z" />
<glyph unicode="&#xc4;" horiz-adv-x="1191" d="M610 1165l531 -1145q0 -20 -21 -20h-92q-17 0 -31 20l-114 246h-574l-114 -246q-14 -20 -31 -20h-92q-21 0 -21 20l531 1145q12 4 14 4t14 -4zM369 395h454l-229 490zM367 1389q0 35 22 57t57 22t57.5 -22t22.5 -57t-22.5 -57.5t-57.5 -22.5t-57 22.5t-22 57.5zM668 1389 q0 35 22.5 57t57.5 22t57 -22t22 -57t-22 -57.5t-57 -22.5t-57.5 22.5t-22.5 57.5z" />
<glyph unicode="&#xc5;" horiz-adv-x="1191" d="M610 1165l531 -1145q0 -20 -21 -20h-92q-17 0 -31 20l-114 246h-574l-114 -246q-14 -20 -31 -20h-92q-21 0 -21 20l531 1145q12 4 14 4t14 -4zM369 395h454l-229 490zM596 1702q83 0 141 -58.5t58 -140.5q0 -80 -58 -137t-141 -57q-80 0 -137.5 57.5t-57.5 136.5 q0 82 57.5 140.5t137.5 58.5zM600 1411q33 0 57.5 26t24.5 66q0 39 -24 61.5t-58 22.5t-59 -22.5t-25 -61.5q0 -40 25 -66t59 -26z" />
<glyph unicode="&#xc6;" horiz-adv-x="1849" d="M483 399h473v615zM389 270l-194 -250q-14 -20 -31 -20h-103q-20 0 -20 25l852 1124q14 14 31 14h786q16 0 16 -16v-96q0 -17 -16 -17h-623v-405h492q16 0 16 -17v-96q0 -16 -16 -16h-494v-371h625q16 0 16 -16v-97q0 -16 -16 -16h-735q-16 0 -19 16v254h-567z" />
<glyph unicode="&#xc7;" horiz-adv-x="1210" d="M1126 156q-131 -154 -387 -164l-8 -66q77 -44 113.5 -79t36.5 -78q0 -61 -55 -90t-124 -29q-98 0 -170 51q-1 3 -3.5 6t-2.5 6q0 4 2 6l27 39q2 1 5 2l4.5 1.5t2.5 0.5t13 -4q15 -10 59.5 -23.5t73.5 -13.5q75 0 75 46q0 9 -3.5 17t-12 15.5t-17.5 14t-24.5 15t-27 14 t-31.5 15.5t-33 17l16 117q-153 11 -279.5 92.5t-200 213.5t-73.5 286q0 161 79.5 298t216.5 216.5t298 79.5q215 0 379 -129q1 -3 3.5 -6.5t2.5 -4.5q0 -6 -10 -16l-51 -53q-11 -11 -21 -11q-7 0 -14 7q-64 46 -132 65t-157 19q-193 0 -329 -137.5t-136 -331.5t136 -331.5 t329 -137.5q216 0 351 122q5 5 12 5q15 0 24 -9l37 -49q8 -11 8 -16q0 -6 -2 -8z" />
<glyph unicode="&#xc8;" horiz-adv-x="1046" d="M285 629h491q17 0 17 -17v-96q0 -16 -17 -16h-493v-371h624q17 0 17 -16v-97q0 -16 -17 -16h-737q-16 0 -16 16v1131q0 16 16 16h737q17 0 17 -16v-96q0 -17 -17 -17h-622v-405zM492 1565l100 -234q0 -22 -23 -22h-53q-22 0 -35 22l-155 234q0 22 22 22h121q3 0 7.5 -3 t7 -7t5.5 -8z" />
<glyph unicode="&#xc9;" horiz-adv-x="1046" d="M285 629h491q17 0 17 -17v-96q0 -16 -17 -16h-493v-371h624q17 0 17 -16v-97q0 -16 -17 -16h-737q-16 0 -16 16v1131q0 16 16 16h737q17 0 17 -16v-96q0 -17 -17 -17h-622v-405zM500 1331l100 234l3 4q3 4 5.5 8t7 7t7.5 3h120q23 0 23 -22l-156 -234q-13 -22 -35 -22 h-53q-22 0 -22 22z" />
<glyph unicode="&#xca;" horiz-adv-x="1046" d="M285 629h491q17 0 17 -17v-96q0 -16 -17 -16h-493v-371h624q17 0 17 -16v-97q0 -16 -17 -16h-737q-16 0 -16 16v1131q0 16 16 16h737q17 0 17 -16v-96q0 -17 -17 -17h-622v-405zM559 1554h-33q-10 0 -22 -12l-193 -166q-6 -6 -6 -12q0 -4 10 -14l45 -43q7 -7 15 -7 q1 0 2.5 1t4.5 2t5 2l156 145l155 -145q2 -1 5 -2t5 -2t3 -1q7 0 14 7l45 43q10 10 10 14q0 6 -6 12l-192 166q-12 12 -23 12z" />
<glyph unicode="&#xcb;" horiz-adv-x="1046" d="M285 629h491q17 0 17 -17v-96q0 -16 -17 -16h-493v-371h624q17 0 17 -16v-97q0 -16 -17 -16h-737q-16 0 -16 16v1131q0 16 16 16h737q17 0 17 -16v-96q0 -17 -17 -17h-622v-405zM303 1389q0 35 22.5 57t57.5 22t57.5 -22t22.5 -57t-22.5 -57.5t-57.5 -22.5t-57.5 22.5 t-22.5 57.5zM604 1389q0 35 22.5 57t57.5 22t57.5 -22t22.5 -57t-22.5 -57.5t-57.5 -22.5t-57.5 22.5t-22.5 57.5z" />
<glyph unicode="&#xcc;" horiz-adv-x="432" d="M281 1147v-1131q0 -16 -17 -16h-96q-16 0 -16 16v1131q0 16 16 16h96q17 0 17 -16zM162 1565l100 -234q0 -22 -22 -22h-54q-21 0 -34 22l-156 234q0 22 22 22h121q3 0 7.5 -3t7 -7t5.5 -8z" />
<glyph unicode="&#xcd;" horiz-adv-x="432" d="M152 16v1131q0 16 16 16h96q17 0 17 -16v-1131q0 -16 -17 -16h-96q-16 0 -16 16zM170 1331l100 234l3 4q3 4 5.5 8t7 7t7.5 3h121q22 0 22 -22l-155 -234q-13 -22 -35 -22h-53q-23 0 -23 22z" />
<glyph unicode="&#xce;" horiz-adv-x="432" d="M152 16v1131q0 16 16 16h96q17 0 17 -16v-1131q0 -16 -17 -16h-96q-16 0 -16 16zM233 1554h-32q-11 0 -23 -12l-192 -166q-6 -6 -6 -12q0 -4 10 -14l45 -43q7 -7 14 -7q1 0 2.5 1t4.5 2t5 2l156 145l156 -145q2 -1 5 -2t4.5 -2t2.5 -1q7 0 14 7l45 43q11 11 11 14 q0 6 -6 12l-193 166q-12 12 -23 12z" />
<glyph unicode="&#xcf;" horiz-adv-x="432" d="M152 16v1131q0 16 16 16h96q17 0 17 -16v-1131q0 -16 -17 -16h-96q-16 0 -16 16zM29 1389q0 35 22.5 57t57.5 22t57 -22t22 -57t-22 -57.5t-57 -22.5t-57.5 22.5t-22.5 57.5zM246 1389q0 35 22.5 57t57.5 22t57.5 -22t22.5 -57t-22.5 -57.5t-57.5 -22.5t-57.5 22.5 t-22.5 57.5z" />
<glyph unicode="&#xd0;" horiz-adv-x="1265" d="M57 633h179v514q0 16 16 16h383q161 0 289.5 -77.5t199 -211t70.5 -296.5t-70.5 -294.5t-199 -207.5t-289.5 -76h-383q-16 0 -16 16v488h-179q-16 0 -16 16v96q0 17 16 17zM365 129h233q208 0 337.5 118.5t129.5 323.5q0 206 -131 334.5t-336 128.5h-233v-401h260 q16 0 16 -17v-96q0 -16 -16 -16h-260v-375z" />
<glyph unicode="&#xd1;" horiz-adv-x="1296" d="M154 16v1145q5 8 12 8q6 0 14 -8l834 -600v586q0 16 16 16h96q17 0 17 -16v-1131q0 -16 -17 -16h-96q-16 0 -16 16v396l-731 516v-912q0 -16 -17 -16h-96q-16 0 -16 16zM907 1386q-90 -77 -188 -77q-45 0 -116 34.5t-109 34.5q-64 0 -111 -35q-2 -2 -10 -2q-11 0 -21 13 q-47 57 -47 61q0 15 14 23q81 69 175 69q45 0 78.5 -11t49.5 -23.5t41.5 -23.5t57.5 -11q68 0 123 43q2 2 10 2q10 0 20 -13l44 -53l4 -8q0 -17 -15 -23z" />
<glyph unicode="&#xd2;" d="M696 1178q161 0 298 -79.5t216.5 -216.5t79.5 -298t-79.5 -298t-216.5 -216.5t-298 -79.5t-298 79.5t-216.5 216.5t-79.5 298t79.5 298t216.5 216.5t298 79.5zM696 111q126 0 233 63t169.5 171t62.5 235t-62.5 235t-169.5 171t-233 63q-193 0 -329 -137.5t-136 -331.5 t136 -331.5t329 -137.5zM629 1565l100 -234q0 -22 -22 -22h-54q-22 0 -35 22l-155 234q0 22 22 22h121q3 0 7.5 -3t7 -7t5.5 -8z" />
<glyph unicode="&#xd3;" d="M696 1178q161 0 298 -79.5t216.5 -216.5t79.5 -298t-79.5 -298t-216.5 -216.5t-298 -79.5t-298 79.5t-216.5 216.5t-79.5 298t79.5 298t216.5 216.5t298 79.5zM696 111q126 0 233 63t169.5 171t62.5 235t-62.5 235t-169.5 171t-233 63q-193 0 -329 -137.5t-136 -331.5 t136 -331.5t329 -137.5zM664 1331l100 234l4 6q4 6 9 11t9 5h121q23 0 23 -22l-156 -234q-13 -22 -35 -22h-53q-22 0 -22 22z" />
<glyph unicode="&#xd4;" d="M696 1178q161 0 298 -79.5t216.5 -216.5t79.5 -298t-79.5 -298t-216.5 -216.5t-298 -79.5t-298 79.5t-216.5 216.5t-79.5 298t79.5 298t216.5 216.5t298 79.5zM696 111q126 0 233 63t169.5 171t62.5 235t-62.5 235t-169.5 171t-233 63q-193 0 -329 -137.5t-136 -331.5 t136 -331.5t329 -137.5zM713 1554h-33q-11 0 -23 -12l-192 -166q-6 -6 -6 -12q0 -4 10 -14l45 -43q7 -7 14 -7q1 0 3 1t5 2t5 2l155 145l156 -145q2 -1 5 -2t4.5 -2t2.5 -1q8 0 15 7l45 43q10 10 10 14q0 6 -6 12l-193 166q-12 12 -22 12z" />
<glyph unicode="&#xd5;" d="M696 1178q161 0 298 -79.5t216.5 -216.5t79.5 -298t-79.5 -298t-216.5 -216.5t-298 -79.5t-298 79.5t-216.5 216.5t-79.5 298t79.5 298t216.5 216.5t298 79.5zM696 111q126 0 233 63t169.5 171t62.5 235t-62.5 235t-169.5 171t-233 63q-193 0 -329 -137.5t-136 -331.5 t136 -331.5t329 -137.5zM991 1386q-90 -77 -188 -77q-45 0 -116 34.5t-109 34.5q-64 0 -111 -35q-2 -2 -10 -2q-11 0 -21 13q-47 57 -47 61q0 15 14 23q81 69 175 69q45 0 78.5 -11t49.5 -23.5t41.5 -23.5t57.5 -11q68 0 123 43q2 2 10 2q10 0 20 -13l43 -53l5 -8 q0 -17 -15 -23z" />
<glyph unicode="&#xd6;" d="M696 1178q161 0 298 -79.5t216.5 -216.5t79.5 -298t-79.5 -298t-216.5 -216.5t-298 -79.5t-298 79.5t-216.5 216.5t-79.5 298t79.5 298t216.5 216.5t298 79.5zM696 111q126 0 233 63t169.5 171t62.5 235t-62.5 235t-169.5 171t-233 63q-193 0 -329 -137.5t-136 -331.5 t136 -331.5t329 -137.5zM467 1389q0 35 22.5 57t57.5 22t57.5 -22t22.5 -57t-22.5 -57.5t-57.5 -22.5t-57.5 22.5t-22.5 57.5zM768 1389q0 35 22.5 57t57.5 22t57.5 -22t22.5 -57t-22.5 -57.5t-57.5 -22.5t-57.5 22.5t-22.5 57.5z" />
<glyph unicode="&#xd7;" horiz-adv-x="882" d="M440 494l189 184q8 8 16 8t19 -8l57 -57q8 -11 8 -19t-8 -16l-186 -185l186 -182q8 -8 8 -16t-8 -19l-57 -57q-11 -8 -19 -8t-16 8l-189 184l-186 -184q-8 -8 -16 -8t-19 8l-57 57q-8 11 -8 19t8 16l186 182l-186 185q-8 8 -8 16t8 19l57 57q11 8 19 8t16 -8z" />
<glyph unicode="&#xd8;" d="M1006 1278l-58 -156q153 -70 247.5 -216.5t94.5 -321.5q0 -161 -79.5 -298t-216.5 -216.5t-298 -79.5q-78 0 -164 22l-45 -123q-13 -22 -28 -22h-51q-21 0 -21 20l59 158q-154 70 -249 216.5t-95 322.5q0 161 79.5 298t216.5 216.5t298 79.5q74 0 164 -23l45 121 q13 22 29 22h51q21 0 21 -20zM231 580q0 -137 69.5 -248t188.5 -172l326 872q-70 17 -119 17q-193 0 -329 -137.5t-136 -331.5zM696 111q126 0 233 63t169.5 171t62.5 235q0 138 -70.5 249.5t-189.5 169.5l-326 -872q66 -16 121 -16z" />
<glyph unicode="&#xd9;" horiz-adv-x="1282" d="M643 -10q-240 0 -364.5 128t-124.5 371v658q0 16 16 16h96q17 0 17 -16v-615q0 -218 82.5 -319.5t275.5 -101.5t275.5 101.5t82.5 319.5v615q0 16 17 16h96q16 0 16 -16v-658q0 -243 -123.5 -371t-361.5 -128zM580 1565l100 -234q0 -22 -23 -22h-53q-22 0 -35 22 l-155 234q0 22 22 22h121q3 0 7.5 -3t7 -7t5.5 -8z" />
<glyph unicode="&#xda;" horiz-adv-x="1282" d="M639 -10q-238 0 -361.5 128t-123.5 371v658q0 16 16 16h96q17 0 17 -16v-615q0 -218 82.5 -319.5t275.5 -101.5t275.5 101.5t82.5 319.5v615q0 16 17 16h96q16 0 16 -16v-658q0 -243 -124.5 -371t-364.5 -128zM602 1331l100 234l3 4q3 4 5.5 8t7 7t7.5 3h121q22 0 22 -22 l-155 -234q-13 -22 -35 -22h-53q-23 0 -23 22z" />
<glyph unicode="&#xdb;" horiz-adv-x="1282" d="M639 -10q-238 0 -361.5 128t-123.5 371v658q0 16 16 16h96q17 0 17 -16v-615q0 -218 82.5 -319.5t275.5 -101.5t275.5 101.5t82.5 319.5v615q0 16 17 16h96q16 0 16 -16v-658q0 -243 -124.5 -371t-364.5 -128zM657 1554h-32q-11 0 -23 -12l-192 -166q-7 -7 -7 -12 q0 -3 11 -14l45 -43q7 -7 14 -7q1 0 2.5 1t4.5 2t5 2l156 145l156 -145q2 -1 5 -2t4.5 -2t2.5 -1q7 0 14 7l45 43q11 11 11 14q0 5 -7 12l-192 166q-12 12 -23 12z" />
<glyph unicode="&#xdc;" horiz-adv-x="1282" d="M639 -10q-238 0 -361.5 128t-123.5 371v658q0 16 16 16h96q17 0 17 -16v-615q0 -218 82.5 -319.5t275.5 -101.5t275.5 101.5t82.5 319.5v615q0 16 17 16h96q16 0 16 -16v-658q0 -243 -124.5 -371t-364.5 -128zM414 1389q0 35 22.5 57t57.5 22t57 -22t22 -57t-22 -57.5 t-57 -22.5t-57.5 22.5t-22.5 57.5zM715 1389q0 35 22.5 57t57.5 22t57 -22t22 -57t-22 -57.5t-57 -22.5t-57.5 22.5t-22.5 57.5z" />
<glyph unicode="&#xdd;" horiz-adv-x="1099" d="M549 580l348 563q14 20 31 20h100q21 0 21 -20l-435 -709v-418q0 -16 -16 -16h-96q-17 0 -17 16v418l-434 709q0 20 21 20h100q17 0 31 -20zM520 1331l101 234l4 6q4 6 9 11t9 5h121q22 0 22 -22l-155 -234q-13 -22 -35 -22h-53q-23 0 -23 22z" />
<glyph unicode="&#xde;" horiz-adv-x="1054" d="M283 1147v-180h401q134 0 227 -103t93 -264q0 -162 -93 -262t-227 -100h-401v-222q0 -16 -17 -16h-96q-16 0 -16 16v1131q0 16 16 16h96q17 0 17 -16zM283 358h376q97 0 156 58.5t59 181.5q0 122 -59.5 181t-155.5 59h-376v-480z" />
<glyph unicode="&#xdf;" horiz-adv-x="1153" d="M598 649h88q98 0 161.5 55t63.5 142q0 90 -63.5 146.5t-161.5 56.5h-184q-95 0 -157 -56.5t-62 -146.5v-830q0 -16 -17 -16h-96q-16 0 -16 16v830q0 142 98.5 237t255.5 95h197q139 0 237 -96.5t98 -235.5q0 -150 -137 -258q70 -57 103.5 -126.5t33.5 -137.5 q0 -135 -98.5 -229.5t-236.5 -94.5h-113q-17 0 -17 16v97q0 16 17 16h92q93 0 160 55.5t67 139.5q0 79 -52 137.5t-132 58.5h-129q-16 0 -16 17v96q0 16 16 16z" />
<glyph unicode="&#xe0;" horiz-adv-x="921" d="M430 113q37 0 101.5 22.5t117.5 75.5v61q-34 53 -105 83t-136 30q-106 0 -146.5 -33t-40.5 -106q0 -60 52 -96.5t157 -36.5zM229 678l-16 -4q-10 0 -16 14l-21 62q-6 12 -6 22q0 11 8 16q101 41 221 41q187 0 283 -94.5t96 -269.5v-447q0 -18 -18 -18h-66q-17 0 -26 18 l-9 78q-24 -37 -64.5 -61t-84.5 -32.5t-65.5 -10.5t-38.5 -2q-34 0 -66 3t-80 18.5t-82.5 41t-60 76t-25.5 119.5q0 136 75 201t204 65q85 0 151.5 -20.5t128.5 -85.5q0 75 -12 127.5t-33.5 84.5t-58 50t-77 24t-99.5 6q-49 0 -142 -22zM451 1231l100 -234q0 -22 -23 -22 h-53q-22 0 -35 22l-155 234q0 22 22 22h121q3 0 7.5 -3t7 -7t5.5 -8z" />
<glyph unicode="&#xe1;" horiz-adv-x="921" d="M430 113q37 0 101.5 22.5t117.5 75.5v61q-34 53 -105 83t-136 30q-106 0 -146.5 -33t-40.5 -106q0 -60 52 -96.5t157 -36.5zM229 678l-16 -4q-10 0 -16 14l-21 62q-6 12 -6 22q0 11 8 16q101 41 221 41q187 0 283 -94.5t96 -269.5v-447q0 -18 -18 -18h-66q-17 0 -26 18 l-9 78q-24 -37 -64.5 -61t-84.5 -32.5t-65.5 -10.5t-38.5 -2q-34 0 -66 3t-80 18.5t-82.5 41t-60 76t-25.5 119.5q0 136 75 201t204 65q85 0 151.5 -20.5t128.5 -85.5q0 75 -12 127.5t-33.5 84.5t-58 50t-77 24t-99.5 6q-49 0 -142 -22zM436 997l101 234l4 6q4 6 9 11t9 5 h121q22 0 22 -22l-155 -234q-13 -22 -35 -22h-53q-23 0 -23 22z" />
<glyph unicode="&#xe2;" horiz-adv-x="921" d="M430 113q37 0 101.5 22.5t117.5 75.5v61q-34 53 -105 83t-136 30q-106 0 -146.5 -33t-40.5 -106q0 -60 52 -96.5t157 -36.5zM229 678l-16 -4q-10 0 -16 14l-21 62q-6 12 -6 22q0 11 8 16q101 41 221 41q187 0 283 -94.5t96 -269.5v-447q0 -18 -18 -18h-66q-17 0 -26 18 l-9 78q-24 -37 -64.5 -61t-84.5 -32.5t-65.5 -10.5t-38.5 -2q-34 0 -66 3t-80 18.5t-82.5 41t-60 76t-25.5 119.5q0 136 75 201t204 65q85 0 151.5 -20.5t128.5 -85.5q0 75 -12 127.5t-33.5 84.5t-58 50t-77 24t-99.5 6q-49 0 -142 -22zM467 1229h-33q-10 0 -22 -12 l-193 -166q-6 -6 -6 -13q0 -4 10 -14l45 -43q6 -6 15 -6q1 0 2.5 0.5l4.5 1.5t5 2l156 145l155 -145q2 -1 5 -2l4.5 -1.5t2.5 -0.5q9 0 15 6l45 43q10 10 10 14q0 7 -6 13l-193 166q-12 12 -22 12z" />
<glyph unicode="&#xe3;" horiz-adv-x="921" d="M430 113q37 0 101.5 22.5t117.5 75.5v61q-34 53 -105 83t-136 30q-106 0 -146.5 -33t-40.5 -106q0 -60 52 -96.5t157 -36.5zM229 678l-16 -4q-10 0 -16 14l-21 62q-6 12 -6 22q0 11 8 16q101 41 221 41q187 0 283 -94.5t96 -269.5v-447q0 -18 -18 -18h-66q-17 0 -26 18 l-9 78q-24 -37 -64.5 -61t-84.5 -32.5t-65.5 -10.5t-38.5 -2q-34 0 -66 3t-80 18.5t-82.5 41t-60 76t-25.5 119.5q0 136 75 201t204 65q85 0 151.5 -20.5t128.5 -85.5q0 75 -12 127.5t-33.5 84.5t-58 50t-77 24t-99.5 6q-49 0 -142 -22zM745 1053q-91 -78 -188 -78 q-45 0 -116 34.5t-109 34.5q-65 0 -111 -34q-2 -2 -10 -2q-12 0 -21 12q-47 57 -47 61q0 14 15 23q82 70 174 70q45 0 78.5 -11t49.5 -24t41.5 -24t57.5 -11q68 0 123 43q2 2 10 2q12 0 21 -12l43 -54l4 -8q0 -16 -15 -22z" />
<glyph unicode="&#xe4;" horiz-adv-x="921" d="M430 113q37 0 101.5 22.5t117.5 75.5v61q-34 53 -105 83t-136 30q-106 0 -146.5 -33t-40.5 -106q0 -60 52 -96.5t157 -36.5zM229 678l-16 -4q-10 0 -16 14l-21 62q-6 12 -6 22q0 11 8 16q101 41 221 41q187 0 283 -94.5t96 -269.5v-447q0 -18 -18 -18h-66q-17 0 -26 18 l-9 78q-24 -37 -64.5 -61t-84.5 -32.5t-65.5 -10.5t-38.5 -2q-34 0 -66 3t-80 18.5t-82.5 41t-60 76t-25.5 119.5q0 136 75 201t204 65q85 0 151.5 -20.5t128.5 -85.5q0 75 -12 127.5t-33.5 84.5t-58 50t-77 24t-99.5 6q-49 0 -142 -22zM254 1087q0 35 22.5 57.5t57.5 22.5 t57.5 -22.5t22.5 -57.5t-22.5 -57t-57.5 -22t-57.5 22t-22.5 57zM561 1087q0 35 22.5 57.5t57.5 22.5t57.5 -22.5t22.5 -57.5t-22.5 -57t-57.5 -22t-57.5 22t-22.5 57z" />
<glyph unicode="&#xe5;" horiz-adv-x="921" d="M430 113q37 0 101.5 22.5t117.5 75.5v61q-34 53 -105 83t-136 30q-106 0 -146.5 -33t-40.5 -106q0 -60 52 -96.5t157 -36.5zM229 678l-16 -4q-10 0 -16 14l-21 62q-6 12 -6 22q0 11 8 16q101 41 221 41q187 0 283 -94.5t96 -269.5v-447q0 -18 -18 -18h-66q-17 0 -26 18 l-9 78q-24 -37 -64.5 -61t-84.5 -32.5t-65.5 -10.5t-38.5 -2q-34 0 -66 3t-80 18.5t-82.5 41t-60 76t-25.5 119.5q0 136 75 201t204 65q85 0 151.5 -20.5t128.5 -85.5q0 75 -12 127.5t-33.5 84.5t-58 50t-77 24t-99.5 6q-49 0 -142 -22zM463 1401q83 0 141 -58.5t58 -140.5 q0 -80 -58 -137t-141 -57q-80 0 -137.5 57.5t-57.5 136.5q0 82 57.5 140.5t137.5 58.5zM467 1110q33 0 57.5 26t24.5 66q0 39 -24 61.5t-58 22.5t-59 -22.5t-25 -61.5q0 -40 25 -66t59 -26z" />
<glyph unicode="&#xe6;" horiz-adv-x="1515" d="M1350 55q-87 -65 -269 -65q-227 0 -344 143q-22 -40 -63.5 -69.5t-80.5 -43t-86 -21t-66 -8.5t-35 -1q-34 0 -66 3t-80 18.5t-82.5 41t-60 76t-25.5 119.5q0 136 75 201t204 65q85 0 151.5 -20.5t128.5 -85.5v18q-2 69 -15 118t-34.5 79t-57.5 47.5t-76 23.5t-97 6 q-49 0 -142 -22l-16 -4q-10 0 -16 14l-21 62q-6 12 -6 22q0 11 8 16q101 41 221 41q232 0 324 -149q104 149 319 149q100 0 177 -33t123 -91.5t69 -133t23 -161.5v-66h-650q0 -58 21.5 -102t52.5 -68t73.5 -39t77 -19.5t70.5 -4.5q125 0 215 45q2 2 15 2q7 0 18 -11l29 -63 q4 -12 4 -16q0 -10 -10 -13zM784 463h516q0 65 -23 113t-62.5 74t-84 38t-94.5 12t-93 -12.5t-79.5 -39t-58 -74t-21.5 -111.5zM430 113q37 0 101.5 22.5t117.5 75.5v61q-34 53 -105 83t-136 30q-106 0 -146.5 -33t-40.5 -106q0 -60 52 -96.5t157 -36.5z" />
<glyph unicode="&#xe7;" horiz-adv-x="833" d="M745 45q-70 -43 -217 -55l-8 -64q77 -44 113.5 -79t36.5 -78q0 -61 -54.5 -90t-123.5 -29q-98 0 -170 51q-1 3 -4 6t-3 6q0 4 2 6l27 39q2 1 5 2l4.5 1.5t2.5 0.5t13 -4q15 -10 59.5 -23.5t73.5 -13.5q28 0 52 10t24 36q0 9 -4 17t-12.5 15.5t-17 14t-24 15t-27.5 14.5 t-32 15.5t-33 16.5l16 119q-154 20 -258 139t-104 277q0 113 57 209.5t153.5 153t209.5 56.5q151 0 254 -79q6 -6 6 -13q0 -10 -2 -12l-39 -61q-11 -11 -16 -11q-7 0 -9 2q-2 0 -4 2q-70 43 -190 43q-121 0 -206 -86t-85 -208t85 -208.5t206 -86.5q113 0 190 32q2 2 13 2 q10 0 18 -8l29 -63q4 -12 4 -17q0 -8 -11 -12z" />
<glyph unicode="&#xe8;" horiz-adv-x="946" d="M215 463h516q0 65 -23 113t-62.5 74t-84 38t-94.5 12t-93 -12.5t-79.5 -39t-58 -74t-21.5 -111.5zM780 55q-87 -65 -268 -65q-91 0 -168 25.5t-136 75.5t-92.5 132t-33.5 187q0 88 23 162t68.5 132.5t122.5 91.5t177 33t177 -33t122.5 -91.5t68.5 -132.5t23 -162v-66 h-649q0 -58 21.5 -102t52.5 -68t73.5 -39t77 -19.5t70.5 -4.5q125 0 215 45q2 2 14 2q8 0 19 -11l28 -63q5 -15 5 -16q0 -9 -11 -13zM430 1231l100 -234q0 -22 -22 -22h-53q-22 0 -35 22l-156 234q0 22 23 22h121q4 0 9 -5t9 -11z" />
<glyph unicode="&#xe9;" horiz-adv-x="946" d="M215 463h516q0 65 -23 113t-62.5 74t-84 38t-94.5 12t-93 -12.5t-79.5 -39t-58 -74t-21.5 -111.5zM780 55q-87 -65 -268 -65q-91 0 -168 25.5t-136 75.5t-92.5 132t-33.5 187q0 88 23 162t68.5 132.5t122.5 91.5t177 33t177 -33t122.5 -91.5t68.5 -132.5t23 -162v-66 h-649q0 -58 21.5 -102t52.5 -68t73.5 -39t77 -19.5t70.5 -4.5q125 0 215 45q2 2 14 2q8 0 19 -11l28 -63q5 -15 5 -16q0 -9 -11 -13zM420 997l100 234l3 4q3 4 5.5 8t7 7t7.5 3h121q22 0 22 -22l-156 -234q-13 -22 -34 -22h-54q-22 0 -22 22z" />
<glyph unicode="&#xea;" horiz-adv-x="946" d="M215 463h516q0 65 -23 113t-62.5 74t-84 38t-94.5 12t-93 -12.5t-79.5 -39t-58 -74t-21.5 -111.5zM780 55q-87 -65 -268 -65q-91 0 -168 25.5t-136 75.5t-92.5 132t-33.5 187q0 88 23 162t68.5 132.5t122.5 91.5t177 33t177 -33t122.5 -91.5t68.5 -132.5t23 -162v-66 h-649q0 -58 21.5 -102t52.5 -68t73.5 -39t77 -19.5t70.5 -4.5q125 0 215 45q2 2 14 2q8 0 19 -11l28 -63q5 -15 5 -16q0 -9 -11 -13zM487 1229h-32q-11 0 -23 -12l-192 -166q-7 -7 -7 -13q0 -3 11 -14l45 -43q6 -6 14 -6l12 4l156 145l156 -145q2 -1 5 -2l4.5 -1.5t2.5 -0.5 q8 0 14 6l45 43q11 11 11 14q0 6 -7 13l-192 166q-12 12 -23 12z" />
<glyph unicode="&#xeb;" horiz-adv-x="946" d="M215 463h516q0 65 -23 113t-62.5 74t-84 38t-94.5 12t-93 -12.5t-79.5 -39t-58 -74t-21.5 -111.5zM780 55q-87 -65 -268 -65q-91 0 -168 25.5t-136 75.5t-92.5 132t-33.5 187q0 88 23 162t68.5 132.5t122.5 91.5t177 33t177 -33t122.5 -91.5t68.5 -132.5t23 -162v-66 h-649q0 -58 21.5 -102t52.5 -68t73.5 -39t77 -19.5t70.5 -4.5q125 0 215 45q2 2 14 2q8 0 19 -11l28 -63q5 -15 5 -16q0 -9 -11 -13zM217 1087q0 35 22.5 57.5t57.5 22.5t57.5 -22.5t22.5 -57.5t-22.5 -57t-57.5 -22t-57.5 22t-22.5 57zM524 1087q0 35 22.5 57.5t57.5 22.5 t57.5 -22.5t22.5 -57.5t-22.5 -57t-57.5 -22t-57.5 22t-22.5 57z" />
<glyph unicode="&#xec;" horiz-adv-x="432" d="M281 803v-787q0 -16 -17 -16h-96q-16 0 -16 16v787q0 16 16 16h96q17 0 17 -16zM158 1231l100 -234q0 -22 -22 -22h-54q-22 0 -35 22l-155 234q0 22 22 22h121q3 0 7.5 -3t7 -7t5.5 -8z" />
<glyph unicode="&#xed;" horiz-adv-x="432" d="M152 16v787q0 16 16 16h96q17 0 17 -16v-787q0 -16 -17 -16h-96q-16 0 -16 16zM174 997l100 234l3 4q3 4 5.5 8t7 7t7.5 3h121q22 0 22 -22l-155 -234q-13 -22 -35 -22h-53q-23 0 -23 22z" />
<glyph unicode="&#xee;" horiz-adv-x="432" d="M152 16v787q0 16 16 16h96q17 0 17 -16v-787q0 -16 -17 -16h-96q-16 0 -16 16zM233 1210h-32q-11 0 -23 -12l-192 -166q-6 -6 -6 -12q0 -4 10 -14l45 -43q7 -7 14 -7q1 0 2.5 1t4.5 2t5 2l156 145l156 -145q2 -1 5 -2t4.5 -2t2.5 -1q7 0 14 7l45 43q11 11 11 14 q0 6 -6 12l-193 166q-12 12 -23 12z" />
<glyph unicode="&#xef;" horiz-adv-x="432" d="M152 16v787q0 16 16 16h96q17 0 17 -16v-787q0 -16 -17 -16h-96q-16 0 -16 16zM29 1044q0 35 22.5 57.5t57.5 22.5t57 -22.5t22 -57.5t-22 -57t-57 -22t-57.5 22t-22.5 57zM246 1044q0 35 22.5 57.5t57.5 22.5t57.5 -22.5t22.5 -57.5t-22.5 -57t-57.5 -22t-57.5 22 t-22.5 57z" />
<glyph unicode="&#xf0;" horiz-adv-x="1017" d="M297 1018h199l-68 125q0 20 21 20h94q16 0 30 -20l68 -125h223q17 0 17 -17v-77q0 -17 -17 -17h-162l177 -323q22 -40 39.5 -96.5t17.5 -96.5q0 -96 -34.5 -173.5t-94 -126.5t-135 -75t-160.5 -26q-117 0 -213 44t-156.5 137t-60.5 220q0 104 61 188t159 128.5t212 44.5 h125l-84 155h-258q-16 0 -16 17v77q0 17 16 17zM508 633q-126 0 -211.5 -63.5t-85.5 -190.5q0 -129 87 -198.5t212 -69.5q78 0 143.5 28t109.5 90.5t44 149.5q0 126 -87.5 190t-211.5 64z" />
<glyph unicode="&#xf1;" horiz-adv-x="1044" d="M782 16v418q0 39 -1 63.5t-6 56t-15 50.5t-27.5 39.5t-43 31.5t-62.5 18t-86 7q-119 0 -188.5 -82.5t-69.5 -203.5v-398q0 -16 -17 -16h-96q-16 0 -16 16v785q0 18 18 18h66q17 0 26 -18l10 -101q37 43 77.5 71t81 39.5t69 15t63.5 3.5q98 0 166.5 -28t107 -82 t55.5 -123.5t17 -163.5v-416q0 -16 -16 -16h-96q-17 0 -17 16zM817 1053q-91 -78 -188 -78q-45 0 -116.5 34.5t-109.5 34.5q-64 0 -110 -34q-2 -2 -10 -2q-12 0 -21 12q-47 57 -47 61q0 15 14 23q82 70 174 70q45 0 78.5 -11t50 -24t42 -24t57.5 -11q68 0 123 43q2 2 10 2 q11 0 20 -12l43 -54l4 -8q0 -16 -14 -22z" />
<glyph unicode="&#xf2;" horiz-adv-x="1003" d="M502 829q113 0 209.5 -56.5t153.5 -153t57 -209.5q0 -172 -124 -296t-296 -124t-296 124t-124 296q0 113 57 209.5t153.5 153t209.5 56.5zM502 111q121 0 206 86.5t85 208.5t-85 208t-206 86t-206 -86t-85 -208t85 -208.5t206 -86.5zM444 1231l101 -234q0 -22 -23 -22 h-53q-22 0 -35 22l-155 234q0 22 22 22h121q4 0 9 -5t9 -11z" />
<glyph unicode="&#xf3;" horiz-adv-x="1003" d="M502 829q113 0 209.5 -56.5t153.5 -153t57 -209.5q0 -172 -124 -296t-296 -124t-296 124t-124 296q0 113 57 209.5t153.5 153t209.5 56.5zM502 111q121 0 206 86.5t85 208.5t-85 208t-206 86t-206 -86t-85 -208t85 -208.5t206 -86.5zM459 997l100 234l3 4q3 4 5.5 8t7 7 t7.5 3h120q23 0 23 -22l-156 -234q-13 -22 -34 -22h-54q-22 0 -22 22z" />
<glyph unicode="&#xf4;" horiz-adv-x="1003" d="M502 829q113 0 209.5 -56.5t153.5 -153t57 -209.5q0 -172 -124 -296t-296 -124t-296 124t-124 296q0 113 57 209.5t153.5 153t209.5 56.5zM502 111q121 0 206 86.5t85 208.5t-85 208t-206 86t-206 -86t-85 -208t85 -208.5t206 -86.5zM518 1229h-33q-10 0 -22 -12 l-193 -166q-6 -6 -6 -13q0 -4 10 -14l45 -43q6 -6 15 -6q1 0 2.5 0.5l4.5 1.5t5 2l156 145l155 -145q12 -4 13 -4q8 0 14 6l45 43q10 10 10 14q0 7 -6 13l-192 166q-12 12 -23 12z" />
<glyph unicode="&#xf5;" horiz-adv-x="1003" d="M502 829q113 0 209.5 -56.5t153.5 -153t57 -209.5q0 -172 -124 -296t-296 -124t-296 124t-124 296q0 113 57 209.5t153.5 153t209.5 56.5zM502 111q121 0 206 86.5t85 208.5t-85 208t-206 86t-206 -86t-85 -208t85 -208.5t206 -86.5zM795 1053q-91 -78 -189 -78 q-45 0 -116 34.5t-109 34.5q-65 0 -111 -34q-2 -2 -10 -2q-11 0 -20 12q-47 57 -47 61q0 15 14 23q82 70 174 70q45 0 78.5 -11t49.5 -24t41.5 -24t57.5 -11q68 0 123 43q2 2 10 2q12 0 21 -12l43 -54l4 -8q0 -16 -14 -22z" />
<glyph unicode="&#xf6;" horiz-adv-x="1003" d="M502 829q113 0 209.5 -56.5t153.5 -153t57 -209.5q0 -172 -124 -296t-296 -124t-296 124t-124 296q0 113 57 209.5t153.5 153t209.5 56.5zM502 111q121 0 206 86.5t85 208.5t-85 208t-206 86t-206 -86t-85 -208t85 -208.5t206 -86.5zM268 1087q0 35 22.5 57.5t57.5 22.5 t57.5 -22.5t22.5 -57.5t-22.5 -57t-57.5 -22t-57.5 22t-22.5 57zM575 1087q0 35 22.5 57.5t57.5 22.5t57.5 -22.5t22.5 -57.5t-22.5 -57t-57.5 -22t-57.5 22t-22.5 57z" />
<glyph unicode="&#xf7;" horiz-adv-x="927" d="M170 424h588q16 0 16 -16v-97q0 -16 -16 -16h-588q-16 0 -16 16v97q0 16 16 16zM383 70q0 35 22.5 57.5t57.5 22.5t57.5 -22.5t22.5 -57.5t-22.5 -57.5t-57.5 -22.5t-57.5 22.5t-22.5 57.5zM383 666q0 35 22.5 57t57.5 22t57.5 -22t22.5 -57t-22.5 -57.5t-57.5 -22.5 t-57.5 22.5t-22.5 57.5z" />
<glyph unicode="&#xf8;" horiz-adv-x="1003" d="M741 905l-49 -133q105 -55 167.5 -153.5t62.5 -219.5q0 -113 -57 -209.5t-153.5 -153t-209.5 -56.5q-54 0 -103 12l-37 -101q-13 -22 -28 -22h-51q-21 0 -21 20l51 136q-106 55 -168.5 154t-62.5 220q0 172 124 296t296 124q52 0 102 -12l37 96q13 23 29 23h51 q20 0 20 -21zM211 395q0 -81 39 -149t106 -107l203 545q-27 6 -57 6q-121 0 -206 -86.5t-85 -208.5zM502 100q121 0 206 86.5t85 208.5q0 81 -39.5 149t-106.5 107l-205 -545q27 -6 60 -6z" />
<glyph unicode="&#xf9;" horiz-adv-x="1019" d="M262 803v-426q0 -52 4 -87.5t18 -72t40 -58t71 -35t109 -13.5q118 0 175.5 80.5t57.5 205.5v406q0 16 17 16h96q16 0 16 -16v-785q0 -18 -18 -18h-66q-17 0 -26 18l-8 93q-34 -42 -73 -68.5t-78.5 -37t-63 -13t-54.5 -2.5q-98 0 -166.5 28t-107 82t-55.5 123.5t-17 163.5 v416q0 16 17 16h96q16 0 16 -16zM451 1231l100 -234q0 -22 -23 -22h-53q-22 0 -35 22l-155 234q0 22 22 22h121q3 0 7.5 -3t7 -7t5.5 -8z" />
<glyph unicode="&#xfa;" horiz-adv-x="1019" d="M262 803v-426q0 -52 4 -87.5t18 -72t40 -58t71 -35t109 -13.5q118 0 175.5 80.5t57.5 205.5v406q0 16 17 16h96q16 0 16 -16v-785q0 -18 -18 -18h-66q-17 0 -26 18l-8 93q-34 -42 -73 -68.5t-78.5 -37t-63 -13t-54.5 -2.5q-98 0 -166.5 28t-107 82t-55.5 123.5t-17 163.5 v416q0 16 17 16h96q16 0 16 -16zM442 997l101 234l4 6q4 6 9 11t9 5h121q23 0 23 -22l-156 -234q-13 -22 -35 -22h-53q-23 0 -23 22z" />
<glyph unicode="&#xfb;" horiz-adv-x="1019" d="M262 803v-426q0 -52 4 -87.5t18 -72t40 -58t71 -35t109 -13.5q118 0 175.5 80.5t57.5 205.5v406q0 16 17 16h96q16 0 16 -16v-785q0 -18 -18 -18h-66q-17 0 -26 18l-8 93q-34 -42 -73 -68.5t-78.5 -37t-63 -13t-54.5 -2.5q-98 0 -166.5 28t-107 82t-55.5 123.5t-17 163.5 v416q0 16 17 16h96q16 0 16 -16zM516 1229h-33q-10 0 -22 -12l-193 -166q-6 -6 -6 -13q0 -4 10 -14l45 -43q6 -6 15 -6l12 4l156 145l155 -145q12 -4 13 -4q8 0 14 6l45 43q10 10 10 14q0 7 -6 13l-192 166q-12 12 -23 12z" />
<glyph unicode="&#xfc;" horiz-adv-x="1019" d="M262 803v-426q0 -52 4 -87.5t18 -72t40 -58t71 -35t109 -13.5q118 0 175.5 80.5t57.5 205.5v406q0 16 17 16h96q16 0 16 -16v-785q0 -18 -18 -18h-66q-17 0 -26 18l-8 93q-34 -42 -73 -68.5t-78.5 -37t-63 -13t-54.5 -2.5q-98 0 -166.5 28t-107 82t-55.5 123.5t-17 163.5 v416q0 16 17 16h96q16 0 16 -16zM264 1087q0 35 22.5 57.5t57.5 22.5t57.5 -22.5t22.5 -57.5t-22.5 -57t-57.5 -22t-57.5 22t-22.5 57zM571 1087q0 35 22.5 57.5t57.5 22.5t57.5 -22.5t22.5 -57.5t-22.5 -57t-57.5 -22t-57.5 22t-22.5 57z" />
<glyph unicode="&#xfd;" horiz-adv-x="860" d="M137 -330l236 490l-301 639q0 20 20 20h92q22 0 31 -20l229 -488l234 488q9 20 31 20h90q20 0 20 -22l-536 -1127q-14 -20 -31 -20h-94q-21 0 -21 20zM420 997l100 234l3 4q3 4 5.5 8t7 7t7.5 3h121q22 0 22 -22l-156 -234q-13 -22 -34 -22h-54q-22 0 -22 22z" />
<glyph unicode="&#xfe;" horiz-adv-x="1067" d="M283 113v-445q-9 -18 -27 -18h-84q-18 0 -18 18v1479q0 16 16 16h96q17 0 17 -16v-442q130 124 305 124q173 0 285 -116.5t112 -298.5q0 -119 -42.5 -213.5t-133 -152.5t-217.5 -58q-41 0 -71 3.5t-70.5 14.5t-82.5 37.5t-85 67.5zM573 111q129 0 206 72.5t77 228.5 q0 133 -80 210.5t-203 77.5q-120 0 -205 -78t-85 -210q0 -137 84 -219t206 -82z" />
<glyph unicode="&#xff;" horiz-adv-x="860" d="M137 -330l236 490l-301 639q0 20 20 20h92q22 0 31 -20l229 -488l234 488q9 20 31 20h90q20 0 20 -22l-536 -1127q-14 -20 -31 -20h-94q-21 0 -21 20zM211 1087q0 35 22.5 57.5t57.5 22.5t57.5 -22.5t22.5 -57.5t-22.5 -57t-57.5 -22t-57.5 22t-22.5 57zM518 1087 q0 35 22.5 57.5t57.5 22.5t57.5 -22.5t22.5 -57.5t-22.5 -57t-57.5 -22t-57.5 22t-22.5 57z" />
<glyph unicode="&#x152;" horiz-adv-x="1716" d="M954 629h492q16 0 16 -17v-96q0 -16 -16 -16h-494v-371h625q16 0 16 -16v-97q0 -16 -16 -16h-737l-142 -10q-161 0 -298.5 79.5t-217.5 216.5t-80 298t79.5 298t216.5 216.5t298 79.5q74 0 138 -15h743q16 0 16 -16v-96q0 -17 -16 -17h-623v-405zM696 111q68 0 127 10 v915q-63 13 -127 13q-193 0 -329 -137.5t-136 -331.5t136 -331.5t329 -137.5z" />
<glyph unicode="&#x153;" horiz-adv-x="1656" d="M1491 55q-87 -65 -268 -65q-126 0 -223.5 46t-151.5 140q-58 -87 -148.5 -136.5t-197.5 -49.5q-172 0 -296 124t-124 296q0 113 57 209.5t153.5 153t209.5 56.5q103 0 192.5 -49t151.5 -133q95 182 338 182q100 0 177 -33t122.5 -91.5t68.5 -132.5t23 -162v-66h-649 q0 -58 21.5 -102t52.5 -68t73.5 -39t77 -19.5t70.5 -4.5q125 0 215 45q2 2 14 2q7 0 18 -11l29 -63q4 -12 4 -16q0 -10 -10 -13zM502 111q118 0 202 81.5t89 200.5v17q0 120 -86 205t-205 85q-121 0 -206 -86t-85 -208t85 -208.5t206 -86.5zM926 463h516q0 65 -23 113 t-62.5 74t-84 38t-94.5 12t-93 -12.5t-79.5 -39t-58 -74t-21.5 -111.5z" />
<glyph unicode="&#x178;" horiz-adv-x="1099" d="M549 580l348 563q14 20 31 20h100q21 0 21 -20l-435 -709v-418q0 -16 -16 -16h-96q-17 0 -17 16v418l-434 709q0 20 21 20h100q17 0 31 -20zM322 1389q0 35 22 57t57 22t57.5 -22t22.5 -57t-22.5 -57.5t-57.5 -22.5t-57 22.5t-22 57.5zM623 1389q0 35 22 57t57 22 t57.5 -22t22.5 -57t-22.5 -57.5t-57.5 -22.5t-57 22.5t-22 57.5z" />
<glyph unicode="&#x2c6;" horiz-adv-x="782" d="M375 1163h33q10 0 22 -12l193 -166q6 -6 6 -12q0 -4 -11 -15l-45 -43q-6 -6 -14 -6q-1 0 -2.5 0.5l-4.5 1.5t-5 2l-156 146l-155 -146q-12 -4 -13 -4q-8 0 -14 6l-45 43q-10 10 -10 15q0 6 6 12l192 166q12 12 23 12z" />
<glyph unicode="&#x2dc;" horiz-adv-x="923" d="M756 1042q-90 -77 -189 -77q-45 0 -116 34.5t-109 34.5q-64 0 -111 -35q-2 -2 -10 -2q-10 0 -20 13q-47 57 -47 61q0 15 14 23q81 69 174 69q45 0 78.5 -11t49.5 -23.5t41.5 -23.5t57.5 -11q68 0 123 43q2 2 10 2q11 0 21 -13l43 -53l4 -8q0 -17 -14 -23z" />
<glyph unicode="&#x2000;" horiz-adv-x="851" />
<glyph unicode="&#x2001;" horiz-adv-x="1702" />
<glyph unicode="&#x2002;" horiz-adv-x="851" />
<glyph unicode="&#x2003;" horiz-adv-x="1702" />
<glyph unicode="&#x2004;" horiz-adv-x="567" />
<glyph unicode="&#x2005;" horiz-adv-x="425" />
<glyph unicode="&#x2006;" horiz-adv-x="283" />
<glyph unicode="&#x2007;" horiz-adv-x="283" />
<glyph unicode="&#x2008;" horiz-adv-x="212" />
<glyph unicode="&#x2009;" horiz-adv-x="340" />
<glyph unicode="&#x200a;" horiz-adv-x="94" />
<glyph unicode="&#x2010;" horiz-adv-x="907" d="M170 446h567q17 0 17 -16v-96q0 -17 -17 -17h-567q-16 0 -16 17v96q0 16 16 16z" />
<glyph unicode="&#x2011;" horiz-adv-x="907" d="M170 446h567q17 0 17 -16v-96q0 -17 -17 -17h-567q-16 0 -16 17v96q0 16 16 16z" />
<glyph unicode="&#x2012;" horiz-adv-x="907" d="M170 446h567q17 0 17 -16v-96q0 -17 -17 -17h-567q-16 0 -16 17v96q0 16 16 16z" />
<glyph unicode="&#x2013;" horiz-adv-x="907" d="M170 446h567q17 0 17 -16v-96q0 -17 -17 -17h-567q-16 0 -16 17v96q0 16 16 16z" />
<glyph unicode="&#x2014;" horiz-adv-x="1028" d="M170 446h688q16 0 16 -16v-96q0 -17 -16 -17h-688q-16 0 -16 17v96q0 16 16 16z" />
<glyph unicode="&#x2018;" horiz-adv-x="464" d="M264 1163h29q14 0 14 -14l-43 -131q47 -31 47 -70q0 -34 -23 -57t-55 -23q-35 0 -57 22.5t-22 57.5q0 6 3 16.5t5 12.5l82 170q6 16 20 16z" />
<glyph unicode="&#x2019;" horiz-adv-x="464" d="M201 868h-29q-14 0 -14 15l43 131q-47 31 -47 69q0 35 23 57.5t54 22.5q35 0 57.5 -22.5t22.5 -57.5q0 -20 -8 -28l-82 -170q-7 -17 -20 -17z" />
<glyph unicode="&#x201a;" horiz-adv-x="464" d="M201 -174h-29q-14 0 -14 14l43 131q-47 31 -47 70q0 35 23 57.5t54 22.5q35 0 57.5 -22.5t22.5 -57.5q0 -6 -3 -16.5t-5 -12.5l-82 -170q-6 -16 -20 -16z" />
<glyph unicode="&#x201c;" horiz-adv-x="733" d="M264 1163h29q14 0 14 -14l-43 -131q47 -31 47 -70q0 -34 -23 -57t-55 -23q-35 0 -57 22.5t-22 57.5q0 6 3 16.5t5 12.5l82 170q6 16 20 16zM532 1163h29q14 0 14 -14l-43 -131q48 -32 48 -70q0 -34 -23 -57t-55 -23q-35 0 -57.5 22.5t-22.5 57.5q0 6 3 16.5t5 12.5 l82 170q6 16 20 16z" />
<glyph unicode="&#x201d;" horiz-adv-x="733" d="M469 868h-29q-14 0 -14 15l43 131q-47 31 -47 69q0 34 23 57t55 23q35 0 57.5 -22.5t22.5 -57.5q0 -5 -3.5 -15.5t-5.5 -12.5l-82 -170q-7 -17 -20 -17zM201 868h-29q-14 0 -14 15l43 131q-47 31 -47 69q0 35 23 57.5t54 22.5q35 0 57.5 -22.5t22.5 -57.5q0 -20 -8 -28 l-82 -170q-7 -17 -20 -17z" />
<glyph unicode="&#x201e;" horiz-adv-x="733" d="M469 -174h-29q-14 0 -14 14l43 131q-47 31 -47 70q0 34 23 57t55 23q35 0 57.5 -22.5t22.5 -57.5q0 -5 -3.5 -16t-5.5 -13l-82 -170q-6 -16 -20 -16zM201 -174h-29q-14 0 -14 14l43 131q-47 31 -47 70q0 35 23 57.5t54 22.5q35 0 57.5 -22.5t22.5 -57.5q0 -6 -3 -16.5 t-5 -12.5l-82 -170q-6 -16 -20 -16z" />
<glyph unicode="&#x2022;" horiz-adv-x="497" d="M154 385q0 41 26.5 67.5t65.5 26.5q42 0 70 -26.5t28 -67.5q0 -39 -28.5 -66.5t-69.5 -27.5q-38 0 -65 28t-27 66z" />
<glyph unicode="&#x2026;" horiz-adv-x="1335" d="M154 70q0 35 22 57.5t57 22.5t57.5 -22.5t22.5 -57.5t-22.5 -57.5t-57.5 -22.5t-57 22.5t-22 57.5zM588 70q0 35 22.5 57.5t57.5 22.5t57.5 -22.5t22.5 -57.5t-22.5 -57.5t-57.5 -22.5t-57.5 22.5t-22.5 57.5zM1022 70q0 35 22.5 57.5t57.5 22.5t57.5 -22.5t22.5 -57.5 t-22.5 -57.5t-57.5 -22.5t-57.5 22.5t-22.5 57.5z" />
<glyph unicode="&#x202f;" horiz-adv-x="340" />
<glyph unicode="&#x2039;" horiz-adv-x="937" d="M154 322v167q0 15 24 25l584 293q22 0 22 -23v-102q0 -10 -4.5 -14t-17.5 -9l-516 -253l516 -252q13 -5 17.5 -9t4.5 -14v-102q0 -23 -22 -23l-584 291q-24 10 -24 25z" />
<glyph unicode="&#x203a;" horiz-adv-x="937" d="M784 489v-167q0 -15 -24 -25l-584 -291q-22 0 -22 23v102q0 10 4.5 14t17.5 9l516 252l-516 253q-13 5 -17.5 9t-4.5 14v102q0 23 22 23l584 -293q24 -10 24 -25z" />
<glyph unicode="&#x205f;" horiz-adv-x="425" />
<glyph unicode="&#x20ac;" horiz-adv-x="1511" d="M170 756h186q53 184 212.5 303t357.5 119q215 0 379 -129q1 -3 3.5 -6.5t2.5 -4.5q0 -5 -11 -16l-51 -53q-11 -11 -20 -11q-8 0 -15 7q-64 46 -131.5 65t-156.5 19q-145 0 -262.5 -81.5t-167.5 -211.5h241q17 0 17 -17v-80q0 -16 -17 -16h-272q-4 -15 -4 -63 q0 -58 12 -107h264q17 0 17 -16v-80q0 -17 -17 -17h-223q61 -114 170 -181.5t242 -67.5q215 0 350 122q5 5 12 5q16 0 25 -9l37 -49q8 -11 8 -16q0 -6 -2 -8q-143 -166 -428 -166q-185 0 -336.5 102.5t-216.5 267.5h-205q-16 0 -16 17v80q0 16 16 16h172q-10 44 -10 111 q0 36 2 59h-164q-16 0 -16 16v80q0 17 16 17z" />
<glyph unicode="&#x2122;" horiz-adv-x="1437" d="M354 557v512h-188q-12 0 -12 14v68q0 12 12 12h469q12 0 12 -12v-68q0 -14 -12 -14h-186v-512q0 -14 -15 -14h-67q-13 0 -13 14zM1008 752q-3 0 -13 10l-164 139v-344q-3 -14 -14 -14h-74q-14 0 -14 14v602q5 8 12 8t15 -8l233 -264q15 -12 19 -12q3 0 18 12l231 264 q8 8 15 8t12 -8v-602q0 -14 -14 -14h-74q-11 0 -14 14v344l-162 -139q-10 -10 -12 -10z" />
<glyph unicode="&#x25fc;" horiz-adv-x="819" d="M0 819h819v-819h-819v819z" />
</font>
</defs>
</svg>
