<?xml version="1.0" standalone="no"?>
<!DOCTYPE svg PUBLIC "-//W3C//DTD SVG 1.1//EN" "http://www.w3.org/Graphics/SVG/1.1/DTD/svg11.dtd" >
<svg xmlns="http://www.w3.org/2000/svg">
<metadata></metadata>
<defs>
<font id="noyh_rsemilight" horiz-adv-x="436" >
<font-face units-per-em="2048" ascent="1536" descent="-512" />
<missing-glyph horiz-adv-x="407" />
<glyph unicode="&#xfb01;" horiz-adv-x="1136" d="M918 829q27 0 46 -18t19 -47v-698q0 -29 -18 -47.5t-47 -18.5t-46.5 18.5t-17.5 47.5v634h-473v-634q0 -29 -18.5 -47.5t-47.5 -18.5t-46 18t-17 48v634h-135q-27 0 -46.5 18t-19.5 46t19.5 46.5t46.5 18.5h135v23q0 158 31.5 254t88 135t144.5 39q64 0 119 -18 q35 -18 35 -54q0 -26 -17.5 -42.5t-42.5 -16.5q-6 0 -22.5 1t-30.5 1q-107 0 -141.5 -62t-34.5 -237v-23h537z" />
<glyph unicode="&#xfb02;" horiz-adv-x="1136" d="M610 1149q-6 0 -22.5 1t-30.5 1q-107 0 -141.5 -62t-34.5 -237v-23h194q27 0 46.5 -18.5t19.5 -46.5t-19.5 -46t-46.5 -18h-194v-634q0 -29 -18.5 -47.5t-47.5 -18.5t-46 18t-17 48v634h-135q-27 0 -46.5 18t-19.5 46t19.5 46.5t46.5 18.5h135v23q0 158 31.5 254t88 135 t144.5 39q64 0 119 -18q35 -18 35 -54q0 -26 -17.5 -42.5t-42.5 -16.5zM854 1098v-1032q0 -29 17.5 -47.5t46.5 -18.5t47 18.5t18 47.5v1032q0 29 -18 47t-47 18t-46.5 -18t-17.5 -47z" />
<glyph horiz-adv-x="0" />
<glyph unicode="&#xd;" horiz-adv-x="579" />
<glyph unicode=" "  horiz-adv-x="407" />
<glyph unicode="&#x09;" horiz-adv-x="407" />
<glyph unicode="&#xa0;" horiz-adv-x="407" />
<glyph unicode="!" horiz-adv-x="466" d="M297 1096l-21 -785q0 -21 -13 -33t-36 -12q-45 0 -45 45l-18 785q0 29 18 48t47 19t48.5 -19t19.5 -48zM154 70q0 35 22 57.5t57 22.5t57.5 -22.5t22.5 -57.5t-22.5 -57.5t-57.5 -22.5t-57 22.5t-22 57.5z" />
<glyph unicode="&#x22;" horiz-adv-x="720" d="M287 1098l-13 -201q0 -23 -16 -39t-39 -16t-38 16t-15 39l-12 201q0 29 19 47t46 18t47.5 -18.5t20.5 -46.5zM567 1098l-12 -201q0 -23 -16 -39t-39 -16t-38.5 16t-15.5 39l-12 201q0 28 19.5 46.5t46.5 18.5t47 -18.5t20 -46.5z" />
<glyph unicode="#" horiz-adv-x="1607" d="M979 410l113 311h-447l-113 -311h447zM1274 281h-203l-88 -236q-6 -19 -23 -32t-40 -13q-25 0 -43.5 18t-18.5 43q0 27 6 35l68 185h-445l-88 -236q-6 -19 -23 -32t-40 -13q-25 0 -43.5 18t-18.5 43q0 26 7 35l67 185h-131q-29 0 -46 17t-17 46q0 30 17 48t46 18h178 l113 311h-174q-29 0 -46.5 17t-17.5 46t17.5 47.5t46.5 18.5h221l96 268q6 19 23.5 32t40.5 13q25 0 43 -18t18 -43q0 -27 -6 -35l-78 -217h447l96 268q6 19 23 32t40 13q25 0 43.5 -18t18.5 -43q0 -27 -6 -35l-78 -217h115q29 0 46 -17.5t17 -46.5t-17 -47t-46 -18h-162 l-113 -311h158q29 0 46 -17.5t17 -46.5t-17 -47t-46 -18z" />
<glyph unicode="$" horiz-adv-x="1103" d="M487 -109v107q-145 10 -270 68q-35 15 -35 51q0 23 16.5 40t39.5 17q4 0 20 -4q147 -55 301 -55q110 0 186 46t76 128q0 52 -37 93t-95.5 68t-129.5 53t-142.5 56.5t-130 68.5t-95.5 99.5t-37 140.5q0 142 84 221t249 91v106q0 29 17.5 47.5t46.5 18.5t47 -18.5t18 -47.5 v-108q77 -6 197 -37q37 -15 37 -56q0 -25 -17 -41t-42 -16q-3 0 -6.5 1t-6.5 1q-112 23 -225 23q-55 0 -99.5 -8.5t-72 -21t-48 -31.5t-29.5 -34.5t-14.5 -37t-6 -31t-0.5 -23.5q0 -54 37 -95t95.5 -68t129.5 -52.5t142.5 -55.5t130 -68t95.5 -100t37 -142q0 -63 -30 -116.5 t-79.5 -88.5t-107 -56.5t-117.5 -27.5v-105q0 -29 -18 -47t-47 -18t-46.5 18t-17.5 47z" />
<glyph unicode="%" horiz-adv-x="1847" d="M440 1163q115 0 198 -83t83 -199q0 -117 -83.5 -201t-197.5 -84q-118 0 -202 84t-84 201t83.5 199.5t202.5 82.5zM438 700q63 0 110.5 52.5t47.5 128.5q0 75 -46.5 120.5t-111.5 45.5q-71 0 -118.5 -44t-47.5 -122q0 -77 49 -129t117 -52zM1413 557q115 0 198 -83.5 t83 -199.5q0 -117 -83.5 -200.5t-197.5 -83.5q-118 0 -202.5 83.5t-84.5 200.5t84 200t203 83zM1411 94q63 0 110.5 52t47.5 128q0 75 -46.5 120.5t-111.5 45.5q-71 0 -118.5 -44t-47.5 -122q0 -77 48.5 -128.5t117.5 -51.5zM588 94l561 1034q15 35 57 35q26 0 45 -18.5 t19 -44.5q0 -18 -8 -31l-562 -1034q-18 -35 -57 -35q-26 0 -44.5 18.5t-18.5 44.5q0 18 8 31z" />
<glyph unicode="&#x26;" horiz-adv-x="1314" d="M815 252l-301 315q-73 -15 -128 -62.5t-79 -97t-24 -90.5q0 -57 15 -96.5t36 -60.5t59 -32.5t69.5 -14t80.5 -2.5q58 0 141 39.5t131 101.5zM1049 16l-148 158q-55 -57 -114 -97t-108 -57t-80 -23.5t-54 -6.5q-179 0 -285 82.5t-106 238.5q0 96 67.5 198t196.5 155 q-117 125 -117 223q0 127 96 209t293 82q128 0 211 -39q17 -6 27 -22t10 -34q0 -23 -17 -39t-40 -16q-13 0 -15 2q-74 19 -170 19q-266 0 -266 -162q0 -50 113 -168l356 -379l168 174q23 23 41 23q23 0 38 -15.5t15 -38.5q0 -20 -12 -32l-170 -193l151 -164q15 -15 15 -37 q0 -25 -16.5 -41t-41.5 -16q-22 0 -38 16z" />
<glyph unicode="'" horiz-adv-x="440" d="M287 1098l-13 -201q0 -23 -16 -39t-39 -16t-38 16t-15 39l-12 201q0 29 19 47t46 18t47.5 -18.5t20.5 -46.5z" />
<glyph unicode="(" horiz-adv-x="632" d="M154 530q3 419 213 906q15 34 53 34q25 0 42 -17t17 -42q0 -6 -4 -22q-192 -446 -192 -857q0 -410 192 -856q4 -16 4 -22q0 -25 -17 -42.5t-42 -17.5q-38 0 -53 35q-213 497 -213 901z" />
<glyph unicode=")" horiz-adv-x="632" d="M479 530q0 -404 -213 -901q-18 -35 -53 -35q-25 0 -42 17.5t-17 42.5q0 6 4 22q192 446 192 856q0 411 -192 857q-4 16 -4 22q0 25 17 42t42 17q35 0 53 -34q210 -487 213 -906z" />
<glyph unicode="*" horiz-adv-x="1036" d="M518 696l-127 -217q-15 -30 -55 -30q-25 0 -42.5 17t-17.5 42q0 23 13 39l133 196l-234 97q-34 15 -34 53q0 26 17 43.5t42 17.5q15 0 27 -6l229 -112l-14 264q0 29 17 46t46 17t46.5 -17t17.5 -46l-15 -264l230 112q12 6 26 6q25 0 42.5 -17.5t17.5 -43.5q0 -38 -35 -53 l-234 -97l134 -196q12 -15 12 -39q0 -25 -17.5 -42t-42.5 -17q-40 0 -55 30z" />
<glyph unicode="+" horiz-adv-x="903" d="M387 174v178h-170q-29 0 -46 17.5t-17 46.5t17 47t46 18h170v185q0 29 17.5 47t46.5 18t47 -18t18 -47v-185h170q29 0 46.5 -18t17.5 -47t-17.5 -46.5t-46.5 -17.5h-170v-178q0 -29 -18 -47t-47 -18t-46.5 18t-17.5 47z" />
<glyph unicode="," horiz-adv-x="468" d="M164 -123l39 119q-23 12 -36 31.5t-13 40.5q0 35 23 58.5t56 23.5q35 0 58.5 -23.5t23.5 -58.5q0 -6 -3 -16.5t-5 -12.5l-78 -162q-5 -12 -12 -17.5t-11.5 -6t-15.5 -0.5q-28 0 -28 18v2q0 1 1 2t1 2z" />
<glyph unicode="-" horiz-adv-x="903" d="M686 317h-469q-29 0 -46 17.5t-17 46.5t17 47t46 18h469q29 0 46.5 -18t17.5 -47t-17.5 -46.5t-46.5 -17.5z" />
<glyph unicode="." horiz-adv-x="466" d="M154 70q0 35 22 57.5t57 22.5t57.5 -22.5t22.5 -57.5t-22.5 -57.5t-57.5 -22.5t-57 22.5t-22 57.5z" />
<glyph unicode="/" horiz-adv-x="997" d="M158 -172l567 1503q15 37 57 37q27 0 44.5 -17t17.5 -46q0 -7 -4 -23l-568 -1503q-15 -37 -57 -37q-27 0 -44 17t-17 46q0 7 4 23z" />
<glyph unicode="0" horiz-adv-x="1212" d="M606 1180q159 0 275 -81t172.5 -213.5t56.5 -299.5t-56.5 -299.5t-172.5 -213.5t-275 -81t-275 81t-172.5 213.5t-56.5 299.5t56.5 299.5t172.5 213.5t275 81zM606 113q124 0 210 64.5t125.5 168t39.5 236.5t-39.5 236.5t-125.5 168t-210 64.5t-210 -64.5t-125.5 -168 t-39.5 -236.5t39.5 -236.5t125.5 -168t210 -64.5z" />
<glyph unicode="1" horiz-adv-x="751" d="M115 936q37 12 81 30t77.5 34t83.5 42.5t73.5 39.5t75 42t61.5 35l8 4q23 0 23 -22v-1075q0 -29 -18.5 -47.5t-47.5 -18.5t-46 18t-17 48v890q-148 -94 -319 -135q-4 -2 -19 -2q-25 0 -42 17.5t-17 42.5q0 43 43 57z" />
<glyph unicode="2" horiz-adv-x="1028" d="M829 0h-630q-26 0 -43.5 15t-22.5 40v8q3 60 39.5 121t92 113.5t122 105t132.5 106t120.5 107.5t89.5 117t37 127q0 13 -1 23.5t-6.5 31.5t-16 37t-32.5 35t-52 32t-78.5 21.5t-108.5 8.5q-93 0 -231 -48q-16 -4 -23 -4q-26 0 -44.5 19t-18.5 45q0 43 36 57 q139 60 287 60q418 0 418 -314q0 -95 -40 -176t-108.5 -146t-141.5 -123t-158.5 -135.5t-141.5 -154.5h524q29 0 47.5 -18.5t18.5 -47.5t-18 -46t-48 -17z" />
<glyph unicode="3" horiz-adv-x="991" d="M203 164q123 -53 241 -53q167 0 231 58t64 196q0 62 -22.5 106.5t-64 68t-85 35t-100.5 15.5q-35 0 -35 33q0 7 8 20l183 391h-457q-29 0 -46.5 17.5t-17.5 46.5t17.5 47t46.5 18h620q10 0 17.5 -9t7.5 -21q0 -11 -2 -15l-205 -430q133 -34 198.5 -124t65.5 -197 q0 -191 -103.5 -284t-326.5 -93q-62 0 -143.5 20.5t-142.5 52.5q-29 19 -29 50q0 25 16 41t39 16q13 0 25 -6z" />
<glyph unicode="4" horiz-adv-x="1064" d="M719 408v661l-463 -661h463zM930 279h-82v-213q0 -29 -18.5 -47.5t-47.5 -18.5t-46 18t-17 48v213h-537q-29 0 -49 21t-20 50v62q0 12 26 55l463 659q21 37 70 37h96q32 0 56 -24t24 -56v-675h82q27 0 45 -18.5t18 -47.5q0 -25 -18.5 -44t-44.5 -19z" />
<glyph unicode="5" horiz-adv-x="983" d="M160 141q-13 16 -13 35q0 26 17.5 45t42.5 19q41 0 57 -37l6 -8q34 -37 81 -57t82.5 -23.5t92.5 -3.5q59 0 103 9.5t80.5 33.5t55.5 70t19 114q0 67 -21 116t-58.5 76t-83 39.5t-101.5 12.5q-58 0 -92.5 -5t-62.5 -24q-63 -25 -89 -25q-143 0 -143 107v463q0 29 17.5 47 t46.5 18h579q29 0 46.5 -18t17.5 -47t-17.5 -46.5t-46.5 -17.5h-514v-391q52 31 105.5 47.5t82 18.5t72.5 2q166 0 278.5 -101t112.5 -270q0 -167 -106.5 -258.5t-282.5 -91.5q-254 0 -364 151z" />
<glyph unicode="6" horiz-adv-x="1079" d="M541 633q-124 0 -211.5 -64t-87.5 -190q0 -87 44 -149.5t109.5 -90.5t143.5 -28q125 0 212 69.5t87 198.5q0 127 -85.5 190.5t-211.5 63.5zM578 1065l-168 -313h125q114 0 212 -44.5t159 -128.5t61 -188q0 -127 -60.5 -220t-156.5 -137t-213 -44q-85 0 -160.5 26t-135 75 t-94 126.5t-34.5 173.5q0 40 17.5 96.5t39.5 96.5l299 549q21 30 55 30q26 0 45 -18.5t19 -44.5q0 -18 -10 -35z" />
<glyph unicode="7" horiz-adv-x="940" d="M307 96l395 938h-557q-29 0 -46 17.5t-17 46.5t17 47t46 18h709q10 0 17.5 -9t7.5 -21q0 -11 -2 -15l-457 -1083q-18 -35 -58 -35q-26 0 -44.5 18.5t-18.5 44.5q0 20 8 33z" />
<glyph unicode="8" horiz-adv-x="1077" d="M539 111q39 0 75 4t78 17.5t72.5 35t51 60t20.5 89.5q0 59 -26.5 103.5t-71 68.5t-95 35t-106.5 11t-105.5 -11t-93.5 -35t-70 -68.5t-26 -103.5q0 -51 20.5 -89.5t51 -60t72.5 -35t78 -17.5t75 -4zM539 662q40 0 63 1t54 5t49 11.5t38 22t30 36t17 53t7 73.5 q0 43 -13 76.5t-38 52.5t-49.5 31.5t-59 17t-54 6t-46.5 1.5q-26 0 -45.5 -1.5t-53 -6t-58 -17t-49 -31.5t-37.5 -52.5t-13 -76.5q0 -42 7 -73.5t17 -53t30 -36t38 -22t49 -11.5t54 -5t63 -1zM541 -10q-113 0 -209 37t-157.5 114.5t-61.5 180.5q0 38 2.5 64t12 58.5t27.5 57 t50 50.5t78 48q-46 25 -75 59.5t-40 76t-13.5 67t-2.5 65.5q0 80 30 140.5t84 97t122.5 54.5t150.5 18t150.5 -18t122.5 -54.5t84 -97t30 -140.5q0 -40 -2.5 -65.5t-13.5 -67t-40 -76t-75 -59.5q56 -28 92 -59.5t52 -68.5t21 -69.5t5 -80.5q0 -103 -61.5 -180.5 t-156.5 -114.5t-206 -37z" />
<glyph unicode="9" horiz-adv-x="1079" d="M539 535q79 0 144.5 24.5t110 83.5t44.5 145t-44 147t-109.5 87.5t-143.5 26.5q-125 0 -212 -67t-87 -194q0 -65 24.5 -115t66.5 -79.5t94 -44t112 -14.5zM500 98l170 314h-125q-175 0 -303.5 103.5t-128.5 260.5q0 127 60.5 220t156.5 137.5t213 44.5q85 0 160.5 -26 t135 -75.5t94 -127t34.5 -173.5q0 -40 -18 -95.5t-40 -96.5l-301 -553q-22 -31 -55 -31q-26 0 -45 18.5t-19 44.5q0 17 11 35z" />
<glyph unicode=":" horiz-adv-x="466" d="M154 70q0 35 22 57.5t57 22.5t57.5 -22.5t22.5 -57.5t-22.5 -57.5t-57.5 -22.5t-57 22.5t-22 57.5zM154 690q0 35 22 57.5t57 22.5t57.5 -22.5t22.5 -57.5t-22.5 -57.5t-57.5 -22.5t-57 22.5t-22 57.5z" />
<glyph unicode=";" horiz-adv-x="468" d="M162 684q0 30 22 52t52 22q32 0 55.5 -22.5t23.5 -51.5q0 -32 -23.5 -55t-55.5 -23q-31 0 -52.5 23t-21.5 55zM164 -123l39 119q-23 12 -36 31.5t-13 40.5q0 35 23 58.5t56 23.5q35 0 58.5 -23.5t23.5 -58.5q0 -6 -3 -16.5t-5 -12.5l-78 -162q-5 -12 -12 -17.5t-11.5 -6 t-15.5 -0.5q-28 0 -28 18v2q0 1 1 2t1 2z" />
<glyph unicode="&#x3c;" horiz-adv-x="978" d="M154 403q0 76 65 111l508 254q13 8 31 8q29 0 48 -19t19 -48q0 -35 -41 -60l-497 -243l497 -244q41 -25 41 -60q0 -29 -19 -48t-48 -19q-18 0 -31 8l-508 254q-65 35 -65 106z" />
<glyph unicode="=" horiz-adv-x="768" d="M551 483h-334q-29 0 -46 17.5t-17 46.5t17 47t46 18h334q29 0 46 -18t17 -47t-17 -46.5t-46 -17.5zM551 164h-334q-29 0 -46 17t-17 46q0 30 17 48t46 18h334q29 0 46 -18t17 -48q0 -29 -17 -46t-46 -17z" />
<glyph unicode="&#x3e;" horiz-adv-x="978" d="M825 403q0 -71 -65 -106l-508 -254q-13 -8 -31 -8q-29 0 -48 19t-19 48q0 35 41 60l497 244l-497 243q-41 25 -41 60q0 29 19 48t48 19q18 0 31 -8l508 -254q65 -35 65 -111z" />
<glyph unicode="?" horiz-adv-x="927" d="M362 70q0 35 22.5 57.5t57.5 22.5t57.5 -22.5t22.5 -57.5t-22.5 -57.5t-57.5 -22.5t-57.5 22.5t-22.5 57.5zM188 1130q113 48 244 48q147 0 244.5 -69.5t97.5 -209.5q0 -61 -28 -121t-68 -108.5t-80 -95t-68 -100t-28 -105.5v-52q0 -29 -18 -46t-48 -17q-29 0 -46 17 t-17 46v56q0 72 28 133t68 105.5t80 86.5t68 95.5t28 113.5q0 76 -47.5 109t-171.5 33q-97 0 -193 -27q-16 -4 -22 -4q-25 0 -41 16t-16 41q0 40 34 55z" />
<glyph unicode="@" horiz-adv-x="2009" d="M967 111q131 0 194.5 48t63.5 181q0 121 -67 180.5t-191 59.5q-126 0 -183 -52.5t-57 -187.5q0 -108 60 -168.5t180 -60.5zM1350 647v-483q23 -27 45 -39q53 -39 135 -39q26 0 41 1t38.5 7.5t37.5 18.5t31 35t26 56t15.5 83.5t6.5 115.5q0 56 -7 110.5t-28 119t-54 120 t-89 108.5t-129 90.5t-178.5 60t-232.5 22.5q-126 0 -231.5 -23t-179 -60.5t-130.5 -91t-91 -109.5t-55.5 -120.5t-29.5 -119.5t-8 -111q0 -63 3.5 -114t15 -111t30.5 -107t52 -97t78 -87.5t110.5 -72t147.5 -56t190 -34.5t237 -13q244 0 371 53q2 2 16 2q26 0 43.5 -17 t17.5 -42q0 -20 -12 -36.5t-31 -22.5q-84 -24 -202.5 -41t-186.5 -17q-88 0 -163 4t-159.5 15.5t-155 30.5t-142.5 51t-128 75t-106.5 105t-83.5 138t-52 176t-19 218q0 70 12 140.5t41.5 147t73.5 144t113.5 129.5t156 106.5t205.5 70.5t258 26q192 0 343 -50.5 t242.5 -128.5t151 -182.5t82 -203t22.5 -199.5q0 -204 -75 -313t-248 -109q-165 0 -289 109q-26 -28 -59 -47.5t-59 -28.5t-61.5 -14t-50.5 -5.5t-42 -0.5q-73 0 -138 21t-118.5 62.5t-85 113t-31.5 163.5q0 166 91 262.5t255 96.5q46 0 78.5 -4.5t86 -27t112.5 -65.5v35 q0 30 17 48t46 18t47.5 -18.5t18.5 -47.5z" />
<glyph unicode="A" horiz-adv-x="1187" d="M594 1174q28 0 37 -25l499 -1057q7 -14 7 -26q0 -29 -18.5 -47.5t-45.5 -18.5q-42 0 -57 35l-111 231h-622l-111 -231q-18 -35 -57 -35q-27 0 -45.5 18.5t-18.5 47.5q0 14 6 26l500 1057q9 25 37 25zM594 922l-250 -527h500z" />
<glyph unicode="B" horiz-adv-x="1101" d="M285 1034v-405h364q102 0 155.5 63t53.5 150q0 86 -58 139t-151 53h-364zM285 129h362q90 0 150.5 52t60.5 136q0 81 -43 132t-137 51h-393v-371zM686 0h-469q-29 0 -46 18t-17 48v1032q0 29 17 47t46 18h428q155 0 249.5 -92t94.5 -229q0 -139 -119 -267 q117 -97 117 -258q0 -133 -86 -225t-215 -92z" />
<glyph unicode="C" horiz-adv-x="1210" d="M1036 225q16 13 35 13q25 0 41 -16.5t16 -41.5q0 -20 -14 -37q-150 -153 -416 -153q-161 0 -298.5 79.5t-217.5 216.5t-80 298t79.5 298t216.5 216.5t298 79.5q202 0 359 -113q26 -26 26 -51t-18 -42.5t-43 -17.5q-21 0 -37 13q-117 82 -287 82q-193 0 -329 -137.5 t-136 -331.5t136 -331.5t329 -137.5q197 0 340 114z" />
<glyph unicode="D" horiz-adv-x="1183" d="M283 129h233q208 0 337.5 118.5t129.5 323.5q0 206 -131 334.5t-336 128.5h-233v-905zM553 0h-336q-29 0 -46 18t-17 48v1032q0 29 17 47t46 18h336q161 0 289.5 -77.5t199 -211t70.5 -296.5t-70.5 -294.5t-199 -207.5t-289.5 -76z" />
<glyph unicode="E" horiz-adv-x="1052" d="M285 629h450q27 0 46.5 -18t19.5 -46t-19.5 -46.5t-46.5 -18.5h-452v-371h581q27 0 46.5 -18.5t19.5 -47.5q0 -28 -19.5 -45.5t-46.5 -17.5h-647q-29 0 -46 18t-17 48v1032q0 29 17 47t46 18h647q27 0 46.5 -17.5t19.5 -45.5q0 -29 -19.5 -47.5t-46.5 -18.5h-579v-405z " />
<glyph unicode="F" horiz-adv-x="970" d="M283 500v-434q0 -29 -18.5 -47.5t-47.5 -18.5t-46 18t-17 48v1032q0 29 17 47t46 18h647q27 0 46.5 -17.5t19.5 -45.5q0 -29 -19.5 -47.5t-46.5 -18.5h-579v-405h450q27 0 46.5 -18t19.5 -46t-19.5 -46.5t-46.5 -18.5h-452z" />
<glyph unicode="G" horiz-adv-x="1310" d="M696 111q190 0 328 104v244h-205q-29 0 -46 17t-17 46q0 30 17 48t46 18h285q29 0 46 -18t17 -48v-493q0 -29 -28 -29q-7 0 -16 6.5t-11 11.5l-53 78q-140 -106 -361 -106q-161 0 -298.5 79.5t-217.5 216.5t-80 298t79.5 298t216.5 216.5t298 79.5q202 0 359 -113 q26 -26 26 -51t-18 -42.5t-43 -17.5q-21 0 -37 13q-117 82 -287 82q-193 0 -329 -137.5t-136 -331.5t136 -331.5t329 -137.5z" />
<glyph unicode="H" horiz-adv-x="1196" d="M913 66v432h-630v-432q0 -29 -18.5 -47.5t-47.5 -18.5t-46 18t-17 48v1032q0 29 17 47t46 18t47.5 -18t18.5 -47v-471h630v471q0 29 17.5 47t46.5 18t47 -18t18 -47v-1032q0 -29 -18 -47.5t-47 -18.5t-46.5 18.5t-17.5 47.5z" />
<glyph unicode="I" d="M154 66v1032q0 29 17 47t46 18t47.5 -18t18.5 -47v-1032q0 -29 -18.5 -47.5t-47.5 -18.5t-46 18t-17 48z" />
<glyph unicode="J" horiz-adv-x="917" d="M135 170q95 -59 223 -59q75 0 123 11.5t84 39.5t54.5 81t27 128t8.5 190v537q0 29 17.5 47t46.5 18t47 -18t18 -47v-549q0 -218 -41.5 -338.5t-130.5 -170.5t-250 -50q-163 0 -290 78q-29 19 -29 49q0 26 17.5 44.5t41.5 18.5q16 0 33 -10z" />
<glyph unicode="K" horiz-adv-x="1169" d="M283 524l618 617q19 22 47 22q26 0 46 -19.5t20 -45.5q0 -21 -15 -39l-303 -309l418 -662q4 -20 4 -25q0 -29 -18.5 -46t-48.5 -17q-27 0 -47 20l-404 639l-317 -323v-270q0 -29 -18.5 -47.5t-47.5 -18.5t-46 18t-17 48v1032q0 29 17 47t46 18t47.5 -18t18.5 -47v-574z " />
<glyph unicode="L" horiz-adv-x="1030" d="M283 129h581q27 0 46.5 -18.5t19.5 -47.5q0 -28 -19.5 -45.5t-46.5 -17.5h-647q-29 0 -46 18t-17 48v1032q0 29 17 47t46 18t47.5 -18t18.5 -47v-969z" />
<glyph unicode="M" horiz-adv-x="1413" d="M705 356q-22 0 -41 19l-381 452v-761q0 -29 -18.5 -47.5t-47.5 -18.5t-46 18t-17 48v1083q3 14 20 14q11 0 25 -14l475 -580q2 -2 7 -7.5t6.5 -6.5t5.5 -4t7 -3.5t7 -0.5t7 1t6.5 3t5 4t6 6.5l7.5 7.5l475 580q14 14 25 14q18 0 21 -14v-1083q0 -29 -17.5 -47.5 t-46.5 -18.5t-47.5 18.5t-18.5 47.5v761l-380 -452q-19 -19 -45 -19z" />
<glyph unicode="N" horiz-adv-x="1296" d="M285 1145l729 -584v537q0 29 17 47t46 18t47.5 -18t18.5 -47v-1032q0 -29 -18.5 -47.5t-47.5 -18.5t-46 18t-17 48v346l-731 565v-911q0 -29 -18.5 -47.5t-47.5 -18.5t-46 18t-17 48v1015q0 35 23 58.5t56 23.5q34 0 52 -18z" />
<glyph unicode="O" horiz-adv-x="1392" d="M696 1178q161 0 298 -79.5t216.5 -216.5t79.5 -298t-79.5 -298t-216.5 -216.5t-298 -79.5t-298 79.5t-216.5 216.5t-79.5 298t79.5 298t216.5 216.5t298 79.5zM696 111q126 0 233 63t169.5 171t62.5 235t-62.5 235t-169.5 171t-233 63q-193 0 -329 -137.5t-136 -331.5 t136 -331.5t329 -137.5z" />
<glyph unicode="P" horiz-adv-x="1054" d="M283 555h376q97 0 156 58.5t59 181.5q0 122 -59.5 180.5t-155.5 58.5h-376v-479zM154 66v1032q0 29 17 47t46 18h467q134 0 227 -102.5t93 -263.5q0 -162 -93 -262.5t-227 -100.5h-401v-368q0 -29 -18.5 -47.5t-47.5 -18.5t-46 18t-17 48z" />
<glyph unicode="Q" horiz-adv-x="1392" d="M870 -162q19 0 32 -13t13 -32q0 -12 -8 -24.5t-20 -16.5q-23 -6 -66 -6q-44 0 -75.5 10t-58.5 36t-40.5 76.5t-13.5 125.5q-148 16 -269.5 98t-191.5 211.5t-70 280.5q0 161 79.5 298t216.5 216.5t298 79.5t298 -79.5t216.5 -216.5t79.5 -298q0 -152 -71.5 -283.5 t-194.5 -213.5t-272 -95q-2 -23 -2 -49q0 -43 20 -75t72 -32q4 0 14.5 1t13.5 1zM231 580q0 -194 136 -331.5t329 -137.5q126 0 233 63t169.5 171t62.5 235t-62.5 235t-169.5 171t-233 63q-193 0 -329 -137.5t-136 -331.5z" />
<glyph unicode="R" horiz-adv-x="1095" d="M774 446l176 -344q8 -13 8 -32q0 -29 -20 -49.5t-49 -20.5q-41 0 -62 37l-200 397h-344v-368q0 -29 -18.5 -47.5t-47.5 -18.5t-46 18t-17 48v1032q0 29 17 47t46 18h467q134 0 227 -102.5t93 -263.5q0 -133 -63.5 -226t-166.5 -125zM283 1034v-479h376q97 0 156 58.5 t59 181.5q0 122 -59.5 180.5t-155.5 58.5h-376z" />
<glyph unicode="S" horiz-adv-x="1015" d="M782 1137q37 -15 37 -56q0 -25 -17 -41t-42 -16q-3 0 -6 1t-6 1q-112 23 -226 23q-55 0 -99.5 -8.5t-72 -21t-48 -31.5t-29.5 -34.5t-14.5 -37t-6 -31t-0.5 -23.5q0 -54 37 -95t96 -68t130 -52.5t142 -55.5t130 -68t96 -100t37 -142q0 -68 -36 -125t-92 -92t-120 -54.5 t-125 -19.5q-210 0 -361 71q-34 15 -34 52q0 23 16 40t39 17q4 0 20 -4q147 -55 301 -55q110 0 186.5 46t76.5 128q0 52 -37 93t-96 68t-130 53t-142 56.5t-130 68.5t-96 99.5t-37 140.5q0 154 98.5 234t290.5 80q138 0 270 -41z" />
<glyph unicode="T" horiz-adv-x="989" d="M559 1034v-968q0 -29 -18 -47.5t-47 -18.5t-46.5 18.5t-17.5 47.5v968h-295q-29 0 -46 17.5t-17 46.5t17 47t46 18h719q29 0 46.5 -18t17.5 -47t-17.5 -46.5t-46.5 -17.5h-295z" />
<glyph unicode="U" horiz-adv-x="1282" d="M639 -10q-238 0 -361.5 128t-123.5 371v609q0 29 17 47t46 18t47.5 -18t18.5 -47v-566q0 -218 82.5 -319.5t275.5 -101.5t275.5 101.5t82.5 319.5v566q0 29 18.5 47t47.5 18t46 -18t17 -47v-609q0 -243 -124.5 -371t-364.5 -128z" />
<glyph unicode="V" horiz-adv-x="1187" d="M594 -10q-28 0 -37 24l-500 1057q-6 12 -6 27q0 29 18.5 47t45.5 18q39 0 57 -35l422 -886l422 886q15 35 57 35q27 0 45.5 -18t18.5 -47q0 -13 -7 -27l-499 -1057q-9 -24 -37 -24z" />
<glyph unicode="W" horiz-adv-x="1576" d="M788 729q-6 0 -18 -12l-303 -703q-9 -24 -37 -24t-37 24l-338 1061q-4 16 -4 21q0 29 18.5 48t47.5 19q48 0 61 -43l271 -817l305 731q14 23 34 23q21 0 35 -23l305 -731l271 817q13 43 61 43q29 0 47.5 -19t18.5 -48q0 -5 -4 -21l-338 -1061q-9 -24 -37 -24t-37 24 l-303 703q-12 12 -19 12z" />
<glyph unicode="X" horiz-adv-x="1052" d="M885 29l-359 448l-358 -448q-25 -29 -53 -29q-26 0 -45 20t-19 46q0 21 12 36l386 482l-381 477q-13 16 -13 37q0 26 19 45.5t45 19.5q31 0 53 -28l354 -441l355 441q22 28 53 28q26 0 44.5 -19.5t18.5 -45.5q0 -22 -12 -37l-381 -477l385 -482q12 -15 12 -36 q0 -27 -18.5 -46.5t-44.5 -19.5q-30 0 -53 29z" />
<glyph unicode="Y" horiz-adv-x="1097" d="M614 451v-385q0 -29 -18 -47.5t-47 -18.5t-46.5 18.5t-17.5 47.5v383l-424 616q-10 17 -10 35q0 29 17.5 46t46.5 17q34 0 53 -28l381 -555l381 555q19 28 53 28q29 0 46.5 -17t17.5 -46q0 -17 -11 -35z" />
<glyph unicode="Z" horiz-adv-x="972" d="M838 0h-740q-10 0 -17 9.5t-7 21.5q0 10 2 14l618 989h-559q-29 0 -46 17.5t-17 46.5t17 47t46 18h742q10 0 17 -9t7 -21q0 -11 -2 -15l-618 -989h557q29 0 46 -18t17 -48q0 -29 -17 -46t-46 -17z" />
<glyph unicode="[" horiz-adv-x="686" d="M154 -285v1692q0 30 17 48t46 18h250q27 0 46 -18t19 -46q0 -29 -19 -47.5t-46 -18.5h-184v-1564h184q27 0 46 -18.5t19 -47.5q0 -28 -19 -45.5t-46 -17.5h-250q-29 0 -46 18t-17 47z" />
<glyph unicode="\" horiz-adv-x="997" d="M272 1331l568 -1503q4 -16 4 -23q0 -29 -17.5 -46t-44.5 -17q-42 0 -57 37l-567 1503q-4 16 -4 23q0 29 17 46t44 17q42 0 57 -37z" />
<glyph unicode="]" horiz-adv-x="686" d="M532 1407v-1692q0 -29 -17 -47t-46 -18h-250q-27 0 -46 17.5t-19 45.5q0 29 19 47.5t46 18.5h184v1564h-184q-27 0 -46 18.5t-19 47.5q0 28 19 46t46 18h250q29 0 46 -18t17 -48z" />
<glyph unicode="^" horiz-adv-x="782" d="M391 1163q47 0 77.5 -27t59.5 -79l99 -180q2 -2 2 -9q0 -24 -18.5 -37.5t-43.5 -13.5q-36 0 -53 31l-123 229l-123 -229q-17 -31 -53 -31q-25 0 -43 13.5t-18 37.5q0 7 2 9l98 180q29 52 59.5 79t77.5 27z" />
<glyph unicode="_" horiz-adv-x="903" d="M686 -139h-469q-29 0 -46 17t-17 46q0 30 17 48t46 18h469q29 0 46.5 -18.5t17.5 -47.5t-17.5 -46t-46.5 -17z" />
<glyph unicode="`" horiz-adv-x="528" d="M264 901l-104 172q-6 9 -6 23q0 30 16 48.5t45 18.5q56 0 78 -51l76 -176q6 -18 6 -21q0 -23 -17 -38t-41 -15q-33 0 -53 39z" />
<glyph unicode="a" horiz-adv-x="1067" d="M494 111q122 0 206 82t84 219q0 132 -85 210t-205 78q-123 0 -203 -77.5t-80 -210.5q0 -156 77 -228.5t206 -72.5zM793 700l6 62q0 25 16 41t41 16t41 -16t16 -41v-705q0 -25 -16 -41t-41 -16q-47 0 -57 57l-6 56q-84 -77 -157.5 -100t-160.5 -23q-127 0 -217.5 58 t-133 152.5t-42.5 213.5q0 182 112 298.5t285 116.5q34 0 72.5 -5.5t111.5 -37t130 -86.5z" />
<glyph unicode="b" horiz-adv-x="1067" d="M573 111q129 0 206 72.5t77 228.5q0 133 -80 210.5t-203 77.5q-120 0 -205 -78t-85 -210q0 -137 84 -219t206 -82zM154 57v1041q0 29 17 47t46 18t47.5 -18t18.5 -47v-393q130 124 305 124q173 0 285 -116.5t112 -298.5q0 -119 -42.5 -213.5t-133 -152.5t-217.5 -58 q-41 0 -71.5 3.5t-73.5 14.5t-86.5 37.5t-86.5 67.5l-6 -56q-10 -57 -57 -57q-25 0 -41 16t-16 41z" />
<glyph unicode="c" horiz-adv-x="833" d="M672 135q12 6 26 6q23 0 40.5 -17t17.5 -40q0 -32 -27 -47q-97 -47 -227 -47q-172 0 -296 124t-124 296q0 113 57 209.5t153.5 153t209.5 56.5q130 0 233 -65q27 -15 27 -47q0 -23 -17 -40.5t-40 -17.5q-13 0 -27 7q-69 34 -176 34q-121 0 -206 -86t-85 -208t85 -208.5 t206 -86.5q94 0 170 24z" />
<glyph unicode="d" horiz-adv-x="1067" d="M494 111q122 0 206 82t84 219q0 132 -85 210t-205 78q-123 0 -203 -77.5t-80 -210.5q0 -156 77 -228.5t206 -72.5zM913 1098v-1041q0 -25 -16 -41t-41 -16q-47 0 -57 57l-6 56q-84 -77 -157.5 -100t-160.5 -23q-127 0 -217.5 58t-133 152.5t-42.5 213.5q0 182 112 298.5 t285 116.5q175 0 305 -124v393q0 29 18.5 47t47.5 18t46 -18t17 -47z" />
<glyph unicode="e" horiz-adv-x="946" d="M215 463h516q0 65 -23 113t-62.5 74t-84 38t-94.5 12t-93 -12.5t-79.5 -39t-58 -74t-21.5 -111.5zM805 344h-590q0 -58 21.5 -102t52.5 -68t73.5 -39t77 -19.5t70.5 -4.5q40 0 97 10.5t102 28.5q16 4 22 4q25 0 42.5 -17.5t17.5 -42.5q0 -33 -25 -49q-104 -55 -254 -55 q-91 0 -168 25.5t-136 75.5t-92.5 132t-33.5 187q0 88 23 162t68.5 132.5t122.5 91.5t177 33t177 -33t122.5 -91.5t68.5 -132.5t23 -162q0 -25 -17.5 -45.5t-41.5 -20.5z" />
<glyph unicode="f" horiz-adv-x="700" d="M610 1149q-6 0 -22.5 1t-30.5 1q-107 0 -141.5 -62t-34.5 -237v-23h194q27 0 46.5 -18.5t19.5 -46.5t-19.5 -46t-46.5 -18h-194v-634q0 -29 -18.5 -47.5t-47.5 -18.5t-46 18t-17 48v634h-135q-27 0 -46.5 18t-19.5 46t19.5 46.5t46.5 18.5h135v23q0 158 31.5 254t88 135 t144.5 39q64 0 119 -18q35 -18 35 -54q0 -26 -17.5 -42.5t-42.5 -16.5z" />
<glyph unicode="g" horiz-adv-x="1067" d="M494 111q122 0 206 82t84 219q0 132 -85 210t-205 78q-123 0 -203 -77.5t-80 -210.5q0 -156 77 -228.5t206 -72.5zM913 762v-805q0 -83 -23 -147.5t-60 -103.5t-89 -64t-103.5 -34t-109.5 -9q-188 0 -290 55q-27 15 -27 47q0 25 16 41t39 16q13 0 17 -2q95 -37 219 -37 q84 0 140 16.5t86.5 50.5t43 78t12.5 107v142q-59 -54 -117.5 -82.5t-97.5 -34.5t-94 -6q-127 0 -217.5 58t-133 152.5t-42.5 213.5q0 182 112 298.5t285 116.5q34 0 72.5 -5.5t111.5 -37t130 -86.5l6 62q0 25 16 41t41 16t41 -16t16 -41z" />
<glyph unicode="h" horiz-adv-x="1044" d="M154 66v1032q0 29 17 47t46 18t47.5 -18t18.5 -47v-389q70 74 137.5 97t144.5 23q98 0 166.5 -28t107 -82t55.5 -123.5t17 -163.5v-366q0 -29 -18 -47.5t-47 -18.5t-46.5 18.5t-17.5 47.5v368q0 39 -1 63.5t-6 56t-15 50.5t-27.5 39.5t-43 31.5t-62.5 18t-86 7 q-117 0 -187.5 -80.5t-70.5 -195.5v-358q0 -29 -18.5 -47.5t-47.5 -18.5t-46 18t-17 48z" />
<glyph unicode="i" d="M129 999q0 37 26.5 64t61.5 27q41 0 67.5 -27t26.5 -64t-26.5 -62.5t-67.5 -25.5q-36 0 -62 26t-26 62zM154 66v688q0 29 17 47t46 18t47.5 -18t18.5 -47v-688q0 -29 -18.5 -47.5t-47.5 -18.5t-46 18t-17 48z" />
<glyph unicode="j" d="M129 999q0 37 26.5 64t61.5 27q41 0 67.5 -27t26.5 -64t-26.5 -62.5t-67.5 -25.5q-36 0 -62 26t-26 62zM-68 -285h11q31 -8 67 -8q60 0 89.5 22.5t42 81.5t12.5 181v762q0 29 17 47t46 18t47.5 -18t18.5 -47v-791q0 -110 -15.5 -182t-49 -111.5t-77.5 -55t-108 -15.5 q-60 0 -117 14q-37 13 -37 51q0 23 15 37t38 14z" />
<glyph unicode="k" horiz-adv-x="856" d="M420 412l364 -306q19 -22 19 -43q0 -26 -19.5 -44.5t-46.5 -18.5q-20 0 -37 14l-417 344v-292q0 -29 -18.5 -47.5t-47.5 -18.5t-46 18t-17 48v1032q0 29 17 47t46 18t47.5 -18t18.5 -47v-633l419 342q15 12 37 12q29 0 47.5 -18t18.5 -47q0 -26 -19 -45z" />
<glyph unicode="l" d="M154 66v1032q0 29 17 47t46 18t47.5 -18t18.5 -47v-1032q0 -29 -18.5 -47.5t-47.5 -18.5t-46 18t-17 48z" />
<glyph unicode="m" horiz-adv-x="1447" d="M1315 494v-428q0 -29 -18.5 -47.5t-47.5 -18.5t-46 18t-17 48v389q0 126 -42.5 185.5t-137.5 59.5q-76 0 -135.5 -51t-69.5 -129q2 -25 2 -67v-387q0 -29 -18.5 -47.5t-47.5 -18.5t-46 18t-17 48v352q0 125 -45.5 203.5t-139.5 78.5q-101 0 -153.5 -79.5t-52.5 -202.5 v-352q0 -29 -18.5 -47.5t-47.5 -18.5t-46 18t-17 48v696q0 25 16 41t41 16t41 -16t16 -41l6 -51q37 41 72.5 67t67.5 36t51.5 12.5t44.5 2.5q159 0 244 -129q36 44 74 72.5t77 39.5t65 14t62 3q133 0 208 -95.5t75 -239.5z" />
<glyph unicode="n" horiz-adv-x="1044" d="M268 762l6 -62q37 43 77.5 71t81 39.5t69 15t63.5 3.5q98 0 166.5 -28t107 -82t55.5 -123.5t17 -163.5v-366q0 -29 -18 -47.5t-47 -18.5t-46.5 18.5t-17.5 47.5v368q0 39 -1 63.5t-6 56t-15 50.5t-27.5 39.5t-43 31.5t-62.5 18t-86 7q-119 0 -188.5 -82.5t-69.5 -203.5 v-348q0 -29 -18.5 -47.5t-47.5 -18.5t-46 18t-17 48v696q0 25 16 41t41 16t41 -16t16 -41z" />
<glyph unicode="o" horiz-adv-x="1003" d="M502 829q113 0 209.5 -56.5t153.5 -153t57 -209.5q0 -172 -124 -296t-296 -124t-296 124t-124 296q0 113 57 209.5t153.5 153t209.5 56.5zM502 111q121 0 206 86.5t85 208.5t-85 208t-206 86t-206 -86t-85 -208t85 -208.5t206 -86.5z" />
<glyph unicode="p" horiz-adv-x="1067" d="M283 104v-389q0 -29 -17.5 -47t-46.5 -18t-47 18t-18 47v1047q0 25 16 41t41 16t41 -16t16 -41l6 -62q57 55 130 86.5t111.5 37t72.5 5.5q173 0 285 -116.5t112 -298.5q0 -119 -42.5 -213.5t-133 -152.5t-217.5 -58q-82 0 -154 22t-155 92zM573 111q129 0 206 72.5 t77 228.5q0 133 -80 210.5t-203 77.5q-120 0 -205 -78t-85 -210q0 -137 84 -219t206 -82z" />
<glyph unicode="q" horiz-adv-x="1067" d="M784 -285v389q-83 -70 -155 -92t-154 -22q-127 0 -217.5 58t-133 152.5t-42.5 213.5q0 182 112 298.5t285 116.5q34 0 72.5 -5.5t111.5 -37t130 -86.5l6 62q0 25 16 41t41 16t41 -16t16 -41v-1047q0 -29 -18 -47t-47 -18t-46.5 18t-17.5 47zM494 111q122 0 206 82t84 219 q0 132 -85 210t-205 78q-123 0 -203 -77.5t-80 -210.5q0 -156 77 -228.5t206 -72.5z" />
<glyph unicode="r" horiz-adv-x="665" d="M569 700h-12q-274 0 -274 -292v-342q0 -29 -18.5 -47.5t-47.5 -18.5t-46 18t-17 48v696q0 25 16 41t41 16q42 0 57 -57l15 -55q73 122 278 122h8q27 0 46.5 -18.5t19.5 -46.5t-19.5 -46t-46.5 -18z" />
<glyph unicode="s" horiz-adv-x="821" d="M606 809q21 -5 35 -21.5t14 -39.5q0 -24 -18.5 -42t-42.5 -18q-82 12 -172 12q-115 0 -153 -24t-38 -72q0 -27 27.5 -51t71 -43.5t96.5 -39t106 -43t96.5 -51t71 -67t27.5 -86.5q0 -64 -30 -111t-81 -72.5t-107 -37.5t-118 -12q-126 0 -252 55q-35 15 -35 51 q0 25 17.5 42.5t40.5 17.5q2 0 18 -4q134 -41 207 -41q211 0 211 90q0 37 -27.5 65t-71 46.5t-96.5 36t-106 39t-96.5 49t-71 73t-27.5 104.5q0 107 77 161t220 54q117 0 207 -20z" />
<glyph unicode="t" horiz-adv-x="716" d="M551 111h12q26 0 44 -18t18 -44q0 -28 -17.5 -43.5t-44.5 -15.5h-49q-86 0 -139 29t-83 104.5t-30 202.5v374h-135q-27 0 -46.5 18t-19.5 46t19.5 46.5t46.5 18.5h135v269q0 29 17.5 47t46.5 18t47 -18t18 -47v-269h176q27 0 46.5 -18.5t19.5 -46.5t-19.5 -46t-46.5 -18 h-176v-305q0 -63 2 -103.5t8.5 -75t16.5 -52.5t29 -31.5t43 -17.5t61 -4z" />
<glyph unicode="u" horiz-adv-x="1019" d="M866 754v-697q0 -25 -16 -41t-41 -16t-41 16t-16 41l-4 54q-34 -42 -73 -68.5t-78.5 -37t-63 -13t-54.5 -2.5q-98 0 -166.5 28t-107 82t-55.5 123.5t-17 163.5v367q0 29 17.5 47t46.5 18t47 -18t18 -47v-377q0 -52 4 -87.5t18 -72t40 -58t71 -35t109 -13.5 q118 0 175.5 80.5t57.5 205.5v357q0 29 17.5 47t46.5 18t47 -18t18 -47z" />
<glyph unicode="v" horiz-adv-x="860" d="M430 -10q-28 0 -37 24l-346 717q-6 12 -6 25q0 26 18.5 44.5t44.5 18.5q19 0 37 -10t25 -27l264 -549l264 549q7 17 25 27t37 10q26 0 44.5 -18.5t18.5 -44.5q0 -13 -6 -25l-346 -717q-9 -24 -37 -24z" />
<glyph unicode="w" horiz-adv-x="1298" d="M649 522q-8 0 -18 -10l-250 -504q-9 -18 -27 -18q-15 0 -24 18l-264 723q-5 20 -5 23q0 29 18.5 47t45.5 18q49 0 61 -39l185 -514l231 490q20 35 47 35t47 -35l232 -490l184 514q12 39 62 39q27 0 45 -18t18 -47q0 -7 -4 -23l-264 -723q-9 -18 -25 -18q-17 0 -26 18 l-250 504q-10 10 -19 10z" />
<glyph unicode="x" horiz-adv-x="835" d="M647 29l-229 290l-230 -290q-19 -29 -55 -29q-27 0 -46 18.5t-19 47.5q0 17 10 34l248 308l-248 311q-10 17 -10 35q0 29 18 47t45 18q36 0 55 -28l232 -287l231 287q19 28 56 28q27 0 45 -18t18 -47q0 -18 -10 -35l-248 -311l248 -308q10 -17 10 -34q0 -29 -19.5 -47.5 t-46.5 -18.5q-36 0 -55 29z" />
<glyph unicode="y" horiz-adv-x="1019" d="M737 -29v127q-32 -38 -69.5 -62.5t-76.5 -33t-60 -10.5t-52 -2q-98 0 -166.5 28t-107 82t-55.5 123.5t-17 163.5v367q0 29 17.5 47t46.5 18t47 -18t18 -47v-377q0 -52 4 -87.5t18 -72t40 -58t71 -35t109 -13.5q118 0 175.5 80.5t57.5 205.5v357q0 29 17.5 47t46.5 18 t47 -18t18 -47v-797q0 -83 -23 -147.5t-60 -103.5t-89 -64t-103.5 -34t-109.5 -9q-189 0 -291 55q-26 14 -26 47q0 25 16 41t39 16q13 0 17 -2q95 -37 219 -37q84 0 140 16.5t86.5 50.5t43 78t12.5 107z" />
<glyph unicode="z" horiz-adv-x="845" d="M690 0h-573q-10 0 -17.5 9.5t-7.5 21.5q0 10 2 14l443 645h-381q-29 0 -46.5 17.5t-17.5 46.5t17.5 47t46.5 18h571q10 0 17.5 -9.5t7.5 -21.5q0 -10 -2 -14l-441 -645h381q29 0 46.5 -18.5t17.5 -47.5t-17.5 -46t-46.5 -17z" />
<glyph unicode="{" horiz-adv-x="866" d="M219 623q53 0 91 49.5t38 107.5v353q0 133 26 207.5t76.5 103.5t139.5 29h59q26 0 45 -19t19 -45t-19 -44.5t-45 -18.5h-69q-68 0 -85.5 -39t-17.5 -177v-325q0 -130 -108 -248q108 -118 108 -250v-315q0 -138 17.5 -176.5t85.5 -38.5h69q26 0 45 -19t19 -45t-19 -44.5 t-45 -18.5h-59q-89 0 -139.5 29t-76.5 103.5t-26 207.5v344q0 57 -38 107.5t-91 50.5q-29 0 -47 18t-18 47t18 47.5t47 18.5z" />
<glyph unicode="|" d="M154 -285v1682q0 29 17 47t46 18t47.5 -18t18.5 -47v-1682q0 -29 -18.5 -47t-47.5 -18t-46 18t-17 47z" />
<glyph unicode="}" horiz-adv-x="866" d="M647 623q29 0 47.5 -18.5t18.5 -47.5t-18.5 -47t-47.5 -18q-53 0 -91 -50.5t-38 -107.5v-344q0 -133 -26 -207.5t-76.5 -103.5t-139.5 -29h-59q-26 0 -44.5 18.5t-18.5 44.5t18.5 45t44.5 19h70q68 0 85 38.5t17 176.5v315q0 131 109 250q-109 119 -109 248v325 q0 138 -17.5 177t-84.5 39h-70q-26 0 -44.5 18.5t-18.5 44.5t18.5 45t44.5 19h59q89 0 139.5 -29t76.5 -103.5t26 -207.5v-353q0 -58 38 -107.5t91 -49.5z" />
<glyph unicode="~" horiz-adv-x="911" d="M569 276q-44 0 -117 35t-110 35q-54 0 -100 -27q-17 -10 -33 -10q-23 0 -39 16.5t-16 39.5q0 31 20 45q85 65 168 65q45 0 78.5 -11t49.5 -23.5t41.5 -23.5t57.5 -11q56 0 101 26q17 10 32 10q23 0 39.5 -16t16.5 -39q0 -30 -21 -45q-86 -66 -168 -66z" />
<glyph unicode="&#xa1;" horiz-adv-x="466" d="M276 842l21 -785q0 -29 -19.5 -48t-48.5 -19t-47 19t-18 48l18 785q0 45 45 45q23 0 36 -12t13 -33zM154 1083q0 35 22 57.5t57 22.5t57.5 -22.5t22.5 -57.5t-22.5 -57t-57.5 -22t-57 22t-22 57z" />
<glyph unicode="&#xa2;" horiz-adv-x="1333" d="M637 -113v113q-209 40 -346 204t-137 380q0 215 137 379t346 204v115q0 30 17 48t46 18t47.5 -18.5t18.5 -47.5v-104q194 -9 340 -113q27 -27 27 -51q0 -25 -18.5 -42.5t-43.5 -17.5q-21 0 -37 13q-117 82 -286 82q-193 0 -329 -137.5t-136 -331.5t136 -331.5t329 -137.5 q196 0 339 114q16 13 35 13q25 0 41.5 -16.5t16.5 -41.5q0 -19 -15 -37q-143 -143 -399 -153v-103q0 -29 -18.5 -47t-47.5 -18t-46 18t-17 47z" />
<glyph unicode="&#xa3;" horiz-adv-x="1236" d="M979 1126q31 -16 31 -51q0 -24 -17 -40.5t-41 -16.5q-4 0 -20 4q-90 35 -213 35q-161 0 -222 -62t-61 -190v-205h252q27 0 46.5 -18.5t19.5 -46.5t-19.5 -46t-46.5 -18h-252v-342h582q27 0 46 -18.5t19 -47.5q0 -28 -19 -45.5t-46 -17.5h-776q-30 0 -51 20t-21 50 q0 50 47 67q36 14 61 45.5t29 69.5v219h-88q-27 0 -46 18t-19 46q0 29 19 47t46 18h88v219q0 83 23 147.5t60 104t89 64t103.5 34t109.5 9.5q186 0 287 -52z" />
<glyph unicode="&#xa4;" horiz-adv-x="958" d="M479 264q79 0 139 58t60 139t-60 138.5t-139 57.5t-138.5 -57.5t-59.5 -138.5t59.5 -139t138.5 -58zM479 168q-105 0 -182 65l-68 -59q-15 -12 -30 -12q-19 0 -32 13t-13 32t14 33l68 61q-48 73 -48 158q0 96 58 172l-78 69q-14 14 -14 33t13 32t32 13q15 0 30 -12 l80 -72q77 56 170 56t170 -56l80 72q15 12 31 12q19 0 32 -13t13 -32t-14 -33l-78 -69q57 -75 57 -172q0 -87 -47 -158l68 -61q14 -14 14 -33t-13 -32t-32 -13q-16 0 -31 12l-67 59q-78 -65 -183 -65z" />
<glyph unicode="&#xa5;" horiz-adv-x="1302" d="M918 182h-201v-116q0 -29 -18.5 -47.5t-47.5 -18.5t-46 18t-17 48v116h-203q-29 0 -46 17.5t-17 46.5t17 47t46 18h203v140h-203q-29 0 -46 17t-17 46q0 30 17 48t46 18h113l-334 485q-10 17 -10 35q0 29 17 46t46 17q34 0 53 -28l381 -555l381 555q19 28 53 28 q29 0 46.5 -17t17.5 -46q0 -18 -10 -35l-334 -485h113q29 0 46 -18t17 -48q0 -29 -17 -46t-46 -17h-201v-140h201q29 0 46 -18t17 -47t-17 -46.5t-46 -17.5z" />
<glyph unicode="&#xa6;" d="M154 907v490q0 29 17 47t46 18t47.5 -18t18.5 -47v-490q0 -29 -18.5 -47t-47.5 -18t-46 18t-17 47zM154 -285v490q0 29 17 47t46 18t47.5 -18t18.5 -47v-490q0 -29 -18.5 -47t-47.5 -18t-46 18t-17 47z" />
<glyph unicode="&#xa7;" horiz-adv-x="1212" d="M283 535q0 -39 50.5 -70t141.5 -62q4 -1 25.5 -8.5t28.5 -10t28 -9t31.5 -9t30 -7t33.5 -6.5t32 -3.5t35 -1.5q211 0 211 90q0 46 -52 85t-128 61.5t-149.5 34.5t-127.5 12q-79 0 -122.5 -13.5t-55.5 -32.5t-12 -50zM754 938q-115 0 -153 -24t-38 -72q0 -27 27.5 -51 t71 -43.5t96.5 -39t106 -43t96.5 -51t71 -67t27.5 -86.5q0 -58 -26 -103.5t-70.5 -72.5t-96 -41.5t-108.5 -16.5q20 -36 20 -73q0 -51 -20.5 -92.5t-53.5 -67t-77.5 -43t-90 -24.5t-94.5 -7q-126 0 -252 55q-34 15 -34 52q0 25 17 42t40 17q2 0 18 -4q134 -41 207 -41 q211 0 211 90q0 37 -27.5 65t-71 46.5t-96 36t-105.5 39t-96.5 49t-71 73.5t-27.5 105q0 107 78 161t223 54q-21 34 -21 92q0 107 77 161t220 54q117 0 207 -20q21 -5 35 -22t14 -40t-18 -41t-43 -18q-82 12 -172 12z" />
<glyph unicode="&#xa8;" horiz-adv-x="768" d="M154 1083q0 35 22 57.5t57 22.5t57.5 -22.5t22.5 -57.5t-22.5 -57t-57.5 -22t-57 22t-22 57zM455 1083q0 35 22.5 57.5t57.5 22.5t57 -22.5t22 -57.5t-22 -57t-57 -22t-57.5 22t-22.5 57z" />
<glyph unicode="&#xa9;" horiz-adv-x="1480" d="M739 1163q160 0 295.5 -78.5t214 -214t78.5 -295.5q0 -159 -78.5 -293.5t-214 -213t-295.5 -78.5q-158 0 -293 78.5t-213.5 213.5t-78.5 293q0 160 78.5 295.5t213 214t293.5 78.5zM739 72q131 0 249.5 71t189.5 188t71 247q0 131 -71 249t-189.5 189t-249.5 71 q-97 0 -190 -42t-162 -111.5t-111.5 -163.5t-42.5 -192q0 -129 71 -246.5t188.5 -188.5t246.5 -71zM946 276q-88 -51 -198 -51q-142 0 -240 102.5t-98 247.5q0 141 98.5 242t239.5 101q107 0 198 -60q27 -19 27 -43q0 -20 -15.5 -35.5t-35.5 -15.5q-19 0 -37 12 q-58 31 -137 31q-89 0 -157.5 -67t-68.5 -167q0 -102 67.5 -175.5t155.5 -73.5q79 0 152 28q9 6 25 6q45 0 45 -45q0 -22 -21 -37z" />
<glyph unicode="&#xaa;" horiz-adv-x="819" d="M414 643q12 0 35 2t58.5 10.5t47.5 22.5v115q-10 17 -49.5 27.5t-87.5 10.5q-33 0 -57 -3.5t-48 -13t-36.5 -29.5t-12.5 -50q0 -92 150 -92zM573 582l-4 20q-57 -63 -178 -63q-24 0 -50.5 4t-61 17.5t-61.5 34.5t-45.5 59.5t-18.5 88.5q0 97 57.5 145t157.5 48 q48 0 106 -8.5t80 -24.5q0 68 -40.5 112t-131.5 44q-75 0 -125 -15q-16 -4 -18 -4q-20 0 -33.5 13.5t-13.5 33.5q0 41 30 50q69 26 172 26q142 0 206.5 -79.5t64.5 -217.5v-274q0 -20 -13.5 -32.5t-34.5 -12.5q-39 0 -45 35z" />
<glyph unicode="&#xab;" horiz-adv-x="1087" d="M303 39l-135 315q-14 28 -14 54q0 25 14 53l135 315q17 39 57 39q29 0 47.5 -18t18.5 -47q0 -15 -2 -17l-139 -325l139 -326q2 -2 2 -16q0 -29 -18.5 -47.5t-47.5 -18.5q-40 0 -57 39zM811 39l-135 315q-14 28 -14 54q0 25 14 53l135 315q17 39 57 39q29 0 47.5 -18 t18.5 -47q0 -15 -2 -17l-139 -325l139 -326q2 -2 2 -16q0 -29 -18.5 -47.5t-47.5 -18.5q-40 0 -57 39z" />
<glyph unicode="&#xac;" horiz-adv-x="903" d="M686 461q29 0 46.5 -18.5t17.5 -47.5v-237q0 -29 -18.5 -47.5t-47.5 -18.5t-46 18t-17 48v174h-404q-29 0 -46 17t-17 46q0 30 17 48t46 18h469z" />
<glyph unicode="&#xad;" horiz-adv-x="405" />
<glyph unicode="&#xae;" horiz-adv-x="1480" d="M739 1163q160 0 295.5 -78.5t214 -214t78.5 -295.5q0 -159 -78.5 -293.5t-214 -213t-295.5 -78.5q-158 0 -293 78.5t-213.5 213.5t-78.5 293q0 160 78.5 295.5t213 214t293.5 78.5zM739 72q131 0 249.5 71t189.5 188t71 247q0 131 -71 249t-189.5 189t-249.5 71 q-97 0 -190 -42t-162 -111.5t-111.5 -163.5t-42.5 -192q0 -129 71 -246.5t188.5 -188.5t246.5 -71zM606 551h193q47 0 73.5 41t26.5 88q0 50 -30 86.5t-101 36.5h-162v-252zM881 270l-109 183h-166v-156q0 -23 -17 -39t-40 -16t-39 16t-16 39v561q0 23 16 39t39 16h192 q77 0 132 -20t84 -56t42 -76.5t13 -90.5q0 -68 -34 -122t-89 -79l86 -145q8 -8 8 -29q0 -23 -16 -38t-39 -15q-31 0 -47 28z" />
<glyph unicode="&#xaf;" horiz-adv-x="946" d="M729 1034h-512q-29 0 -46 17.5t-17 46.5t17 47t46 18h512q29 0 46.5 -18t17.5 -47t-17.5 -46.5t-46.5 -17.5z" />
<glyph unicode="&#xb0;" horiz-adv-x="860" d="M430 713q70 0 120 49.5t50 128.5t-49.5 124.5t-120.5 45.5t-120.5 -45.5t-49.5 -124.5t50 -128.5t120 -49.5zM430 610q-114 0 -195 83.5t-81 197.5q0 113 80.5 192.5t195.5 79.5t196 -79.5t81 -192.5q0 -114 -81.5 -197.5t-195.5 -83.5z" />
<glyph unicode="&#xb1;" horiz-adv-x="903" d="M387 328v178h-170q-29 0 -46 17t-17 46q0 30 17 48t46 18h170v184q0 29 17.5 47.5t46.5 18.5t47 -18.5t18 -47.5v-184h170q29 0 46.5 -18.5t17.5 -47.5t-17.5 -46t-46.5 -17h-170v-178q0 -29 -18 -47.5t-47 -18.5t-46.5 18.5t-17.5 47.5zM217 129h469q29 0 46.5 -18.5 t17.5 -47.5t-17.5 -46t-46.5 -17h-469q-29 0 -46 17t-17 46q0 30 17 48t46 18z" />
<glyph unicode="&#xb2;" horiz-adv-x="753" d="M547 549h-340q-23 0 -38 14t-15 37v31q0 36 33 79t80 82t94.5 75.5t80.5 70t33 55.5q0 37 -30 51.5t-93 14.5q-62 0 -129 -27q-6 -2 -18 -2q-20 0 -34.5 14.5t-14.5 34.5q0 16 12 31t27 20q85 33 159 33q119 0 175.5 -41.5t56.5 -132.5q0 -46 -34.5 -91.5t-78.5 -78.5 t-98 -79.5t-82 -86.5h254q23 0 38 -15t15 -38t-15 -37t-38 -14z" />
<glyph unicode="&#xb3;" horiz-adv-x="743" d="M233 672q73 -29 121 -29q26 0 45 4t39 14.5t30.5 34t10.5 58.5q0 32 -22 51.5t-48.5 25t-58.5 5.5h-8q-11 0 -19 8t-8 18q0 1 0.5 2t1.5 3.5t2 4.5l95 187h-209q-20 0 -35.5 15.5t-15.5 35.5q0 23 15 38t36 15h354q23 0 23 -22l-101 -199q56 -16 82.5 -70.5t26.5 -119.5 q0 -97 -60 -155t-178 -58q-39 0 -88 12.5t-82 34.5q-20 14 -20 41q0 49 49 49q6 0 22 -4z" />
<glyph unicode="&#xb4;" horiz-adv-x="518" d="M358 1077l-94 -153q-24 -39 -57 -39q-24 0 -38.5 15.5t-14.5 41.5q0 13 2 19l71 151q13 28 29 39.5t49 11.5q28 0 44 -18t16 -45q0 -12 -7 -23z" />
<glyph unicode="&#xb5;" horiz-adv-x="1019" d="M133 -285v1039q0 29 17.5 47t46.5 18t47 -18t18 -47v-412q0 -55 9.5 -94t35 -71.5t74.5 -49t123 -16.5q118 0 175.5 80.5t57.5 205.5v357q0 29 17.5 47t46.5 18t47 -18t18 -47v-697q0 -25 -16 -41t-41 -16t-41 16t-16 41l-4 54q-34 -42 -73 -68.5t-78.5 -37t-63 -13 t-54.5 -2.5q-138 0 -217 55v-330q0 -29 -18 -47t-47 -18t-46.5 18t-17.5 47z" />
<glyph unicode="&#xb6;" horiz-adv-x="1206" d="M522 -285v682q-160 20 -264 128.5t-104 254.5q0 94 45 182.5t124.5 144.5t170.5 56h493q29 0 47.5 -18t18.5 -47v-1383q0 -29 -18.5 -47t-47.5 -18t-46 18t-17 47v1319h-273v-1319q0 -29 -18 -47t-47 -18t-46.5 18t-17.5 47z" />
<glyph unicode="&#xb7;" horiz-adv-x="507" d="M154 385q0 41 28.5 70.5t69.5 29.5q43 0 72.5 -29.5t29.5 -70.5t-29.5 -70.5t-72.5 -29.5q-41 0 -69.5 29.5t-28.5 70.5z" />
<glyph unicode="&#xb8;" horiz-adv-x="659" d="M209 -244q21 -12 61.5 -23.5t67.5 -11.5q28 0 52 10t24 36q0 9 -4 17t-12.5 15.5t-17 14t-24 15t-27.5 14.5t-32 15.5t-33 16.5l17 117h84l-9 -66q77 -44 113.5 -79t36.5 -78q0 -61 -54.5 -90t-123.5 -29q-88 0 -158 43q-16 10 -16 31q0 36 36 36q3 0 19 -4z" />
<glyph unicode="&#xb9;" horiz-adv-x="595" d="M442 1141v-555q0 -23 -16 -39.5t-39 -16.5t-39 16.5t-16 39.5v407q-51 -29 -131 -41q-19 0 -33 14t-14 31q0 41 36 50q27 9 55.5 21t55.5 26.5t46 25t43 25.5t30 18q22 0 22 -22z" />
<glyph unicode="&#xba;" horiz-adv-x="860" d="M430 713q70 0 120 49.5t50 128.5t-49.5 124.5t-120.5 45.5t-120.5 -45.5t-49.5 -124.5t50 -128.5t120 -49.5zM430 610q-114 0 -195 83.5t-81 197.5q0 113 80.5 192.5t195.5 79.5t196 -79.5t81 -192.5q0 -114 -81.5 -197.5t-195.5 -83.5z" />
<glyph unicode="&#xbb;" horiz-adv-x="1087" d="M920 354l-136 -315q-17 -39 -57 -39q-29 0 -47 18.5t-18 47.5q0 14 2 16l139 326l-139 325q-2 2 -2 17q0 29 18 47t47 18q40 0 57 -39l136 -315q14 -28 14 -53q0 -26 -14 -54zM412 354l-136 -315q-17 -39 -57 -39q-29 0 -47 18.5t-18 47.5q0 14 2 16l139 326l-139 325 q-2 2 -2 17q0 29 18 47t47 18q40 0 57 -39l136 -315q14 -28 14 -53q0 -26 -14 -54z" />
<glyph unicode="&#xbc;" horiz-adv-x="1437" d="M901 1087l-401 -1054q-14 -33 -49 -33q-23 0 -40.5 17t-17.5 40q0 15 2 19q73 195 211.5 556.5t190.5 497.5q14 33 49 33q23 0 40 -17t17 -40q0 -15 -2 -19zM442 1141v-555q0 -23 -16 -39.5t-39 -16.5t-39 16.5t-16 39.5v407q-51 -29 -131 -41q-19 0 -33 14t-14 31 q0 41 36 50q27 9 55.5 21t55.5 26.5t46 25t43 25.5t30 18q22 0 22 -22zM1030 233v265l-164 -265h164zM1030 129h-246q-23 0 -38 14t-15 37v35q0 6 5 20.5t9 20.5l195 309q34 49 92 49q44 0 76.5 -32t32.5 -76v-273h14q23 0 38 -15t15 -38t-15 -37t-38 -14h-14v-74 q0 -23 -16.5 -39t-39.5 -16t-39 16t-16 39v74z" />
<glyph unicode="&#xbd;" horiz-adv-x="1419" d="M901 1087l-401 -1054q-14 -33 -49 -33q-23 0 -40.5 17t-17.5 40q0 15 2 19q73 195 211.5 556.5t190.5 497.5q14 33 49 33q23 0 40 -17t17 -40q0 -15 -2 -19zM442 1141v-555q0 -23 -16 -39.5t-39 -16.5t-39 16.5t-16 39.5v407q-51 -29 -131 -41q-19 0 -33 14t-14 31 q0 41 36 50q27 9 55.5 21t55.5 26.5t46 25t43 25.5t30 18q22 0 22 -22zM1212 0h-340q-23 0 -38 14t-15 37v31q0 44 50.5 100t110.5 99.5t110.5 89.5t50.5 73q0 37 -30 51.5t-93 14.5q-62 0 -129 -27q-6 -2 -19 -2q-20 0 -34.5 14.5t-14.5 34.5q0 16 12.5 31.5t26.5 20.5 q82 32 160 32q118 0 174.5 -41.5t56.5 -132.5q0 -46 -34.5 -91.5t-78.5 -78.5t-98 -79.5t-82 -86.5h254q23 0 38.5 -15t15.5 -38t-15 -37t-39 -14z" />
<glyph unicode="&#xbe;" horiz-adv-x="1501" d="M1169 233v265l-163 -265h163zM233 672q73 -29 121 -29q26 0 45 4t39 14.5t30.5 34t10.5 58.5q0 32 -22 51.5t-48.5 25t-58.5 5.5h-8q-11 0 -19 8t-8 18q0 1 0.5 2t1.5 3.5t2 4.5l95 187h-209q-20 0 -35.5 15.5t-15.5 35.5q0 23 15 38t36 15h354q23 0 23 -22l-101 -199 q56 -16 82.5 -70.5t26.5 -119.5q0 -97 -60 -155t-178 -58q-39 0 -88 12.5t-82 34.5q-20 14 -20 41q0 49 49 49q6 0 22 -4zM1016 1087l-402 -1054q-14 -33 -49 -33q-23 0 -40 17t-17 40q0 15 2 19q74 198 214 564.5t187 489.5q14 33 50 33q23 0 40 -17t17 -40q0 -15 -2 -19z M1169 129h-245q-24 0 -39 14t-15 37v35q0 6 5.5 20.5t9.5 20.5l194 309q34 49 92 49q44 0 76.5 -32t32.5 -76v-273h14q23 0 38.5 -15t15.5 -38t-15 -37t-39 -14h-14v-74q0 -23 -16 -39t-39 -16t-39.5 16t-16.5 39v74z" />
<glyph unicode="&#xbf;" horiz-adv-x="927" d="M565 1098q0 -35 -22.5 -57.5t-57.5 -22.5t-57 22.5t-22 57.5t22 57.5t57 22.5t57.5 -22.5t22.5 -57.5zM739 37q-111 -47 -243 -47q-70 0 -130 16t-108.5 48t-76 87t-27.5 127q0 61 28 121t68 108.5t80 95.5t68 100.5t28 105.5v51q0 29 18 46t48 17q29 0 46 -17t17 -46 v-55q0 -53 -15 -99.5t-39 -82t-53 -68.5t-58 -64.5t-53 -63.5t-39 -72.5t-15 -84.5q0 -76 47.5 -108.5t171.5 -32.5q99 0 192 26q20 5 23 5q25 0 41 -16.5t16 -41.5q0 -40 -35 -55z" />
<glyph unicode="&#xc0;" horiz-adv-x="1187" d="M594 1174q28 0 37 -25l499 -1057q7 -14 7 -26q0 -29 -18.5 -47.5t-45.5 -18.5q-42 0 -57 35l-111 231h-622l-111 -231q-18 -35 -57 -35q-27 0 -45.5 18.5t-18.5 47.5q0 14 6 26l500 1057q9 25 37 25zM594 922l-250 -527h500zM516 1348l-94 153q-6 9 -6 23q0 27 15.5 45 t43.5 18q33 0 49 -11.5t29 -39.5l72 -152q2 -6 2 -18q0 -26 -15 -41.5t-39 -15.5q-33 0 -57 39z" />
<glyph unicode="&#xc1;" horiz-adv-x="1187" d="M594 1174q28 0 37 -25l499 -1057q7 -14 7 -26q0 -29 -18.5 -47.5t-45.5 -18.5q-42 0 -57 35l-111 231h-622l-111 -231q-18 -35 -57 -35q-27 0 -45.5 18.5t-18.5 47.5q0 14 6 26l500 1057q9 25 37 25zM594 922l-250 -527h500zM768 1501l-94 -153q-24 -39 -58 -39 q-24 0 -38.5 15.5t-14.5 41.5q0 12 2 18l72 152q13 28 29 39.5t49 11.5q28 0 43.5 -18t15.5 -45q0 -14 -6 -23z" />
<glyph unicode="&#xc2;" horiz-adv-x="1187" d="M594 1174q28 0 37 -25l499 -1057q7 -14 7 -26q0 -29 -18.5 -47.5t-45.5 -18.5q-42 0 -57 35l-111 231h-622l-111 -231q-18 -35 -57 -35q-27 0 -45.5 18.5t-18.5 47.5q0 14 6 26l500 1057q9 25 37 25zM594 922l-250 -527h500zM616 1554h-32q-11 0 -23 -12l-160 -139 q-20 -14 -20 -43q0 -20 14.5 -34.5t34.5 -14.5q23 0 39 16l131 123l131 -123q16 -16 39 -16q20 0 34.5 14.5t14.5 34.5q0 29 -20 43l-160 139q-12 12 -23 12z" />
<glyph unicode="&#xc3;" horiz-adv-x="1187" d="M594 1174q28 0 37 -25l499 -1057q7 -14 7 -26q0 -29 -18.5 -47.5t-45.5 -18.5q-42 0 -57 35l-111 231h-622l-111 -231q-18 -35 -57 -35q-27 0 -45.5 18.5t-18.5 47.5q0 14 6 26l500 1057q9 25 37 25zM594 922l-250 -527h500zM715 1309q-44 0 -117.5 34.5t-110.5 34.5 q-55 0 -100 -26q-18 -11 -33 -11q-23 0 -39 16.5t-16 39.5q0 31 20 45q85 65 168 65q45 0 78.5 -11t50 -23.5t42 -23.5t57.5 -11q55 0 100 26q18 11 33 11q23 0 39 -16.5t16 -39.5q0 -31 -20 -45q-85 -65 -168 -65z" />
<glyph unicode="&#xc4;" horiz-adv-x="1187" d="M367 1389q0 35 22 57t57 22t57.5 -22t22.5 -57t-22.5 -57.5t-57.5 -22.5t-57 22.5t-22 57.5zM668 1389q0 35 22.5 57t57.5 22t57 -22t22 -57t-22 -57.5t-57 -22.5t-57.5 22.5t-22.5 57.5zM594 1174q28 0 37 -25l499 -1057q7 -14 7 -26q0 -29 -18.5 -47.5t-45.5 -18.5 q-42 0 -57 35l-111 231h-622l-111 -231q-18 -35 -57 -35q-27 0 -45.5 18.5t-18.5 47.5q0 14 6 26l500 1057q9 25 37 25zM594 922l-250 -527h500z" />
<glyph unicode="&#xc5;" horiz-adv-x="1187" d="M596 1702q83 0 141 -58.5t58 -140.5q0 -80 -58 -137t-141 -57q-80 0 -137.5 57.5t-57.5 136.5q0 82 57.5 140.5t137.5 58.5zM600 1411q33 0 57.5 26t24.5 66q0 39 -24 61.5t-58 22.5t-59 -22.5t-25 -61.5q0 -40 25 -66t59 -26zM594 1174q28 0 37 -25l499 -1057 q7 -14 7 -26q0 -29 -18.5 -47.5t-45.5 -18.5q-42 0 -57 35l-111 231h-622l-111 -231q-18 -35 -57 -35q-27 0 -45.5 18.5t-18.5 47.5q0 14 6 26l500 1057q9 25 37 25zM594 922l-250 -527h500z" />
<glyph unicode="&#xc6;" horiz-adv-x="1810" d="M1040 129h582q27 0 46.5 -18.5t19.5 -47.5q0 -28 -19.5 -45.5t-46.5 -17.5h-647q-29 0 -46.5 18.5t-17.5 47.5v204h-567l-188 -243q-21 -27 -54 -27q-25 0 -43 18t-18 43q0 22 12 37l766 1012q47 53 111 53h692q27 0 46.5 -17.5t19.5 -45.5q0 -29 -19.5 -47.5 t-46.5 -18.5h-580v-405h451q27 0 46.5 -18t19.5 -46t-19.5 -46.5t-46.5 -18.5h-453v-371zM911 399v615l-473 -615h473z" />
<glyph unicode="&#xc7;" horiz-adv-x="1210" d="M582 -244q21 -12 61.5 -23.5t67.5 -11.5q75 0 75 46q0 9 -3.5 17t-12 15.5t-17.5 14t-24.5 15t-27 14t-31.5 15.5t-33 17l16 117q-152 11 -278.5 92.5t-199.5 213.5t-73 286q0 161 79.5 298t216.5 216.5t298 79.5q202 0 359 -113q26 -26 26 -51t-18 -42.5t-43 -17.5 q-21 0 -37 13q-117 82 -287 82q-193 0 -329 -137.5t-136 -331.5t136 -331.5t329 -137.5q197 0 340 114q16 13 35 13q25 0 41 -16.5t16 -41.5q0 -20 -14 -37q-138 -141 -379 -151l-6 -66q77 -44 113.5 -79t36.5 -78q0 -61 -55 -90t-124 -29q-87 0 -157 43q-17 10 -17 31 q0 36 37 36q3 0 19 -4z" />
<glyph unicode="&#xc8;" horiz-adv-x="1052" d="M285 629h450q27 0 46.5 -18t19.5 -46t-19.5 -46.5t-46.5 -18.5h-452v-371h581q27 0 46.5 -18.5t19.5 -47.5q0 -28 -19.5 -45.5t-46.5 -17.5h-647q-29 0 -46 18t-17 48v1032q0 29 17 47t46 18h647q27 0 46.5 -17.5t19.5 -45.5q0 -29 -19.5 -47.5t-46.5 -18.5h-579v-405z M461 1348l-94 153q-7 11 -7 23q0 27 16 45t44 18q33 0 49 -11.5t29 -39.5l71 -152q2 -6 2 -18q0 -26 -14.5 -41.5t-38.5 -15.5q-33 0 -57 39z" />
<glyph unicode="&#xc9;" horiz-adv-x="1052" d="M285 629h450q27 0 46.5 -18t19.5 -46t-19.5 -46.5t-46.5 -18.5h-452v-371h581q27 0 46.5 -18.5t19.5 -47.5q0 -28 -19.5 -45.5t-46.5 -17.5h-647q-29 0 -46 18t-17 48v1032q0 29 17 47t46 18h647q27 0 46.5 -17.5t19.5 -45.5q0 -29 -19.5 -47.5t-46.5 -18.5h-579v-405z M719 1501l-94 -153q-24 -39 -58 -39q-24 0 -38.5 15.5t-14.5 41.5q0 12 2 18l72 152q13 28 29 39.5t49 11.5q28 0 43.5 -18t15.5 -45q0 -14 -6 -23z" />
<glyph unicode="&#xca;" horiz-adv-x="1052" d="M285 629h450q27 0 46.5 -18t19.5 -46t-19.5 -46.5t-46.5 -18.5h-452v-371h581q27 0 46.5 -18.5t19.5 -47.5q0 -28 -19.5 -45.5t-46.5 -17.5h-647q-29 0 -46 18t-17 48v1032q0 29 17 47t46 18h647q27 0 46.5 -17.5t19.5 -45.5q0 -29 -19.5 -47.5t-46.5 -18.5h-579v-405z M559 1554h-33q-10 0 -22 -12l-160 -139q-20 -14 -20 -43q0 -20 14.5 -34.5t34.5 -14.5q23 0 39 16l131 123l131 -123q16 -16 39 -16q20 0 34.5 14.5t14.5 34.5q0 28 -21 43l-159 139q-12 12 -23 12z" />
<glyph unicode="&#xcb;" horiz-adv-x="1052" d="M303 1389q0 35 22.5 57t57.5 22t57.5 -22t22.5 -57t-22.5 -57.5t-57.5 -22.5t-57.5 22.5t-22.5 57.5zM604 1389q0 35 22.5 57t57.5 22t57.5 -22t22.5 -57t-22.5 -57.5t-57.5 -22.5t-57.5 22.5t-22.5 57.5zM285 629h450q27 0 46.5 -18t19.5 -46t-19.5 -46.5t-46.5 -18.5 h-452v-371h581q27 0 46.5 -18.5t19.5 -47.5q0 -28 -19.5 -45.5t-46.5 -17.5h-647q-29 0 -46 18t-17 48v1032q0 29 17 47t46 18h647q27 0 46.5 -17.5t19.5 -45.5q0 -29 -19.5 -47.5t-46.5 -18.5h-579v-405z" />
<glyph unicode="&#xcc;" d="M154 66v1032q0 29 17 47t46 18t47.5 -18t18.5 -47v-1032q0 -29 -18.5 -47.5t-47.5 -18.5t-46 18t-17 48zM141 1348l-94 153q-6 9 -6 23q0 27 15.5 45t43.5 18q33 0 49 -11.5t29 -39.5l72 -152q2 -6 2 -18q0 -26 -14.5 -41.5t-38.5 -15.5q-34 0 -58 39z" />
<glyph unicode="&#xcd;" d="M154 66v1032q0 29 17 47t46 18t47.5 -18t18.5 -47v-1032q0 -29 -18.5 -47.5t-47.5 -18.5t-46 18t-17 48zM387 1501l-94 -153q-24 -39 -57 -39q-24 0 -39 15.5t-15 41.5q0 12 2 18l72 152q13 28 29 39.5t49 11.5q28 0 43.5 -18t15.5 -45q0 -14 -6 -23z" />
<glyph unicode="&#xce;" d="M154 66v1032q0 29 17 47t46 18t47.5 -18t18.5 -47v-1032q0 -29 -18.5 -47.5t-47.5 -18.5t-46 18t-17 48zM236 1554h-33q-11 0 -23 -12l-160 -139q-20 -14 -20 -43q0 -20 14.5 -34.5t34.5 -14.5q23 0 39 16l131 123l131 -123q16 -16 39 -16q20 0 34.5 14.5t14.5 34.5 q0 29 -20 43l-160 139q-12 12 -22 12z" />
<glyph unicode="&#xcf;" d="M31 1389q0 35 22.5 57t57.5 22t57 -22t22 -57t-22 -57.5t-57 -22.5t-57.5 22.5t-22.5 57.5zM248 1389q0 35 22.5 57t57.5 22t57.5 -22t22.5 -57t-22.5 -57.5t-57.5 -22.5t-57.5 22.5t-22.5 57.5zM154 66v1032q0 29 17 47t46 18t47.5 -18t18.5 -47v-1032 q0 -29 -18.5 -47.5t-47.5 -18.5t-46 18t-17 48z" />
<glyph unicode="&#xd0;" horiz-adv-x="1267" d="M637 0h-336q-29 0 -46 18t-17 48v438h-134q-29 0 -46 17t-17 46q0 30 17 48t46 18h134v465q0 29 17 47t46 18h336q161 0 289.5 -77.5t199 -211t70.5 -296.5t-70.5 -294.5t-199 -207.5t-289.5 -76zM573 504h-206v-375h233q208 0 337.5 118.5t129.5 323.5q0 206 -131 334.5 t-336 128.5h-233v-401h206q29 0 46.5 -18.5t17.5 -47.5t-17.5 -46t-46.5 -17z" />
<glyph unicode="&#xd1;" horiz-adv-x="1296" d="M285 1145l729 -584v537q0 29 17 47t46 18t47.5 -18t18.5 -47v-1032q0 -29 -18.5 -47.5t-47.5 -18.5t-46 18t-17 48v346l-731 565v-911q0 -29 -18.5 -47.5t-47.5 -18.5t-46 18t-17 48v1015q0 35 23 58.5t56 23.5q34 0 52 -18zM727 1309q-44 0 -117 34.5t-110 34.5 q-56 0 -101 -26q-18 -11 -32 -11q-23 0 -39.5 16.5t-16.5 39.5q0 30 21 45q85 65 168 65q45 0 78.5 -11t49.5 -23.5t41.5 -23.5t57.5 -11q55 0 100 26q18 11 33 11q23 0 39 -16.5t16 -39.5q0 -31 -20 -45q-85 -65 -168 -65z" />
<glyph unicode="&#xd2;" horiz-adv-x="1392" d="M696 1178q161 0 298 -79.5t216.5 -216.5t79.5 -298t-79.5 -298t-216.5 -216.5t-298 -79.5t-298 79.5t-216.5 216.5t-79.5 298t79.5 298t216.5 216.5t298 79.5zM696 111q126 0 233 63t169.5 171t62.5 235t-62.5 235t-169.5 171t-233 63q-193 0 -329 -137.5t-136 -331.5 t136 -331.5t329 -137.5zM608 1348l-94 153q-6 9 -6 23q0 27 15.5 45t43.5 18q33 0 49 -11.5t29 -39.5l72 -152q2 -6 2 -18q0 -26 -14.5 -41.5t-38.5 -15.5q-34 0 -58 39z" />
<glyph unicode="&#xd3;" horiz-adv-x="1392" d="M696 1178q161 0 298 -79.5t216.5 -216.5t79.5 -298t-79.5 -298t-216.5 -216.5t-298 -79.5t-298 79.5t-216.5 216.5t-79.5 298t79.5 298t216.5 216.5t298 79.5zM696 111q126 0 233 63t169.5 171t62.5 235t-62.5 235t-169.5 171t-233 63q-193 0 -329 -137.5t-136 -331.5 t136 -331.5t329 -137.5zM885 1501l-94 -153q-24 -39 -58 -39q-24 0 -38.5 15.5t-14.5 41.5q0 12 2 18l72 152q13 28 28.5 39.5t48.5 11.5q28 0 44 -18t16 -45q0 -14 -6 -23z" />
<glyph unicode="&#xd4;" horiz-adv-x="1392" d="M696 1178q161 0 298 -79.5t216.5 -216.5t79.5 -298t-79.5 -298t-216.5 -216.5t-298 -79.5t-298 79.5t-216.5 216.5t-79.5 298t79.5 298t216.5 216.5t298 79.5zM696 111q126 0 233 63t169.5 171t62.5 235t-62.5 235t-169.5 171t-233 63q-193 0 -329 -137.5t-136 -331.5 t136 -331.5t329 -137.5zM713 1554h-33q-11 0 -23 -12l-159 -139q-21 -15 -21 -43q0 -20 14.5 -34.5t34.5 -14.5q23 0 39 16l131 123l131 -123q16 -16 39 -16q20 0 34.5 14.5t14.5 34.5q0 29 -20 43l-160 139q-12 12 -22 12z" />
<glyph unicode="&#xd5;" horiz-adv-x="1392" d="M696 1178q161 0 298 -79.5t216.5 -216.5t79.5 -298t-79.5 -298t-216.5 -216.5t-298 -79.5t-298 79.5t-216.5 216.5t-79.5 298t79.5 298t216.5 216.5t298 79.5zM696 111q126 0 233 63t169.5 171t62.5 235t-62.5 235t-169.5 171t-233 63q-193 0 -329 -137.5t-136 -331.5 t136 -331.5t329 -137.5zM807 1309q-44 0 -117 34.5t-110 34.5q-56 0 -101 -26q-18 -11 -33 -11q-23 0 -39 16.5t-16 39.5q0 30 21 45q85 65 168 65q45 0 78.5 -11t49.5 -23.5t41.5 -23.5t57.5 -11q55 0 100 26q18 11 33 11q23 0 39 -16.5t16 -39.5q0 -31 -20 -45 q-85 -65 -168 -65z" />
<glyph unicode="&#xd6;" horiz-adv-x="1392" d="M696 1178q161 0 298 -79.5t216.5 -216.5t79.5 -298t-79.5 -298t-216.5 -216.5t-298 -79.5t-298 79.5t-216.5 216.5t-79.5 298t79.5 298t216.5 216.5t298 79.5zM696 111q126 0 233 63t169.5 171t62.5 235t-62.5 235t-169.5 171t-233 63q-193 0 -329 -137.5t-136 -331.5 t136 -331.5t329 -137.5zM467 1389q0 35 22.5 57t57.5 22t57.5 -22t22.5 -57t-22.5 -57.5t-57.5 -22.5t-57.5 22.5t-22.5 57.5zM768 1389q0 35 22.5 57t57.5 22t57.5 -22t22.5 -57t-22.5 -57.5t-57.5 -22.5t-57.5 22.5t-22.5 57.5z" />
<glyph unicode="&#xd7;" horiz-adv-x="868" d="M602 145l-168 166l-168 -166q-20 -20 -47 -20q-29 0 -47 18t-18 47q0 21 16 43l172 168l-172 170q-16 22 -16 43q0 29 18 47.5t47 18.5q26 0 47 -21l168 -165l168 165q21 21 47 21q29 0 47.5 -18.5t18.5 -47.5q0 -19 -17 -43l-172 -170l172 -168q17 -24 17 -43 q0 -29 -18.5 -47t-47.5 -18q-27 0 -47 20z" />
<glyph unicode="&#xd8;" horiz-adv-x="1392" d="M860 1155l43 111q15 34 45 34q20 0 33.5 -13.5t13.5 -33.5q0 -12 -2 -16l-45 -115q153 -70 247.5 -216.5t94.5 -321.5q0 -161 -79.5 -298t-216.5 -216.5t-298 -79.5q-78 0 -164 22l-40 -110q-15 -35 -46 -35q-20 0 -33.5 13.5t-13.5 33.5q0 12 2 16l45 115 q-154 70 -249 216.5t-95 322.5q0 161 79.5 298t216.5 216.5t298 79.5q74 0 164 -23zM231 580q0 -137 69.5 -248t188.5 -172l326 872q-70 17 -119 17q-193 0 -329 -137.5t-136 -331.5zM696 111q126 0 233 63t169.5 171t62.5 235q0 138 -70.5 249.5t-189.5 169.5l-326 -872 q66 -16 121 -16z" />
<glyph unicode="&#xd9;" horiz-adv-x="1282" d="M639 -10q-238 0 -361.5 128t-123.5 371v609q0 29 17 47t46 18t47.5 -18t18.5 -47v-566q0 -218 82.5 -319.5t275.5 -101.5t275.5 101.5t82.5 319.5v566q0 29 18.5 47t47.5 18t46 -18t17 -47v-609q0 -243 -124.5 -371t-364.5 -128zM547 1348l-94 153q-7 11 -7 23 q0 27 16 45t44 18q33 0 49 -11.5t29 -39.5l71 -152q2 -6 2 -18q0 -26 -14.5 -41.5t-38.5 -15.5q-33 0 -57 39z" />
<glyph unicode="&#xda;" horiz-adv-x="1282" d="M639 -10q-238 0 -361.5 128t-123.5 371v609q0 29 17 47t46 18t47.5 -18t18.5 -47v-566q0 -218 82.5 -319.5t275.5 -101.5t275.5 101.5t82.5 319.5v566q0 29 18.5 47t47.5 18t46 -18t17 -47v-609q0 -243 -124.5 -371t-364.5 -128zM821 1501l-94 -153q-24 -39 -57 -39 q-24 0 -39 15.5t-15 41.5q0 12 2 18l72 152q13 28 29 39.5t49 11.5q28 0 43.5 -18t15.5 -45q0 -14 -6 -23z" />
<glyph unicode="&#xdb;" horiz-adv-x="1282" d="M639 -10q-238 0 -361.5 128t-123.5 371v609q0 29 17 47t46 18t47.5 -18t18.5 -47v-566q0 -218 82.5 -319.5t275.5 -101.5t275.5 101.5t82.5 319.5v566q0 29 18.5 47t47.5 18t46 -18t17 -47v-609q0 -243 -124.5 -371t-364.5 -128zM657 1554h-32q-11 0 -23 -12l-160 -139 q-20 -14 -20 -43q0 -20 14.5 -34.5t34.5 -14.5q23 0 39 16l131 123l131 -123q16 -16 39 -16q20 0 34.5 14.5t14.5 34.5q0 29 -20 43l-160 139q-12 12 -23 12z" />
<glyph unicode="&#xdc;" horiz-adv-x="1282" d="M414 1389q0 35 22.5 57t57.5 22t57 -22t22 -57t-22 -57.5t-57 -22.5t-57.5 22.5t-22.5 57.5zM715 1389q0 35 22.5 57t57.5 22t57 -22t22 -57t-22 -57.5t-57 -22.5t-57.5 22.5t-22.5 57.5zM639 -10q-238 0 -361.5 128t-123.5 371v609q0 29 17 47t46 18t47.5 -18t18.5 -47 v-566q0 -218 82.5 -319.5t275.5 -101.5t275.5 101.5t82.5 319.5v566q0 29 18.5 47t47.5 18t46 -18t17 -47v-609q0 -243 -124.5 -371t-364.5 -128z" />
<glyph unicode="&#xdd;" horiz-adv-x="1097" d="M614 451v-385q0 -29 -18 -47.5t-47 -18.5t-46.5 18.5t-17.5 47.5v383l-424 616q-10 17 -10 35q0 29 17.5 46t46.5 17q34 0 53 -28l381 -555l381 555q19 28 53 28q29 0 46.5 -17t17.5 -46q0 -17 -11 -35zM737 1501l-94 -153q-24 -39 -57 -39q-24 0 -39 15.5t-15 41.5 q0 9 3 18l71 152q13 28 29 39.5t49 11.5q28 0 43.5 -18t15.5 -45q0 -14 -6 -23z" />
<glyph unicode="&#xde;" horiz-adv-x="1054" d="M283 358h376q97 0 156 58.5t59 181.5q0 122 -59.5 181t-155.5 59h-376v-480zM283 1098v-131h401q134 0 227 -103t93 -264q0 -162 -93 -262t-227 -100h-401v-172q0 -29 -18.5 -47.5t-47.5 -18.5t-46 18t-17 48v1032q0 29 17 47t46 18t47.5 -18t18.5 -47z" />
<glyph unicode="&#xdf;" horiz-adv-x="1153" d="M727 520h-90q-29 0 -46.5 17.5t-17.5 46.5t17.5 47t46.5 18h49q98 0 161.5 55t63.5 142q0 90 -63.5 146.5t-161.5 56.5h-184q-95 0 -157 -56.5t-62 -146.5v-780q0 -29 -18.5 -47.5t-47.5 -18.5t-46 18t-17 48v780q0 142 98.5 237t255.5 95h197q139 0 237 -96.5t98 -235.5 q0 -150 -137 -258q70 -57 103.5 -126.5t33.5 -137.5q0 -135 -98.5 -229.5t-236.5 -94.5h-68q-29 0 -46.5 17t-17.5 46t17.5 47.5t46.5 18.5h47q93 0 160 55.5t67 139.5q0 79 -52 137.5t-132 58.5z" />
<glyph unicode="&#xe0;" horiz-adv-x="1067" d="M494 111q122 0 206 82t84 219q0 132 -85 210t-205 78q-123 0 -203 -77.5t-80 -210.5q0 -156 77 -228.5t206 -72.5zM793 700l6 62q0 25 16 41t41 16t41 -16t16 -41v-705q0 -25 -16 -41t-41 -16q-47 0 -57 57l-6 56q-84 -77 -157.5 -100t-160.5 -23q-127 0 -217.5 58 t-133 152.5t-42.5 213.5q0 182 112 298.5t285 116.5q34 0 72.5 -5.5t111.5 -37t130 -86.5zM457 1014l-95 153q-6 9 -6 23q0 27 16 45t44 18q33 0 49 -11.5t29 -39.5l71 -151q2 -6 2 -19q0 -26 -14.5 -41.5t-38.5 -15.5q-33 0 -57 39z" />
<glyph unicode="&#xe1;" horiz-adv-x="1067" d="M494 111q122 0 206 82t84 219q0 132 -85 210t-205 78q-123 0 -203 -77.5t-80 -210.5q0 -156 77 -228.5t206 -72.5zM793 700l6 62q0 25 16 41t41 16t41 -16t16 -41v-705q0 -25 -16 -41t-41 -16q-47 0 -57 57l-6 56q-84 -77 -157.5 -100t-160.5 -23q-127 0 -217.5 58 t-133 152.5t-42.5 213.5q0 182 112 298.5t285 116.5q34 0 72.5 -5.5t111.5 -37t130 -86.5zM680 1167l-94 -153q-24 -39 -58 -39q-24 0 -38.5 15.5t-14.5 41.5q0 13 2 19l72 151q13 28 29 39.5t49 11.5q28 0 43.5 -18t15.5 -45q0 -14 -6 -23z" />
<glyph unicode="&#xe2;" horiz-adv-x="1067" d="M494 111q122 0 206 82t84 219q0 132 -85 210t-205 78q-123 0 -203 -77.5t-80 -210.5q0 -156 77 -228.5t206 -72.5zM793 700l6 62q0 25 16 41t41 16t41 -16t16 -41v-705q0 -25 -16 -41t-41 -16q-47 0 -57 57l-6 56q-84 -77 -157.5 -100t-160.5 -23q-127 0 -217.5 58 t-133 152.5t-42.5 213.5q0 182 112 298.5t285 116.5q34 0 72.5 -5.5t111.5 -37t130 -86.5zM522 1219h-33q-9 0 -22 -13l-160 -139q-20 -14 -20 -43q0 -20 14.5 -34.5t34.5 -14.5q23 0 39 16l131 123l131 -123q16 -16 39 -16q20 0 34.5 14.5t14.5 34.5q0 29 -20 43l-160 139 q-13 13 -23 13z" />
<glyph unicode="&#xe3;" horiz-adv-x="1067" d="M494 111q122 0 206 82t84 219q0 132 -85 210t-205 78q-123 0 -203 -77.5t-80 -210.5q0 -156 77 -228.5t206 -72.5zM793 700l6 62q0 25 16 41t41 16t41 -16t16 -41v-705q0 -25 -16 -41t-41 -16q-47 0 -57 57l-6 56q-84 -77 -157.5 -100t-160.5 -23q-127 0 -217.5 58 t-133 152.5t-42.5 213.5q0 182 112 298.5t285 116.5q34 0 72.5 -5.5t111.5 -37t130 -86.5zM653 975q-44 0 -117 34.5t-110 34.5q-55 0 -100 -26q-17 -10 -33 -10q-23 0 -39 16t-16 39q0 31 20 45q86 66 168 66q45 0 78.5 -11t49.5 -24t41.5 -24t57.5 -11q56 0 101 26 q18 11 32 11q23 0 39.5 -16.5t16.5 -39.5q0 -30 -21 -45q-85 -65 -168 -65z" />
<glyph unicode="&#xe4;" horiz-adv-x="1067" d="M274 1087q0 35 22.5 57.5t57.5 22.5t57.5 -22.5t22.5 -57.5t-22.5 -57t-57.5 -22t-57.5 22t-22.5 57zM582 1087q0 35 22.5 57.5t57.5 22.5t57 -22.5t22 -57.5t-22 -57t-57 -22t-57.5 22t-22.5 57zM494 111q122 0 206 82t84 219q0 132 -85 210t-205 78q-123 0 -203 -77.5 t-80 -210.5q0 -156 77 -228.5t206 -72.5zM793 700l6 62q0 25 16 41t41 16t41 -16t16 -41v-705q0 -25 -16 -41t-41 -16q-47 0 -57 57l-6 56q-84 -77 -157.5 -100t-160.5 -23q-127 0 -217.5 58t-133 152.5t-42.5 213.5q0 182 112 298.5t285 116.5q34 0 72.5 -5.5t111.5 -37 t130 -86.5z" />
<glyph unicode="&#xe5;" horiz-adv-x="1067" d="M512 1401q83 0 141 -58.5t58 -140.5q0 -80 -58 -137t-141 -57q-80 0 -137.5 57.5t-57.5 136.5q0 82 57.5 140.5t137.5 58.5zM516 1110q33 0 57.5 26t24.5 66q0 39 -24 61.5t-58 22.5t-59 -22.5t-25 -61.5q0 -40 25 -66t59 -26zM494 111q122 0 206 82t84 219 q0 132 -85 210t-205 78q-123 0 -203 -77.5t-80 -210.5q0 -156 77 -228.5t206 -72.5zM793 700l6 62q0 25 16 41t41 16t41 -16t16 -41v-705q0 -25 -16 -41t-41 -16q-47 0 -57 57l-6 56q-84 -77 -157.5 -100t-160.5 -23q-127 0 -217.5 58t-133 152.5t-42.5 213.5 q0 182 112 298.5t285 116.5q34 0 72.5 -5.5t111.5 -37t130 -86.5z" />
<glyph unicode="&#xe6;" horiz-adv-x="1515" d="M784 463h516q0 65 -23 113t-62.5 74t-84 38t-94.5 12t-93 -12.5t-79.5 -39t-58 -74t-21.5 -111.5zM430 113q37 0 101.5 22.5t117.5 75.5v61q-34 53 -105 83t-136 30q-106 0 -146.5 -33t-40.5 -106q0 -60 52 -96.5t157 -36.5zM1374 344h-590q0 -58 21.5 -102t52.5 -68 t73.5 -39t77 -19.5t70.5 -4.5q40 0 97 10.5t102 28.5q16 4 22 4q25 0 42.5 -17.5t17.5 -42.5q0 -33 -25 -49q-104 -55 -254 -55q-227 0 -344 143q-22 -40 -63.5 -69.5t-80.5 -43t-86 -21t-66 -8.5t-35 -1q-34 0 -66 3t-80 18.5t-82.5 41t-60 76t-25.5 119.5q0 136 75 201 t204 65q85 0 151.5 -20.5t128.5 -85.5v18q-2 69 -15 118t-34.5 79t-57.5 47.5t-76 23.5t-97 6q-33 0 -115 -16q-2 -2 -14 -2q-25 0 -43.5 18t-18.5 43q0 48 43 62q75 24 176 24q232 0 324 -149q104 149 319 149q100 0 177 -33t123 -91.5t69 -133t23 -161.5q0 -25 -18 -45.5 t-42 -20.5z" />
<glyph unicode="&#xe7;" horiz-adv-x="833" d="M373 -244q21 -12 61.5 -23.5t67.5 -11.5q28 0 52 10t24 36q0 9 -4 17t-12.5 15.5t-17 14t-24 15t-27.5 14.5t-32 15.5t-33 16.5l16 119q-154 20 -258 139t-104 277q0 113 57 209.5t153.5 153t209.5 56.5q130 0 233 -65q27 -15 27 -47q0 -23 -17 -40.5t-40 -17.5 q-13 0 -27 7q-69 34 -176 34q-121 0 -206 -86t-85 -208t85 -208.5t206 -86.5q94 0 170 24q12 6 26 6q23 0 40.5 -17t17.5 -40q0 -32 -27 -47q-67 -35 -201 -47l-8 -64q77 -44 113.5 -79t36.5 -78q0 -61 -54.5 -90t-123.5 -29q-88 0 -158 43q-17 10 -17 31q0 36 37 36 q3 0 19 -4z" />
<glyph unicode="&#xe8;" horiz-adv-x="946" d="M215 463h516q0 65 -23 113t-62.5 74t-84 38t-94.5 12t-93 -12.5t-79.5 -39t-58 -74t-21.5 -111.5zM805 344h-590q0 -58 21.5 -102t52.5 -68t73.5 -39t77 -19.5t70.5 -4.5q40 0 97 10.5t102 28.5q16 4 22 4q25 0 42.5 -17.5t17.5 -42.5q0 -33 -25 -49q-104 -55 -254 -55 q-91 0 -168 25.5t-136 75.5t-92.5 132t-33.5 187q0 88 23 162t68.5 132.5t122.5 91.5t177 33t177 -33t122.5 -91.5t68.5 -132.5t23 -162q0 -25 -17.5 -45.5t-41.5 -20.5zM408 1014l-95 153q-6 9 -6 23q0 27 16 45t44 18q33 0 48.5 -11.5t28.5 -39.5l72 -151q2 -6 2 -19 q0 -26 -14.5 -41.5t-38.5 -15.5q-33 0 -57 39z" />
<glyph unicode="&#xe9;" horiz-adv-x="946" d="M215 463h516q0 65 -23 113t-62.5 74t-84 38t-94.5 12t-93 -12.5t-79.5 -39t-58 -74t-21.5 -111.5zM805 344h-590q0 -58 21.5 -102t52.5 -68t73.5 -39t77 -19.5t70.5 -4.5q40 0 97 10.5t102 28.5q16 4 22 4q25 0 42.5 -17.5t17.5 -42.5q0 -33 -25 -49q-104 -55 -254 -55 q-91 0 -168 25.5t-136 75.5t-92.5 132t-33.5 187q0 88 23 162t68.5 132.5t122.5 91.5t177 33t177 -33t122.5 -91.5t68.5 -132.5t23 -162q0 -25 -17.5 -45.5t-41.5 -20.5zM639 1167l-94 -153q-24 -39 -58 -39q-24 0 -38.5 15.5t-14.5 41.5q0 13 2 19l72 151q13 28 29 39.5 t49 11.5q28 0 43.5 -18t15.5 -45q0 -14 -6 -23z" />
<glyph unicode="&#xea;" horiz-adv-x="946" d="M215 463h516q0 65 -23 113t-62.5 74t-84 38t-94.5 12t-93 -12.5t-79.5 -39t-58 -74t-21.5 -111.5zM805 344h-590q0 -58 21.5 -102t52.5 -68t73.5 -39t77 -19.5t70.5 -4.5q40 0 97 10.5t102 28.5q16 4 22 4q25 0 42.5 -17.5t17.5 -42.5q0 -33 -25 -49q-104 -55 -254 -55 q-91 0 -168 25.5t-136 75.5t-92.5 132t-33.5 187q0 88 23 162t68.5 132.5t122.5 91.5t177 33t177 -33t122.5 -91.5t68.5 -132.5t23 -162q0 -25 -17.5 -45.5t-41.5 -20.5zM485 1219h-32q-10 0 -23 -13l-160 -139q-20 -14 -20 -43q0 -20 14.5 -34.5t34.5 -14.5q23 0 39 16 l131 123l131 -123q16 -16 39 -16q20 0 34.5 14.5t14.5 34.5q0 29 -20 43l-160 139q-13 13 -23 13z" />
<glyph unicode="&#xeb;" horiz-adv-x="946" d="M217 1087q0 35 22.5 57.5t57.5 22.5t57.5 -22.5t22.5 -57.5t-22.5 -57t-57.5 -22t-57.5 22t-22.5 57zM524 1087q0 35 22.5 57.5t57.5 22.5t57.5 -22.5t22.5 -57.5t-22.5 -57t-57.5 -22t-57.5 22t-22.5 57zM215 463h516q0 65 -23 113t-62.5 74t-84 38t-94.5 12t-93 -12.5 t-79.5 -39t-58 -74t-21.5 -111.5zM805 344h-590q0 -58 21.5 -102t52.5 -68t73.5 -39t77 -19.5t70.5 -4.5q40 0 97 10.5t102 28.5q16 4 22 4q25 0 42.5 -17.5t17.5 -42.5q0 -33 -25 -49q-104 -55 -254 -55q-91 0 -168 25.5t-136 75.5t-92.5 132t-33.5 187q0 88 23 162 t68.5 132.5t122.5 91.5t177 33t177 -33t122.5 -91.5t68.5 -132.5t23 -162q0 -25 -17.5 -45.5t-41.5 -20.5z" />
<glyph unicode="&#xec;" d="M154 66v688q0 29 17 47t46 18t47.5 -18t18.5 -47v-688q0 -29 -18.5 -47.5t-47.5 -18.5t-46 18t-17 48zM135 1014l-94 153q-6 9 -6 23q0 27 15.5 45t43.5 18q33 0 49 -11.5t29 -39.5l72 -151q2 -6 2 -19q0 -26 -14.5 -41.5t-38.5 -15.5q-34 0 -58 39z" />
<glyph unicode="&#xed;" d="M154 66v688q0 29 17 47t46 18t47.5 -18t18.5 -47v-688q0 -29 -18.5 -47.5t-47.5 -18.5t-46 18t-17 48zM389 1167l-94 -153q-24 -39 -57 -39q-24 0 -39 15.5t-15 41.5q0 13 2 19l72 151q13 28 29 39.5t49 11.5q28 0 43.5 -18t15.5 -45q0 -14 -6 -23z" />
<glyph unicode="&#xee;" d="M154 66v688q0 29 17 47t46 18t47.5 -18t18.5 -47v-688q0 -29 -18.5 -47.5t-47.5 -18.5t-46 18t-17 48zM236 1219h-33q-10 0 -23 -13l-160 -139q-20 -14 -20 -43q0 -20 14.5 -34.5t34.5 -14.5q23 0 39 16l131 123l131 -123q16 -16 39 -16q20 0 34.5 14.5t14.5 34.5 q0 29 -20 43l-160 139q-13 13 -22 13z" />
<glyph unicode="&#xef;" d="M31 1044q0 35 22.5 57.5t57.5 22.5t57 -22.5t22 -57.5t-22 -57t-57 -22t-57.5 22t-22.5 57zM248 1044q0 35 22.5 57.5t57.5 22.5t57.5 -22.5t22.5 -57.5t-22.5 -57t-57.5 -22t-57.5 22t-22.5 57zM154 66v688q0 29 17 47t46 18t47.5 -18t18.5 -47v-688q0 -29 -18.5 -47.5 t-47.5 -18.5t-46 18t-17 48z" />
<glyph unicode="&#xf0;" horiz-adv-x="1017" d="M811 907h-109l177 -323q22 -40 39.5 -96.5t17.5 -96.5q0 -96 -34.5 -173.5t-94 -126.5t-135 -75t-160.5 -26q-117 0 -213 44t-156.5 137t-60.5 220q0 104 61 188t159 128.5t212 44.5h125l-84 155h-166q-25 0 -40 15.5t-15 40.5q0 24 15.5 39.5t39.5 15.5h107l-25 47 q-10 17 -10 35q0 26 18.5 44.5t44.5 18.5q35 0 56 -30l61 -115h170q24 0 39.5 -15.5t15.5 -39.5q0 -25 -15 -40.5t-40 -15.5zM508 633q-126 0 -211.5 -63.5t-85.5 -190.5q0 -129 87 -198.5t212 -69.5q78 0 143.5 28t109.5 90.5t44 149.5q0 126 -87.5 190t-211.5 64z" />
<glyph unicode="&#xf1;" horiz-adv-x="1044" d="M268 762l6 -62q37 43 77.5 71t81 39.5t69 15t63.5 3.5q98 0 166.5 -28t107 -82t55.5 -123.5t17 -163.5v-366q0 -29 -18 -47.5t-47 -18.5t-46.5 18.5t-17.5 47.5v368q0 39 -1 63.5t-6 56t-15 50.5t-27.5 39.5t-43 31.5t-62.5 18t-86 7q-119 0 -188.5 -82.5t-69.5 -203.5 v-348q0 -29 -18.5 -47.5t-47.5 -18.5t-46 18t-17 48v696q0 25 16 41t41 16t41 -16t16 -41zM664 975q-44 0 -117.5 34.5t-110.5 34.5q-55 0 -100 -26q-17 -10 -33 -10q-23 0 -39 16t-16 39q0 31 20 45q86 66 168 66q45 0 78.5 -11t50 -24t42 -24t57.5 -11q55 0 100 26 q18 11 33 11q23 0 39 -16.5t16 -39.5q0 -30 -21 -45q-85 -65 -167 -65z" />
<glyph unicode="&#xf2;" horiz-adv-x="1003" d="M502 829q113 0 209.5 -56.5t153.5 -153t57 -209.5q0 -172 -124 -296t-296 -124t-296 124t-124 296q0 113 57 209.5t153.5 153t209.5 56.5zM502 111q121 0 206 86.5t85 208.5t-85 208t-206 86t-206 -86t-85 -208t85 -208.5t206 -86.5zM418 1014l-94 153q-7 11 -7 23 q0 27 16 45t44 18q33 0 49 -11.5t29 -39.5l71 -151q2 -6 2 -19q0 -26 -14.5 -41.5t-38.5 -15.5q-33 0 -57 39z" />
<glyph unicode="&#xf3;" horiz-adv-x="1003" d="M502 829q113 0 209.5 -56.5t153.5 -153t57 -209.5q0 -172 -124 -296t-296 -124t-296 124t-124 296q0 113 57 209.5t153.5 153t209.5 56.5zM502 111q121 0 206 86.5t85 208.5t-85 208t-206 86t-206 -86t-85 -208t85 -208.5t206 -86.5zM674 1167l-94 -153q-24 -39 -58 -39 q-24 0 -38.5 15.5t-14.5 41.5q0 13 2 19l72 151q13 28 29 39.5t49 11.5q28 0 43.5 -18t15.5 -45q0 -14 -6 -23z" />
<glyph unicode="&#xf4;" horiz-adv-x="1003" d="M502 829q113 0 209.5 -56.5t153.5 -153t57 -209.5q0 -172 -124 -296t-296 -124t-296 124t-124 296q0 113 57 209.5t153.5 153t209.5 56.5zM502 111q121 0 206 86.5t85 208.5t-85 208t-206 86t-206 -86t-85 -208t85 -208.5t206 -86.5zM518 1219h-33q-9 0 -22 -13 l-160 -139q-20 -14 -20 -43q0 -20 14.5 -34.5t34.5 -14.5q23 0 39 16l131 123l131 -123q16 -16 39 -16q20 0 34.5 14.5t14.5 34.5q0 28 -21 43l-159 139q-13 13 -23 13z" />
<glyph unicode="&#xf5;" horiz-adv-x="1003" d="M502 829q113 0 209.5 -56.5t153.5 -153t57 -209.5q0 -172 -124 -296t-296 -124t-296 124t-124 296q0 113 57 209.5t153.5 153t209.5 56.5zM502 111q121 0 206 86.5t85 208.5t-85 208t-206 86t-206 -86t-85 -208t85 -208.5t206 -86.5zM621 975q-44 0 -117.5 34.5 t-110.5 34.5q-55 0 -100 -26q-17 -10 -33 -10q-23 0 -39 16t-16 39q0 31 20 45q86 66 168 66q45 0 78.5 -11t50 -24t42 -24t57.5 -11q55 0 100 26q18 11 33 11q23 0 39 -16.5t16 -39.5q0 -30 -21 -45q-85 -65 -167 -65z" />
<glyph unicode="&#xf6;" horiz-adv-x="1003" d="M502 829q113 0 209.5 -56.5t153.5 -153t57 -209.5q0 -172 -124 -296t-296 -124t-296 124t-124 296q0 113 57 209.5t153.5 153t209.5 56.5zM502 111q121 0 206 86.5t85 208.5t-85 208t-206 86t-206 -86t-85 -208t85 -208.5t206 -86.5zM268 1087q0 35 22.5 57.5t57.5 22.5 t57.5 -22.5t22.5 -57.5t-22.5 -57t-57.5 -22t-57.5 22t-22.5 57zM575 1087q0 35 22.5 57.5t57.5 22.5t57.5 -22.5t22.5 -57.5t-22.5 -57t-57.5 -22t-57.5 22t-22.5 57z" />
<glyph unicode="&#xf7;" horiz-adv-x="927" d="M381 70q0 35 22.5 57.5t57.5 22.5t57.5 -22.5t22.5 -57.5t-22.5 -57.5t-57.5 -22.5t-57.5 22.5t-22.5 57.5zM381 666q0 35 22.5 57t57.5 22t57.5 -22t22.5 -57t-22.5 -57.5t-57.5 -22.5t-57.5 22.5t-22.5 57.5zM711 295h-494q-29 0 -46 17t-17 46q0 30 17 48t46 18h494 q29 0 46 -18t17 -48q0 -29 -17 -46t-46 -17z" />
<glyph unicode="&#xf8;" horiz-adv-x="1003" d="M211 395q0 -81 39 -149t106 -107l203 545q-27 6 -57 6q-121 0 -206 -86.5t-85 -208.5zM502 100q121 0 206 86.5t85 208.5q0 81 -39.5 149t-106.5 107l-205 -545q27 -6 60 -6zM735 889l-45 -115q105 -55 168.5 -155t63.5 -220q0 -113 -57 -209.5t-153.5 -153t-209.5 -56.5 q-54 0 -103 12l-41 -111q-15 -35 -45 -35q-20 0 -33.5 14t-13.5 34q0 12 2 16l45 115q-106 55 -168.5 154t-62.5 220q0 172 124 296t296 124q52 0 102 -12l41 111q15 34 45 34q20 0 33.5 -13.5t13.5 -33.5q0 -12 -2 -16z" />
<glyph unicode="&#xf9;" horiz-adv-x="1019" d="M866 754v-697q0 -25 -16 -41t-41 -16t-41 16t-16 41l-4 54q-34 -42 -73 -68.5t-78.5 -37t-63 -13t-54.5 -2.5q-98 0 -166.5 28t-107 82t-55.5 123.5t-17 163.5v367q0 29 17.5 47t46.5 18t47 -18t18 -47v-377q0 -52 4 -87.5t18 -72t40 -58t71 -35t109 -13.5 q118 0 175.5 80.5t57.5 205.5v357q0 29 17.5 47t46.5 18t47 -18t18 -47zM420 1014l-94 153q-7 11 -7 23q0 27 16 45t44 18q33 0 49 -11.5t29 -39.5l71 -151q2 -6 2 -19q0 -26 -14.5 -41.5t-38.5 -15.5q-33 0 -57 39z" />
<glyph unicode="&#xfa;" horiz-adv-x="1019" d="M866 754v-697q0 -25 -16 -41t-41 -16t-41 16t-16 41l-4 54q-34 -42 -73 -68.5t-78.5 -37t-63 -13t-54.5 -2.5q-98 0 -166.5 28t-107 82t-55.5 123.5t-17 163.5v367q0 29 17.5 47t46.5 18t47 -18t18 -47v-377q0 -52 4 -87.5t18 -72t40 -58t71 -35t109 -13.5 q118 0 175.5 80.5t57.5 205.5v357q0 29 17.5 47t46.5 18t47 -18t18 -47zM659 1167l-94 -153q-24 -39 -57 -39q-24 0 -38.5 15.5t-14.5 41.5q0 13 2 19l71 151q13 28 29 39.5t49 11.5q28 0 44 -18t16 -45q0 -12 -7 -23z" />
<glyph unicode="&#xfb;" horiz-adv-x="1019" d="M866 754v-697q0 -25 -16 -41t-41 -16t-41 16t-16 41l-4 54q-34 -42 -73 -68.5t-78.5 -37t-63 -13t-54.5 -2.5q-98 0 -166.5 28t-107 82t-55.5 123.5t-17 163.5v367q0 29 17.5 47t46.5 18t47 -18t18 -47v-377q0 -52 4 -87.5t18 -72t40 -58t71 -35t109 -13.5 q118 0 175.5 80.5t57.5 205.5v357q0 29 17.5 47t46.5 18t47 -18t18 -47zM518 1219h-33q-9 0 -22 -13l-160 -139q-20 -14 -20 -43q0 -20 14.5 -34.5t34.5 -14.5q23 0 39 16l131 123l131 -123q16 -16 39 -16q20 0 34.5 14.5t14.5 34.5q0 28 -21 43l-159 139q-13 13 -23 13z " />
<glyph unicode="&#xfc;" horiz-adv-x="1019" d="M264 1087q0 35 22.5 57.5t57.5 22.5t57.5 -22.5t22.5 -57.5t-22.5 -57t-57.5 -22t-57.5 22t-22.5 57zM571 1087q0 35 22.5 57.5t57.5 22.5t57.5 -22.5t22.5 -57.5t-22.5 -57t-57.5 -22t-57.5 22t-22.5 57zM866 754v-697q0 -25 -16 -41t-41 -16t-41 16t-16 41l-4 54 q-34 -42 -73 -68.5t-78.5 -37t-63 -13t-54.5 -2.5q-98 0 -166.5 28t-107 82t-55.5 123.5t-17 163.5v367q0 29 17.5 47t46.5 18t47 -18t18 -47v-377q0 -52 4 -87.5t18 -72t40 -58t71 -35t109 -13.5q118 0 175.5 80.5t57.5 205.5v357q0 29 17.5 47t46.5 18t47 -18t18 -47z" />
<glyph unicode="&#xfd;" horiz-adv-x="1019" d="M737 -29v127q-32 -38 -69.5 -62.5t-76.5 -33t-60 -10.5t-52 -2q-98 0 -166.5 28t-107 82t-55.5 123.5t-17 163.5v367q0 29 17.5 47t46.5 18t47 -18t18 -47v-377q0 -52 4 -87.5t18 -72t40 -58t71 -35t109 -13.5q118 0 175.5 80.5t57.5 205.5v357q0 29 17.5 47t46.5 18 t47 -18t18 -47v-797q0 -83 -23 -147.5t-60 -103.5t-89 -64t-103.5 -34t-109.5 -9q-189 0 -291 55q-26 14 -26 47q0 25 16 41t39 16q13 0 17 -2q95 -37 219 -37q84 0 140 16.5t86.5 50.5t43 78t12.5 107zM659 1167l-94 -153q-24 -39 -57 -39q-24 0 -38.5 15.5t-14.5 41.5 q0 13 2 19l71 151q13 28 29 39.5t49 11.5q28 0 44 -18t16 -45q0 -12 -7 -23z" />
<glyph unicode="&#xfe;" horiz-adv-x="1067" d="M154 -285v1383q0 29 18 47t47 18t46.5 -18t17.5 -47v-389q42 40 91 66.5t94 37t71 13.5t49 3q173 0 285 -116.5t112 -298.5q0 -119 -42.5 -213.5t-133 -152.5t-217.5 -58q-82 0 -154 22t-155 92v-389q0 -29 -17.5 -47t-46.5 -18t-47 18t-18 47zM573 111q129 0 206 72.5 t77 228.5q0 133 -80 210.5t-203 77.5q-120 0 -205 -78t-85 -210q0 -137 84 -219t206 -82z" />
<glyph unicode="&#xff;" horiz-adv-x="1019" d="M264 1087q0 35 22.5 57.5t57.5 22.5t57.5 -22.5t22.5 -57.5t-22.5 -57t-57.5 -22t-57.5 22t-22.5 57zM571 1087q0 35 22.5 57.5t57.5 22.5t57.5 -22.5t22.5 -57.5t-22.5 -57t-57.5 -22t-57.5 22t-22.5 57zM737 -29v127q-32 -38 -69.5 -62.5t-76.5 -33t-60 -10.5t-52 -2 q-98 0 -166.5 28t-107 82t-55.5 123.5t-17 163.5v367q0 29 17.5 47t46.5 18t47 -18t18 -47v-377q0 -52 4 -87.5t18 -72t40 -58t71 -35t109 -13.5q118 0 175.5 80.5t57.5 205.5v357q0 29 17.5 47t46.5 18t47 -18t18 -47v-797q0 -83 -23 -147.5t-60 -103.5t-89 -64t-103.5 -34 t-109.5 -9q-189 0 -291 55q-26 14 -26 47q0 25 16 41t39 16q13 0 17 -2q95 -37 219 -37q84 0 140 16.5t86.5 50.5t43 78t12.5 107z" />
<glyph unicode="&#x152;" horiz-adv-x="1722" d="M834 1163h700q27 0 46 -17.5t19 -45.5q0 -29 -19 -47.5t-46 -18.5h-580v-405h451q27 0 46 -18t19 -46q0 -29 -19 -47t-46 -18h-453v-371h582q27 0 46 -18.5t19 -47.5q0 -28 -19 -45.5t-46 -17.5h-694l-142 -10q-161 0 -298.5 79.5t-217.5 216.5t-80 298t79.5 298 t216.5 216.5t298 79.5q74 0 138 -15zM696 111q68 0 127 10v915q-63 13 -127 13q-193 0 -329 -137.5t-136 -331.5t136 -331.5t329 -137.5z" />
<glyph unicode="&#x153;" horiz-adv-x="1656" d="M502 111q118 0 202 81.5t89 200.5v17q0 120 -86 205t-205 85q-121 0 -206 -86t-85 -208t85 -208.5t206 -86.5zM926 463h516q0 65 -23 113t-62.5 74t-84 38t-94.5 12t-93 -12.5t-79.5 -39t-58 -74t-21.5 -111.5zM1516 344h-590q0 -58 21.5 -102t52.5 -68t73.5 -39 t77 -19.5t70.5 -4.5q100 0 198 39q16 4 23 4q25 0 42 -17.5t17 -42.5q0 -34 -24 -49q-104 -55 -254 -55q-126 0 -223.5 46t-151.5 140q-58 -87 -148.5 -136.5t-197.5 -49.5q-172 0 -296 124t-124 296q0 113 57 209.5t153.5 153t209.5 56.5q103 0 192.5 -49t151.5 -133 q95 182 338 182q100 0 177 -33t122.5 -91.5t68.5 -132.5t23 -162q0 -25 -17.5 -45.5t-41.5 -20.5z" />
<glyph unicode="&#x178;" horiz-adv-x="1097" d="M322 1389q0 35 22 57t57 22t57.5 -22t22.5 -57t-22.5 -57.5t-57.5 -22.5t-57 22.5t-22 57.5zM623 1389q0 35 22 57t57 22t57.5 -22t22.5 -57t-22.5 -57.5t-57.5 -22.5t-57 22.5t-22 57.5zM614 451v-385q0 -29 -18 -47.5t-47 -18.5t-46.5 18.5t-17.5 47.5v383l-424 616 q-10 17 -10 35q0 29 17.5 46t46.5 17q34 0 53 -28l381 -555l381 555q19 28 53 28q29 0 46.5 -17t17.5 -46q0 -17 -11 -35z" />
<glyph unicode="&#x2c6;" horiz-adv-x="745" d="M356 1163h33q11 0 23 -12l159 -139q21 -15 21 -43q0 -20 -14.5 -34.5t-34.5 -14.5q-23 0 -39 16l-131 123l-131 -123q-16 -16 -39 -16q-20 0 -34.5 14.5t-14.5 34.5q0 29 20 43l160 139q12 12 22 12z" />
<glyph unicode="&#x2dc;" horiz-adv-x="911" d="M569 965q-44 0 -117 34.5t-110 34.5q-55 0 -100 -26q-18 -11 -33 -11q-23 0 -39 16.5t-16 39.5q0 31 20 45q85 65 168 65q45 0 78.5 -11t49.5 -23.5t41.5 -23.5t57.5 -11q56 0 101 26q17 10 32 10q23 0 39.5 -16t16.5 -39q0 -30 -21 -45q-85 -65 -168 -65z" />
<glyph unicode="&#x2000;" horiz-adv-x="851" />
<glyph unicode="&#x2001;" horiz-adv-x="1702" />
<glyph unicode="&#x2002;" horiz-adv-x="851" />
<glyph unicode="&#x2003;" horiz-adv-x="1702" />
<glyph unicode="&#x2004;" horiz-adv-x="567" />
<glyph unicode="&#x2005;" horiz-adv-x="425" />
<glyph unicode="&#x2006;" horiz-adv-x="283" />
<glyph unicode="&#x2007;" horiz-adv-x="283" />
<glyph unicode="&#x2008;" horiz-adv-x="212" />
<glyph unicode="&#x2009;" horiz-adv-x="340" />
<glyph unicode="&#x200a;" horiz-adv-x="94" />
<glyph unicode="&#x2010;" horiz-adv-x="903" d="M686 317h-469q-29 0 -46 17.5t-17 46.5t17 47t46 18h469q29 0 46.5 -18t17.5 -47t-17.5 -46.5t-46.5 -17.5z" />
<glyph unicode="&#x2011;" horiz-adv-x="903" d="M686 317h-469q-29 0 -46 17.5t-17 46.5t17 47t46 18h469q29 0 46.5 -18t17.5 -47t-17.5 -46.5t-46.5 -17.5z" />
<glyph unicode="&#x2012;" horiz-adv-x="903" d="M686 317h-469q-29 0 -46 17.5t-17 46.5t17 47t46 18h469q29 0 46.5 -18t17.5 -47t-17.5 -46.5t-46.5 -17.5z" />
<glyph unicode="&#x2013;" horiz-adv-x="903" d="M686 317h-469q-29 0 -46 17.5t-17 46.5t17 47t46 18h469q29 0 46.5 -18t17.5 -47t-17.5 -46.5t-46.5 -17.5z" />
<glyph unicode="&#x2014;" horiz-adv-x="1030" d="M813 317h-596q-29 0 -46 17.5t-17 46.5t17 47t46 18h596q29 0 46.5 -18t17.5 -47t-17.5 -46.5t-46.5 -17.5z" />
<glyph unicode="&#x2018;" horiz-adv-x="468" d="M305 1139l-39 -119q23 -12 36 -31.5t13 -40.5q0 -35 -23 -58.5t-56 -23.5q-35 0 -58.5 23.5t-23.5 58.5q0 6 3 16.5t5 12.5l78 162q5 12 12 17.5t11.5 6t15.5 0.5q28 0 28 -18q-2 0 -2 -2v-4z" />
<glyph unicode="&#x2019;" horiz-adv-x="468" d="M164 891l39 119q-49 25 -49 71q0 35 23 58.5t56 23.5q35 0 58.5 -23.5t23.5 -58.5q0 -20 -8 -28l-78 -162q-7 -17 -15.5 -21t-23.5 -4q-28 0 -28 19v2q0 1 1 2t1 2z" />
<glyph unicode="&#x201a;" horiz-adv-x="468" d="M164 -152l39 119q-23 12 -36 31.5t-13 40.5q0 35 23 58.5t56 23.5q35 0 58.5 -23.5t23.5 -58.5q0 -6 -3 -16.5t-5 -12.5l-78 -162q-5 -12 -12 -17.5t-11.5 -6t-15.5 -0.5q-28 0 -28 18v2q0 1 1 2t1 2z" />
<glyph unicode="&#x201c;" horiz-adv-x="733" d="M569 1139l-39 -119q50 -26 50 -72q0 -35 -23.5 -58.5t-56.5 -23.5q-35 0 -58.5 23.5t-23.5 58.5q0 6 3 16.5t5 12.5l78 162q5 12 12 17.5t11.5 6t15.5 0.5q28 0 28 -18q-2 0 -2 -2v-4zM305 1139l-39 -119q23 -12 36 -31.5t13 -40.5q0 -35 -23 -58.5t-56 -23.5 q-35 0 -58.5 23.5t-23.5 58.5q0 6 3 16.5t5 12.5l78 162q5 12 12 17.5t11.5 6t15.5 0.5q28 0 28 -18q-2 0 -2 -2v-4z" />
<glyph unicode="&#x201d;" horiz-adv-x="733" d="M164 891l39 119q-49 25 -49 71q0 35 23 58.5t56 23.5q35 0 58.5 -23.5t23.5 -58.5q0 -20 -8 -28l-78 -162q-7 -17 -15.5 -21t-23.5 -4q-28 0 -28 19v2q0 1 1 2t1 2zM428 891l39 119q-49 25 -49 71q0 35 23.5 58.5t56.5 23.5q35 0 58.5 -23.5t23.5 -58.5q0 -5 -3.5 -15.5 t-5.5 -12.5l-77 -162q-7 -17 -15.5 -21t-23.5 -4q-29 0 -29 19v2q0 1 1 2t1 2z" />
<glyph unicode="&#x201e;" horiz-adv-x="733" d="M164 -152l39 119q-23 12 -36 31.5t-13 40.5q0 35 23 58.5t56 23.5q35 0 58.5 -23.5t23.5 -58.5q0 -6 -3 -16.5t-5 -12.5l-78 -162q-5 -12 -12 -17.5t-11.5 -6t-15.5 -0.5q-28 0 -28 18v2q0 1 1 2t1 2zM428 -152l39 119q-23 12 -36 31.5t-13 40.5q0 35 23.5 58.5 t56.5 23.5q35 0 58.5 -23.5t23.5 -58.5q0 -5 -3.5 -16t-5.5 -13l-77 -162q-5 -12 -12 -17.5t-11.5 -6t-15.5 -0.5q-29 0 -29 18v2q0 1 1 2t1 2z" />
<glyph unicode="&#x2022;" horiz-adv-x="497" d="M154 385q0 41 26.5 67.5t65.5 26.5q42 0 70 -26.5t28 -67.5q0 -39 -28.5 -66.5t-69.5 -27.5q-38 0 -65 28t-27 66z" />
<glyph unicode="&#x2026;" horiz-adv-x="1335" d="M154 70q0 35 22 57.5t57 22.5t57.5 -22.5t22.5 -57.5t-22.5 -57.5t-57.5 -22.5t-57 22.5t-22 57.5zM588 70q0 35 22.5 57.5t57.5 22.5t57.5 -22.5t22.5 -57.5t-22.5 -57.5t-57.5 -22.5t-57.5 22.5t-22.5 57.5zM1022 70q0 35 22.5 57.5t57.5 22.5t57.5 -22.5t22.5 -57.5 t-22.5 -57.5t-57.5 -22.5t-57.5 22.5t-22.5 57.5z" />
<glyph unicode="&#x202f;" horiz-adv-x="340" />
<glyph unicode="&#x2039;" horiz-adv-x="978" d="M154 403q0 76 65 111l508 254q13 8 31 8q29 0 48 -19t19 -48q0 -35 -41 -60l-497 -243l497 -244q41 -25 41 -60q0 -29 -19 -48t-48 -19q-18 0 -31 8l-508 254q-65 35 -65 106z" />
<glyph unicode="&#x203a;" horiz-adv-x="978" d="M825 403q0 -71 -65 -106l-508 -254q-13 -8 -31 -8q-29 0 -48 19t-19 48q0 35 41 60l497 244l-497 243q-41 25 -41 60q0 29 19 48t48 19q18 0 31 -8l508 -254q65 -35 65 -111z" />
<glyph unicode="&#x205f;" horiz-adv-x="425" />
<glyph unicode="&#x20ac;" horiz-adv-x="1513" d="M700 360h-184q61 -114 170 -181.5t242 -67.5q197 0 340 114q16 13 35 13q25 0 41 -16.5t16 -41.5q0 -20 -14 -37q-150 -153 -416 -153q-185 0 -336.5 102.5t-216.5 267.5h-168q-25 0 -40 15.5t-15 40.5t15 41t40 16h135q-10 44 -10 111q0 36 2 59h-127q-25 0 -40 15 t-15 40t15.5 41.5t39.5 16.5h149q53 184 212.5 303t357.5 119q201 0 358 -113q27 -27 27 -51q0 -25 -18.5 -42.5t-43.5 -17.5q-21 0 -37 13q-117 82 -286 82q-145 0 -262.5 -81.5t-167.5 -211.5h202q25 0 40.5 -16.5t15.5 -41.5t-15.5 -40t-40.5 -15h-233q-4 -15 -4 -63 q0 -58 12 -107h225q25 0 40.5 -16t15.5 -41t-15.5 -40.5t-40.5 -15.5z" />
<glyph unicode="&#x2122;" horiz-adv-x="1439" d="M201 1163h401q20 0 33.5 -13.5t13.5 -33.5t-13.5 -33.5t-33.5 -13.5h-153v-479q0 -20 -14 -33.5t-34 -13.5q-23 0 -35 13t-12 34v479h-153q-20 0 -33.5 13.5t-13.5 33.5t13.5 33.5t33.5 13.5zM1008 752q-11 0 -23 12l-162 178v-352q0 -20 -13.5 -33.5t-33.5 -13.5 q-23 0 -35 13t-12 34v561q6 12 16 12q9 0 21 -12l223 -256q15 -12 19 -12q3 0 18 12l223 256q12 12 21 12q10 0 16 -12v-561q0 -21 -12 -34t-35 -13q-20 0 -33.5 13.5t-13.5 33.5v352l-162 -178q-12 -12 -22 -12z" />
<glyph unicode="&#x25fc;" horiz-adv-x="819" d="M0 819h819v-819h-819v819z" />
</font>
</defs>
</svg>
